<svg xmlns="http://www.w3.org/2000/svg" width="2078.401" height="476.468" viewBox="0 0 2078.401 476.468">
    <g data-name="Group 15154">
        <g data-name="Group 14444">
            <g data-name="Group 14443">
                <g data-name="Group 14442">
                    <g data-name="Group 14435" transform="translate(39.293 357.895)">
                        <path data-name="Path 5077" d="M1476.763 216.151a12.782 12.782 0 1 0 17.743.323 12.555 12.555 0 0 0-17.743-.323z" transform="translate(-1473.248 -119.158)" style="fill:#fff"/>
                        <ellipse data-name="Ellipse 575" cx="24.164" cy="23.302" rx="24.164" ry="23.302" transform="translate(12.548)" style="fill:#dcecf8"/>
                    </g>
                    <g data-name="Group 14436">
                        <path data-name="Path 5078" d="M1181.041 144.623a12.781 12.781 0 1 0 17.743.32 12.551 12.551 0 0 0-17.743-.32z" transform="translate(-252.818 96.101)" style="fill:#dcecf8"/>
                        <path data-name="Path 5079" d="M1178.045 196.259a11 11 0 1 0 10.994-10.6 10.8 10.8 0 0 0-10.994 10.6z" transform="translate(-251.784 184.939)" style="fill:#fff"/>
                    </g>
                    <g data-name="Group 14439">
                        <path data-name="Path 5084" d="M1627.686 62.178s24.947 67.834-52.432 117.922c-109.655 70.981-30.7 149.018-151.863 217.6" transform="translate(-1417.854 -61.289)" style="fill:none;stroke:#b7d5e5;stroke-miterlimit:10"/>
                        <path data-name="Path 5085" d="M1461.577 334.358c44.3-22 76.627-52.052 91.281-84.861s11.566-68.226-8.716-100c-14.923-23.381-42.181-46.214-83.1-53.606z" transform="translate(-1461.043 5.932)" style="fill:#e7f4fb"/>
                    </g>
                    <g data-name="Group 14441">
                        <g data-name="Group 14440">
                            <path data-name="Path 5086" d="M1391.214 175.477a358.376 358.376 0 0 0 111.186-17.438c95.589-31.031 148.524-93.613 149.048-94.242l-2.3-1.916c-.518.623-53 62.621-147.818 93.359-87.49 28.366-228.206 37.2-410.306-91.568l-3.536.392c80.849 57.169 160.794 92.751 237.61 105.751a396.029 396.029 0 0 0 66.116 5.662z" transform="translate(426.958 -61.881)" style="fill:#b7d5e5"/>
                        </g>
                        <path data-name="Path 5087" d="M1139.167 62.178c37.779 44.3 92.688 77.161 149.036 91.814a288.332 288.332 0 0 0 171.743-8.713c40.157-14.925 79.367-42.184 92.062-83.1z" transform="translate(371.644 -61.289)" style="fill:#e7f4fb"/>
                    </g>
                </g>
            </g>
        </g>
    </g>
</svg>
