<svg xmlns="http://www.w3.org/2000/svg" width="1920" height="1010" viewBox="0 0 1920 1010">
    <defs>
        <clipPath id="07j4l69xqa">
            <path data-name="Rectangle 2722" style="fill:#fff;stroke:#707070" d="M0 0h1920v1010H0z"/>
        </clipPath>
        <clipPath id="0u18orsebc">
            <circle cx="279.676" cy="279.676" r="279.676" style="fill:none"/>
        </clipPath>
        <clipPath id="41bnt8100d">
            <circle data-name="SVGID" cx="98.089" cy="98.089" r="98.089" transform="rotate(-80.783 113.8 96.823)" style="fill:none"/>
        </clipPath>
        <linearGradient id="wtwtgow34b" x1=".696" y1=".882" x2=".698" y2="-.022" gradientUnits="objectBoundingBox">
            <stop offset="0" stop-color="#fff"/>
            <stop offset="1" stop-color="#f0f8fe"/>
        </linearGradient>
    </defs>
    <g data-name="Mask Group 8" style="clip-path:url(#07j4l69xqa)">
        <g data-name="Group 15152">
            <path data-name="Path 4278" d="M0 997.851h1920V0H0z" transform="translate(0 -5.851)" style="fill:url(#wtwtgow34b)"/>
            <path data-name="Path 4390" d="M1543.294 1092.582s176.623 123.1 363.558-77.514 278.119-219.415 579.041-134.784 487.846-258.6 487.846-258.6H1543.294z" transform="translate(-1543.294 -627.536)" style="fill:#85c1e3;opacity:.105"/>
            <g data-name="Group 14216">
                <g data-name="Group 14211" style="opacity:.3">
                    <g data-name="Group 14210" style="clip-path:url(#0u18orsebc)" transform="translate(-226.203 -4.626)">
                        <g data-name="Group 14209">
                            <path data-name="Line 23" style="stroke:#6a1b99;stroke-miterlimit:10;fill:none" d="M773.609 0 0 773.609" transform="translate(-635.683 -116.306)"/>
                            <path data-name="Line 24" transform="translate(-604.898 -116.306)" style="stroke:#6a1b99;stroke-miterlimit:10;fill:none" d="M773.609 0 0 773.609"/>
                            <path data-name="Line 25" transform="translate(-574.112 -116.306)" style="stroke:#6a1b99;stroke-miterlimit:10;fill:none" d="M773.609 0 0 773.609"/>
                            <path data-name="Line 26" transform="translate(-543.327 -116.306)" style="stroke:#6a1b99;stroke-miterlimit:10;fill:none" d="M773.609 0 0 773.609"/>
                            <path data-name="Line 27" transform="translate(-512.542 -116.306)" style="stroke:#6a1b99;stroke-miterlimit:10;fill:none" d="M773.609 0 0 773.609"/>
                            <path data-name="Line 28" transform="translate(-481.756 -116.306)" style="stroke:#6a1b99;stroke-miterlimit:10;fill:none" d="M773.609 0 0 773.609"/>
                            <path data-name="Line 29" transform="translate(-450.971 -116.306)" style="stroke:#6a1b99;stroke-miterlimit:10;fill:none" d="M773.609 0 0 773.609"/>
                            <path data-name="Line 30" transform="translate(-420.185 -116.306)" style="stroke:#6a1b99;stroke-miterlimit:10;fill:none" d="M773.609 0 0 773.609"/>
                            <path data-name="Line 31" transform="translate(-389.4 -116.306)" style="stroke:#6a1b99;stroke-miterlimit:10;fill:none" d="M773.609 0 0 773.609"/>
                            <path data-name="Line 32" transform="translate(-358.615 -116.306)" style="stroke:#6a1b99;stroke-miterlimit:10;fill:none" d="M773.609 0 0 773.609"/>
                            <path data-name="Line 33" transform="translate(-327.829 -116.306)" style="stroke:#6a1b99;stroke-miterlimit:10;fill:none" d="M773.609 0 0 773.609"/>
                            <path data-name="Line 34" transform="translate(-297.044 -116.306)" style="stroke:#6a1b99;stroke-miterlimit:10;fill:none" d="M773.609 0 0 773.609"/>
                            <path data-name="Line 35" transform="translate(-266.258 -116.306)" style="stroke:#6a1b99;stroke-miterlimit:10;fill:none" d="M773.609 0 0 773.609"/>
                            <path data-name="Line 36" transform="translate(-235.473 -116.306)" style="stroke:#6a1b99;stroke-miterlimit:10;fill:none" d="M773.609 0 0 773.609"/>
                            <path data-name="Line 37" transform="translate(-204.688 -116.306)" style="stroke:#6a1b99;stroke-miterlimit:10;fill:none" d="M773.609 0 0 773.609"/>
                            <path data-name="Line 38" transform="translate(-173.902 -116.306)" style="stroke:#6a1b99;stroke-miterlimit:10;fill:none" d="M773.609 0 0 773.609"/>
                            <path data-name="Line 39" transform="translate(-143.117 -116.306)" style="stroke:#6a1b99;stroke-miterlimit:10;fill:none" d="M773.609 0 0 773.609"/>
                            <path data-name="Line 40" transform="translate(-112.332 -116.306)" style="stroke:#6a1b99;stroke-miterlimit:10;fill:none" d="M773.609 0 0 773.609"/>
                            <path data-name="Line 41" transform="translate(-81.546 -116.306)" style="stroke:#6a1b99;stroke-miterlimit:10;fill:none" d="M773.609 0 0 773.609"/>
                            <path data-name="Line 42" transform="translate(-50.761 -116.306)" style="stroke:#6a1b99;stroke-miterlimit:10;fill:none" d="M773.609 0 0 773.609"/>
                            <path data-name="Line 43" transform="translate(-19.975 -116.306)" style="stroke:#6a1b99;stroke-miterlimit:10;fill:none" d="M773.609 0 0 773.609"/>
                            <path data-name="Line 44" transform="translate(10.81 -116.306)" style="stroke:#6a1b99;stroke-miterlimit:10;fill:none" d="M773.609 0 0 773.609"/>
                            <path data-name="Line 45" transform="translate(41.596 -116.306)" style="stroke:#6a1b99;stroke-miterlimit:10;fill:none" d="M773.609 0 0 773.609"/>
                            <path data-name="Line 46" transform="translate(72.381 -116.306)" style="stroke:#6a1b99;stroke-miterlimit:10;fill:none" d="M773.609 0 0 773.609"/>
                            <path data-name="Line 47" transform="translate(103.166 -116.306)" style="stroke:#6a1b99;stroke-miterlimit:10;fill:none" d="M773.609 0 0 773.609"/>
                            <path data-name="Line 48" transform="translate(133.951 -116.306)" style="stroke:#6a1b99;stroke-miterlimit:10;fill:none" d="M773.609 0 0 773.609"/>
                            <path data-name="Line 49" transform="translate(164.737 -116.306)" style="stroke:#6a1b99;stroke-miterlimit:10;fill:none" d="M773.609 0 0 773.609"/>
                            <path data-name="Line 50" transform="translate(195.522 -116.306)" style="stroke:#6a1b99;stroke-miterlimit:10;fill:none" d="M773.609 0 0 773.609"/>
                            <path data-name="Line 51" transform="translate(226.308 -116.306)" style="stroke:#6a1b99;stroke-miterlimit:10;fill:none" d="M773.609 0 0 773.609"/>
                            <path data-name="Line 52" transform="translate(257.093 -116.306)" style="stroke:#6a1b99;stroke-miterlimit:10;fill:none" d="M773.609 0 0 773.609"/>
                            <path data-name="Line 53" transform="translate(287.878 -116.306)" style="stroke:#6a1b99;stroke-miterlimit:10;fill:none" d="M773.609 0 0 773.609"/>
                            <path data-name="Line 54" transform="translate(318.664 -116.306)" style="stroke:#6a1b99;stroke-miterlimit:10;fill:none" d="M773.609 0 0 773.609"/>
                            <path data-name="Line 55" transform="translate(349.449 -116.306)" style="stroke:#6a1b99;stroke-miterlimit:10;fill:none" d="M773.609 0 0 773.609"/>
                            <path data-name="Line 56" transform="translate(380.234 -116.306)" style="stroke:#6a1b99;stroke-miterlimit:10;fill:none" d="M773.609 0 0 773.609"/>
                            <path data-name="Line 57" transform="translate(411.02 -116.306)" style="stroke:#6a1b99;stroke-miterlimit:10;fill:none" d="M773.609 0 0 773.609"/>
                            <path data-name="Line 58" transform="translate(441.805 -116.306)" style="stroke:#6a1b99;stroke-miterlimit:10;fill:none" d="M773.609 0 0 773.609"/>
                            <path data-name="Line 59" transform="translate(472.591 -116.306)" style="stroke:#6a1b99;stroke-miterlimit:10;fill:none" d="M773.609 0 0 773.609"/>
                            <path data-name="Line 60" transform="translate(503.376 -116.306)" style="stroke:#6a1b99;stroke-miterlimit:10;fill:none" d="M773.609 0 0 773.609"/>
                            <path data-name="Line 61" transform="translate(534.162 -116.306)" style="stroke:#6a1b99;stroke-miterlimit:10;fill:none" d="M773.609 0 0 773.609"/>
                            <path data-name="Line 62" transform="translate(564.947 -116.306)" style="stroke:#6a1b99;stroke-miterlimit:10;fill:none" d="M773.609 0 0 773.609"/>
                            <path data-name="Line 63" transform="translate(595.733 -116.306)" style="stroke:#6a1b99;stroke-miterlimit:10;fill:none" d="M773.609 0 0 773.609"/>
                            <path data-name="Line 64" transform="translate(626.518 -116.306)" style="stroke:#6a1b99;stroke-miterlimit:10;fill:none" d="M773.609 0 0 773.609"/>
                            <path data-name="Line 65" transform="translate(657.303 -116.306)" style="stroke:#6a1b99;stroke-miterlimit:10;fill:none" d="M773.609 0 0 773.609"/>
                        </g>
                    </g>
                </g>
                <g data-name="Group 14214" style="opacity:.3">
                    <g data-name="Group 14213" transform="translate(1493.205 -17.01)" style="clip-path:url(#41bnt8100d)">
                        <g data-name="Group 14212">
                            <path data-name="Line 66" style="stroke:#6a1b99;stroke-miterlimit:10;fill:none" d="M314.606 0 0 314.606" transform="translate(-266.315 -47.987)"/>
                            <path data-name="Line 67" transform="translate(-253.796 -47.987)" style="stroke:#6a1b99;stroke-miterlimit:10;fill:none" d="M314.606 0 0 314.606"/>
                            <path data-name="Line 68" transform="translate(-241.276 -47.987)" style="stroke:#6a1b99;stroke-miterlimit:10;fill:none" d="M314.606 0 0 314.606"/>
                            <path data-name="Line 69" transform="translate(-228.757 -47.987)" style="stroke:#6a1b99;stroke-miterlimit:10;fill:none" d="M314.606 0 0 314.606"/>
                            <path data-name="Line 70" transform="translate(-216.237 -47.987)" style="stroke:#6a1b99;stroke-miterlimit:10;fill:none" d="M314.606 0 0 314.606"/>
                            <path data-name="Line 71" transform="translate(-203.718 -47.987)" style="stroke:#6a1b99;stroke-miterlimit:10;fill:none" d="M314.606 0 0 314.606"/>
                            <path data-name="Line 72" transform="translate(-191.198 -47.987)" style="stroke:#6a1b99;stroke-miterlimit:10;fill:none" d="M314.606 0 0 314.606"/>
                            <path data-name="Line 73" transform="translate(-178.678 -47.987)" style="stroke:#6a1b99;stroke-miterlimit:10;fill:none" d="M314.606 0 0 314.606"/>
                            <path data-name="Line 74" transform="translate(-166.158 -47.987)" style="stroke:#6a1b99;stroke-miterlimit:10;fill:none" d="M314.606 0 0 314.606"/>
                            <path data-name="Line 75" transform="translate(-153.639 -47.987)" style="stroke:#6a1b99;stroke-miterlimit:10;fill:none" d="M314.606 0 0 314.606"/>
                            <path data-name="Line 76" transform="translate(-141.12 -47.987)" style="stroke:#6a1b99;stroke-miterlimit:10;fill:none" d="M314.606 0 0 314.606"/>
                            <path data-name="Line 77" transform="translate(-128.6 -47.987)" style="stroke:#6a1b99;stroke-miterlimit:10;fill:none" d="M314.606 0 0 314.606"/>
                            <path data-name="Line 78" transform="translate(-116.08 -47.987)" style="stroke:#6a1b99;stroke-miterlimit:10;fill:none" d="M314.606 0 0 314.606"/>
                            <path data-name="Line 79" transform="translate(-103.56 -47.987)" style="stroke:#6a1b99;stroke-miterlimit:10;fill:none" d="M314.606 0 0 314.606"/>
                            <path data-name="Line 80" transform="translate(-91.041 -47.987)" style="stroke:#6a1b99;stroke-miterlimit:10;fill:none" d="M314.606 0 0 314.606"/>
                            <path data-name="Line 81" transform="translate(-78.521 -47.987)" style="stroke:#6a1b99;stroke-miterlimit:10;fill:none" d="M314.606 0 0 314.606"/>
                            <path data-name="Line 82" transform="translate(-66.002 -47.987)" style="stroke:#6a1b99;stroke-miterlimit:10;fill:none" d="M314.606 0 0 314.606"/>
                            <path data-name="Line 83" transform="translate(-53.482 -47.987)" style="stroke:#6a1b99;stroke-miterlimit:10;fill:none" d="M314.606 0 0 314.606"/>
                            <path data-name="Line 84" transform="translate(-40.963 -47.987)" style="stroke:#6a1b99;stroke-miterlimit:10;fill:none" d="M314.606 0 0 314.606"/>
                            <path data-name="Line 85" transform="translate(-28.443 -47.987)" style="stroke:#6a1b99;stroke-miterlimit:10;fill:none" d="M314.606 0 0 314.606"/>
                            <path data-name="Line 86" transform="translate(-15.924 -47.987)" style="stroke:#6a1b99;stroke-miterlimit:10;fill:none" d="M314.606 0 0 314.606"/>
                            <path data-name="Line 87" transform="translate(-3.404 -47.987)" style="stroke:#6a1b99;stroke-miterlimit:10;fill:none" d="M314.606 0 0 314.606"/>
                            <path data-name="Line 88" transform="translate(9.115 -47.987)" style="stroke:#6a1b99;stroke-miterlimit:10;fill:none" d="M314.606 0 0 314.606"/>
                            <path data-name="Line 89" transform="translate(21.635 -47.987)" style="stroke:#6a1b99;stroke-miterlimit:10;fill:none" d="M314.606 0 0 314.606"/>
                            <path data-name="Line 90" transform="translate(34.155 -47.987)" style="stroke:#6a1b99;stroke-miterlimit:10;fill:none" d="M314.606 0 0 314.606"/>
                            <path data-name="Line 91" transform="translate(46.674 -47.987)" style="stroke:#6a1b99;stroke-miterlimit:10;fill:none" d="M314.606 0 0 314.606"/>
                            <path data-name="Line 92" transform="translate(59.194 -47.987)" style="stroke:#6a1b99;stroke-miterlimit:10;fill:none" d="M314.606 0 0 314.606"/>
                            <path data-name="Line 93" transform="translate(71.713 -47.987)" style="stroke:#6a1b99;stroke-miterlimit:10;fill:none" d="M314.606 0 0 314.606"/>
                            <path data-name="Line 94" transform="translate(84.233 -47.987)" style="stroke:#6a1b99;stroke-miterlimit:10;fill:none" d="M314.606 0 0 314.606"/>
                            <path data-name="Line 95" transform="translate(96.753 -47.987)" style="stroke:#6a1b99;stroke-miterlimit:10;fill:none" d="M314.606 0 0 314.606"/>
                            <path data-name="Line 96" transform="translate(109.272 -47.987)" style="stroke:#6a1b99;stroke-miterlimit:10;fill:none" d="M314.606 0 0 314.606"/>
                            <path data-name="Line 97" transform="translate(121.792 -47.987)" style="stroke:#6a1b99;stroke-miterlimit:10;fill:none" d="M314.606 0 0 314.606"/>
                            <path data-name="Line 98" transform="translate(134.312 -47.987)" style="stroke:#6a1b99;stroke-miterlimit:10;fill:none" d="M314.606 0 0 314.606"/>
                            <path data-name="Line 99" transform="translate(146.831 -47.987)" style="stroke:#6a1b99;stroke-miterlimit:10;fill:none" d="M314.606 0 0 314.606"/>
                            <path data-name="Line 100" transform="translate(159.35 -47.987)" style="stroke:#6a1b99;stroke-miterlimit:10;fill:none" d="M314.606 0 0 314.606"/>
                            <path data-name="Line 101" transform="translate(171.87 -47.987)" style="stroke:#6a1b99;stroke-miterlimit:10;fill:none" d="M314.606 0 0 314.606"/>
                            <path data-name="Line 102" transform="translate(184.389 -47.987)" style="stroke:#6a1b99;stroke-miterlimit:10;fill:none" d="M314.606 0 0 314.606"/>
                            <path data-name="Line 103" transform="translate(196.909 -47.987)" style="stroke:#6a1b99;stroke-miterlimit:10;fill:none" d="M314.606 0 0 314.606"/>
                            <path data-name="Line 104" transform="translate(209.429 -47.987)" style="stroke:#6a1b99;stroke-miterlimit:10;fill:none" d="M314.606 0 0 314.606"/>
                            <path data-name="Line 105" transform="translate(221.948 -47.987)" style="stroke:#6a1b99;stroke-miterlimit:10;fill:none" d="M314.606 0 0 314.606"/>
                            <path data-name="Line 106" transform="translate(234.468 -47.987)" style="stroke:#6a1b99;stroke-miterlimit:10;fill:none" d="M314.606 0 0 314.606"/>
                            <path data-name="Line 107" transform="translate(246.988 -47.987)" style="stroke:#6a1b99;stroke-miterlimit:10;fill:none" d="M314.606 0 0 314.606"/>
                            <path data-name="Line 108" transform="translate(259.507 -47.987)" style="stroke:#6a1b99;stroke-miterlimit:10;fill:none" d="M314.606 0 0 314.606"/>
                        </g>
                    </g>
                </g>
                <g data-name="Group 14215" style="opacity:.3">
                    <path data-name="Path 4360" d="M1565.4 457.029a3.969 3.969 0 1 1 3.969-3.969 3.968 3.968 0 0 1-3.969 3.969z" transform="translate(333.629 -74.937)" style="fill:#6a1b99"/>
                    <path data-name="Path 4361" d="M1565.4 467.311a3.969 3.969 0 1 1 3.969-3.969 3.968 3.968 0 0 1-3.969 3.969z" transform="translate(333.629 -50.693)" style="fill:#6a1b99"/>
                    <path data-name="Path 4362" d="M1565.4 477.593a3.969 3.969 0 1 1 3.969-3.969 3.968 3.968 0 0 1-3.969 3.969z" transform="translate(333.629 -26.448)" style="fill:#6a1b99"/>
                    <path data-name="Path 4363" d="M1565.4 487.875a3.969 3.969 0 1 1 3.969-3.969 3.968 3.968 0 0 1-3.969 3.969z" transform="translate(333.629 -2.201)" style="fill:#6a1b99"/>
                    <path data-name="Path 4364" d="M1565.4 498.153a3.968 3.968 0 1 1 3.969-3.969 3.968 3.968 0 0 1-3.969 3.969z" transform="translate(333.629 22.044)" style="fill:#6a1b99"/>
                    <path data-name="Path 4365" d="M1565.4 508.438a3.969 3.969 0 1 1 3.969-3.969 3.968 3.968 0 0 1-3.969 3.969z" transform="translate(333.629 46.288)" style="fill:#6a1b99"/>
                    <path data-name="Path 4366" d="M1555.152 457.029a3.969 3.969 0 1 1 3.97-3.969 3.97 3.97 0 0 1-3.97 3.969z" transform="translate(309.449 -74.937)" style="fill:#6a1b99"/>
                    <path data-name="Path 4367" d="M1555.152 467.311a3.969 3.969 0 1 1 3.97-3.969 3.97 3.97 0 0 1-3.97 3.969z" transform="translate(309.449 -50.693)" style="fill:#6a1b99"/>
                    <path data-name="Path 4368" d="M1555.152 477.593a3.969 3.969 0 1 1 3.97-3.969 3.97 3.97 0 0 1-3.97 3.969z" transform="translate(309.449 -26.448)" style="fill:#6a1b99"/>
                    <path data-name="Path 4369" d="M1555.152 487.875a3.969 3.969 0 1 1 3.97-3.969 3.97 3.97 0 0 1-3.97 3.969z" transform="translate(309.449 -2.201)" style="fill:#6a1b99"/>
                    <path data-name="Path 4370" d="M1555.152 498.153a3.968 3.968 0 1 1 3.97-3.969 3.97 3.97 0 0 1-3.97 3.969z" transform="translate(309.449 22.044)" style="fill:#6a1b99"/>
                    <path data-name="Path 4371" d="M1555.152 508.438a3.969 3.969 0 1 1 3.97-3.969 3.97 3.97 0 0 1-3.97 3.969z" transform="translate(309.449 46.288)" style="fill:#6a1b99"/>
                    <path data-name="Path 4372" d="M1544.9 457.029a3.969 3.969 0 1 1 3.968-3.969 3.97 3.97 0 0 1-3.968 3.969z" transform="translate(285.272 -74.937)" style="fill:#6a1b99"/>
                    <path data-name="Path 4373" d="M1544.9 467.311a3.969 3.969 0 1 1 3.968-3.969 3.971 3.971 0 0 1-3.968 3.969z" transform="translate(285.272 -50.693)" style="fill:#6a1b99"/>
                    <path data-name="Path 4374" d="M1544.9 477.593a3.969 3.969 0 1 1 3.968-3.969 3.971 3.971 0 0 1-3.968 3.969z" transform="translate(285.272 -26.448)" style="fill:#6a1b99"/>
                    <path data-name="Path 4375" d="M1544.9 487.875a3.969 3.969 0 1 1 3.968-3.969 3.97 3.97 0 0 1-3.968 3.969z" transform="translate(285.272 -2.201)" style="fill:#6a1b99"/>
                    <path data-name="Path 4376" d="M1544.9 498.153a3.968 3.968 0 1 1 3.968-3.969 3.971 3.971 0 0 1-3.968 3.969z" transform="translate(285.272 22.044)" style="fill:#6a1b99"/>
                    <path data-name="Path 4377" d="M1544.9 508.438a3.969 3.969 0 1 1 3.968-3.969 3.971 3.971 0 0 1-3.968 3.969z" transform="translate(285.272 46.288)" style="fill:#6a1b99"/>
                    <path data-name="Path 4378" d="M1534.646 457.029a3.969 3.969 0 1 1 3.97-3.969 3.971 3.971 0 0 1-3.97 3.969z" transform="translate(261.094 -74.937)" style="fill:#6a1b99"/>
                    <path data-name="Path 4379" d="M1534.646 467.311a3.969 3.969 0 1 1 3.97-3.969 3.971 3.971 0 0 1-3.97 3.969z" transform="translate(261.094 -50.693)" style="fill:#6a1b99"/>
                    <path data-name="Path 4380" d="M1534.646 477.593a3.969 3.969 0 1 1 3.97-3.969 3.971 3.971 0 0 1-3.97 3.969z" transform="translate(261.094 -26.448)" style="fill:#6a1b99"/>
                    <path data-name="Path 4381" d="M1534.646 487.875a3.969 3.969 0 1 1 3.97-3.969 3.971 3.971 0 0 1-3.97 3.969z" transform="translate(261.094 -2.201)" style="fill:#6a1b99"/>
                    <path data-name="Path 4382" d="M1534.646 498.153a3.968 3.968 0 1 1 3.97-3.969 3.971 3.971 0 0 1-3.97 3.969z" transform="translate(261.094 22.044)" style="fill:#6a1b99"/>
                    <path data-name="Path 4383" d="M1534.646 508.438a3.969 3.969 0 1 1 3.97-3.969 3.971 3.971 0 0 1-3.97 3.969z" transform="translate(261.094 46.288)" style="fill:#6a1b99"/>
                    <path data-name="Path 4384" d="M1524.393 457.029a3.969 3.969 0 1 1 3.97-3.969 3.968 3.968 0 0 1-3.97 3.969z" transform="translate(236.916 -74.937)" style="fill:#6a1b99"/>
                    <path data-name="Path 4385" d="M1524.393 467.311a3.969 3.969 0 1 1 3.97-3.969 3.968 3.968 0 0 1-3.97 3.969z" transform="translate(236.916 -50.693)" style="fill:#6a1b99"/>
                    <path data-name="Path 4386" d="M1524.393 477.593a3.969 3.969 0 1 1 3.97-3.969 3.968 3.968 0 0 1-3.97 3.969z" transform="translate(236.916 -26.448)" style="fill:#6a1b99"/>
                    <path data-name="Path 4387" d="M1524.393 487.875a3.969 3.969 0 1 1 3.97-3.969 3.968 3.968 0 0 1-3.97 3.969z" transform="translate(236.916 -2.201)" style="fill:#6a1b99"/>
                    <path data-name="Path 4388" d="M1524.393 498.153a3.968 3.968 0 1 1 3.97-3.969 3.968 3.968 0 0 1-3.97 3.969z" transform="translate(236.916 22.044)" style="fill:#6a1b99"/>
                    <path data-name="Path 4389" d="M1524.393 508.438a3.969 3.969 0 1 1 3.97-3.969 3.968 3.968 0 0 1-3.97 3.969z" transform="translate(236.916 46.288)" style="fill:#6a1b99"/>
                </g>
            </g>
        </g>
    </g>
</svg>
