<svg xmlns="http://www.w3.org/2000/svg" width="1920" height="410" viewBox="0 0 1920 410">
    <defs>
        <clipPath id="bepvlkpsba">
            <ellipse cx="329.163" cy="237.436" rx="329.163" ry="237.436" style="stroke:#fff;fill:#fff"/>
        </clipPath>
        <clipPath id="n4b371mzmb">
            <path data-name="SVGID" d="M99.982-3.015c57.171-.077 103.455 45.832 103.378 102.54S156.874 202.268 99.7 202.345-3.752 156.513-3.675 99.8 42.811-2.938 99.982-3.015z" transform="rotate(99.217 97.116 117.588)" style="stroke:#fff;fill:#fff"/>
        </clipPath>
    </defs>
    <g data-name="Group 15162">
        <path data-name="Path 4295" d="M0 399.938h1920V0H0z" transform="translate(0 21.082)" style="fill:#3b59d8"/>
        <g data-name="Group 14375">
            <g data-name="Group 14211" style="opacity:.092">
                <g data-name="Group 14210" style="clip-path:url(#bepvlkpsba)" transform="translate(1208.174)">
                    <g data-name="Group 14209">
                        <path data-name="Line 23" transform="translate(495.996 -83.157)" style="fill:none;stroke-miterlimit:10;stroke:#fff" d="M0 656.769 910.494 0"/>
                        <path data-name="Line 24" transform="translate(459.763 -83.157)" style="fill:none;stroke-miterlimit:10;stroke:#fff" d="M0 656.769 910.494 0"/>
                        <path data-name="Line 25" transform="translate(423.53 -83.157)" style="fill:none;stroke-miterlimit:10;stroke:#fff" d="M0 656.769 910.494 0"/>
                        <path data-name="Line 26" transform="translate(387.298 -83.157)" style="fill:none;stroke-miterlimit:10;stroke:#fff" d="M0 656.769 910.494 0"/>
                        <path data-name="Line 27" transform="translate(351.065 -83.157)" style="fill:none;stroke-miterlimit:10;stroke:#fff" d="M0 656.769 910.494 0"/>
                        <path data-name="Line 28" transform="translate(314.833 -83.157)" style="fill:none;stroke-miterlimit:10;stroke:#fff" d="M0 656.769 910.494 0"/>
                        <path data-name="Line 29" transform="translate(278.6 -83.157)" style="fill:none;stroke-miterlimit:10;stroke:#fff" d="M0 656.769 910.494 0"/>
                        <path data-name="Line 30" transform="translate(242.367 -83.157)" style="fill:none;stroke-miterlimit:10;stroke:#fff" d="M0 656.769 910.494 0"/>
                        <path data-name="Line 31" transform="translate(206.134 -83.157)" style="fill:none;stroke-miterlimit:10;stroke:#fff" d="M0 656.769 910.494 0"/>
                        <path data-name="Line 32" transform="translate(169.901 -83.157)" style="fill:none;stroke-miterlimit:10;stroke:#fff" d="M0 656.769 910.494 0"/>
                        <path data-name="Line 33" transform="translate(133.669 -83.157)" style="fill:none;stroke-miterlimit:10;stroke:#fff" d="M0 656.769 910.494 0"/>
                        <path data-name="Line 34" transform="translate(97.436 -83.157)" style="fill:none;stroke-miterlimit:10;stroke:#fff" d="M0 656.769 910.494 0"/>
                        <path data-name="Line 35" transform="translate(61.203 -83.157)" style="fill:none;stroke-miterlimit:10;stroke:#fff" d="M0 656.769 910.494 0"/>
                        <path data-name="Line 36" transform="translate(24.971 -83.157)" style="fill:none;stroke-miterlimit:10;stroke:#fff" d="M0 656.769 910.494 0"/>
                        <path data-name="Line 37" transform="translate(-11.262 -83.157)" style="fill:none;stroke-miterlimit:10;stroke:#fff" d="M0 656.769 910.494 0"/>
                        <path data-name="Line 38" transform="translate(-47.494 -83.157)" style="fill:none;stroke-miterlimit:10;stroke:#fff" d="M0 656.769 910.494 0"/>
                        <path data-name="Line 39" transform="translate(-83.727 -83.157)" style="fill:none;stroke-miterlimit:10;stroke:#fff" d="M0 656.769 910.494 0"/>
                        <path data-name="Line 40" transform="translate(-119.96 -83.157)" style="fill:none;stroke-miterlimit:10;stroke:#fff" d="M0 656.769 910.494 0"/>
                        <path data-name="Line 41" transform="translate(-156.193 -83.157)" style="fill:none;stroke-miterlimit:10;stroke:#fff" d="M0 656.769 910.494 0"/>
                        <path data-name="Line 42" transform="translate(-192.425 -83.157)" style="fill:none;stroke-miterlimit:10;stroke:#fff" d="M0 656.769 910.494 0"/>
                        <path data-name="Line 43" transform="translate(-228.658 -83.157)" style="fill:none;stroke-miterlimit:10;stroke:#fff" d="M0 656.769 910.494 0"/>
                        <path data-name="Line 44" transform="translate(-264.89 -83.157)" style="fill:none;stroke-miterlimit:10;stroke:#fff" d="M0 656.769 910.494 0"/>
                        <path data-name="Line 45" transform="translate(-301.123 -83.157)" style="fill:none;stroke-miterlimit:10;stroke:#fff" d="M0 656.769 910.494 0"/>
                        <path data-name="Line 46" transform="translate(-337.356 -83.157)" style="fill:none;stroke-miterlimit:10;stroke:#fff" d="M0 656.769 910.494 0"/>
                        <path data-name="Line 47" transform="translate(-373.589 -83.157)" style="fill:none;stroke-miterlimit:10;stroke:#fff" d="M0 656.769 910.494 0"/>
                        <path data-name="Line 48" transform="translate(-409.821 -83.157)" style="fill:none;stroke-miterlimit:10;stroke:#fff" d="M0 656.769 910.494 0"/>
                        <path data-name="Line 49" transform="translate(-446.054 -83.157)" style="fill:none;stroke-miterlimit:10;stroke:#fff" d="M0 656.769 910.494 0"/>
                        <path data-name="Line 50" transform="translate(-482.286 -83.157)" style="fill:none;stroke-miterlimit:10;stroke:#fff" d="M0 656.769 910.494 0"/>
                        <path data-name="Line 51" transform="translate(-518.519 -83.157)" style="fill:none;stroke-miterlimit:10;stroke:#fff" d="M0 656.769 910.494 0"/>
                        <path data-name="Line 52" transform="translate(-554.752 -83.157)" style="fill:none;stroke-miterlimit:10;stroke:#fff" d="M0 656.769 910.494 0"/>
                        <path data-name="Line 53" transform="translate(-590.985 -83.157)" style="fill:none;stroke-miterlimit:10;stroke:#fff" d="M0 656.769 910.494 0"/>
                        <path data-name="Line 54" transform="translate(-627.217 -83.157)" style="fill:none;stroke-miterlimit:10;stroke:#fff" d="M0 656.769 910.494 0"/>
                        <path data-name="Line 55" transform="translate(-663.45 -83.157)" style="fill:none;stroke-miterlimit:10;stroke:#fff" d="M0 656.769 910.494 0"/>
                        <path data-name="Line 56" transform="translate(-699.682 -83.157)" style="fill:none;stroke-miterlimit:10;stroke:#fff" d="M0 656.769 910.494 0"/>
                        <path data-name="Line 57" transform="translate(-735.915 -83.157)" style="fill:none;stroke-miterlimit:10;stroke:#fff" d="M0 656.769 910.494 0"/>
                        <path data-name="Line 58" transform="translate(-772.148 -83.157)" style="fill:none;stroke-miterlimit:10;stroke:#fff" d="M0 656.769 910.494 0"/>
                        <path data-name="Line 59" transform="translate(-808.381 -83.157)" style="fill:none;stroke-miterlimit:10;stroke:#fff" d="M0 656.769 910.494 0"/>
                        <path data-name="Line 60" transform="translate(-844.614 -83.157)" style="fill:none;stroke-miterlimit:10;stroke:#fff" d="M0 656.769 910.494 0"/>
                        <path data-name="Line 61" transform="translate(-880.846 -83.157)" style="fill:none;stroke-miterlimit:10;stroke:#fff" d="M0 656.769 910.494 0"/>
                        <path data-name="Line 62" transform="translate(-917.079 -83.157)" style="fill:none;stroke-miterlimit:10;stroke:#fff" d="M0 656.769 910.494 0"/>
                        <path data-name="Line 63" transform="translate(-953.312 -83.157)" style="fill:none;stroke-miterlimit:10;stroke:#fff" d="M0 656.769 910.494 0"/>
                        <path data-name="Line 64" transform="translate(-989.544 -83.157)" style="fill:none;stroke-miterlimit:10;stroke:#fff" d="M0 656.769 910.494 0"/>
                        <path data-name="Line 65" transform="translate(-1025.777 -83.157)" style="fill:none;stroke-miterlimit:10;stroke:#fff" d="M0 656.769 910.494 0"/>
                    </g>
                </g>
            </g>
            <g data-name="Group 14214" style="opacity:.481">
                <g data-name="Group 14213" transform="translate(118.126 240.271)" style="clip-path:url(#n4b371mzmb)">
                    <g data-name="Group 14212">
                        <path data-name="Line 66" transform="translate(181.607 -39.498)" style="fill:none;stroke-miterlimit:10;stroke:#fff" d="M0 332.089 329.258 0"/>
                        <path data-name="Line 67" transform="translate(168.505 -39.498)" style="fill:none;stroke-miterlimit:10;stroke:#fff" d="M0 332.089 329.258 0"/>
                        <path data-name="Line 68" transform="translate(155.402 -39.498)" style="fill:none;stroke-miterlimit:10;stroke:#fff" d="M0 332.089 329.258 0"/>
                        <path data-name="Line 69" transform="translate(142.299 -39.498)" style="fill:none;stroke-miterlimit:10;stroke:#fff" d="M0 332.089 329.258 0"/>
                        <path data-name="Line 70" transform="translate(129.197 -39.498)" style="fill:none;stroke-miterlimit:10;stroke:#fff" d="M0 332.089 329.258 0"/>
                        <path data-name="Line 71" transform="translate(116.094 -39.498)" style="fill:none;stroke-miterlimit:10;stroke:#fff" d="M0 332.089 329.258 0"/>
                        <path data-name="Line 72" transform="translate(102.991 -39.498)" style="fill:none;stroke-miterlimit:10;stroke:#fff" d="M0 332.089 329.258 0"/>
                        <path data-name="Line 73" transform="translate(89.889 -39.498)" style="fill:none;stroke-miterlimit:10;stroke:#fff" d="M0 332.089 329.258 0"/>
                        <path data-name="Line 74" transform="translate(76.786 -39.498)" style="fill:none;stroke-miterlimit:10;stroke:#fff" d="M0 332.089 329.258 0"/>
                        <path data-name="Line 75" transform="translate(63.684 -39.498)" style="fill:none;stroke-miterlimit:10;stroke:#fff" d="M0 332.089 329.258 0"/>
                        <path data-name="Line 76" transform="translate(50.581 -39.498)" style="fill:none;stroke-miterlimit:10;stroke:#fff" d="M0 332.089 329.258 0"/>
                        <path data-name="Line 77" transform="translate(37.478 -39.498)" style="fill:none;stroke-miterlimit:10;stroke:#fff" d="M0 332.089 329.258 0"/>
                        <path data-name="Line 78" transform="translate(24.375 -39.498)" style="fill:none;stroke-miterlimit:10;stroke:#fff" d="M0 332.089 329.258 0"/>
                        <path data-name="Line 79" transform="translate(11.272 -39.498)" style="fill:none;stroke-miterlimit:10;stroke:#fff" d="M0 332.089 329.258 0"/>
                        <path data-name="Line 80" transform="translate(-1.829 -39.498)" style="fill:none;stroke-miterlimit:10;stroke:#fff" d="M0 332.089 329.258 0"/>
                        <path data-name="Line 81" transform="translate(-14.933 -39.498)" style="fill:none;stroke-miterlimit:10;stroke:#fff" d="M0 332.089 329.258 0"/>
                        <path data-name="Line 82" transform="translate(-28.035 -39.498)" style="fill:none;stroke-miterlimit:10;stroke:#fff" d="M0 332.089 329.258 0"/>
                        <path data-name="Line 83" transform="translate(-41.138 -39.498)" style="fill:none;stroke-miterlimit:10;stroke:#fff" d="M0 332.089 329.258 0"/>
                        <path data-name="Line 84" transform="translate(-54.24 -39.498)" style="fill:none;stroke-miterlimit:10;stroke:#fff" d="M0 332.089 329.258 0"/>
                        <path data-name="Line 85" transform="translate(-67.343 -39.498)" style="fill:none;stroke-miterlimit:10;stroke:#fff" d="M0 332.089 329.258 0"/>
                        <path data-name="Line 86" transform="translate(-80.446 -39.498)" style="fill:none;stroke-miterlimit:10;stroke:#fff" d="M0 332.089 329.258 0"/>
                        <path data-name="Line 87" transform="translate(-93.548 -39.498)" style="fill:none;stroke-miterlimit:10;stroke:#fff" d="M0 332.089 329.258 0"/>
                        <path data-name="Line 88" transform="translate(-106.651 -39.498)" style="fill:none;stroke-miterlimit:10;stroke:#fff" d="M0 332.089 329.258 0"/>
                        <path data-name="Line 89" transform="translate(-119.753 -39.498)" style="fill:none;stroke-miterlimit:10;stroke:#fff" d="M0 332.089 329.258 0"/>
                        <path data-name="Line 90" transform="translate(-132.856 -39.498)" style="fill:none;stroke-miterlimit:10;stroke:#fff" d="M0 332.089 329.258 0"/>
                        <path data-name="Line 91" transform="translate(-145.959 -39.498)" style="fill:none;stroke-miterlimit:10;stroke:#fff" d="M0 332.089 329.258 0"/>
                        <path data-name="Line 92" transform="translate(-159.061 -39.498)" style="fill:none;stroke-miterlimit:10;stroke:#fff" d="M0 332.089 329.258 0"/>
                        <path data-name="Line 93" transform="translate(-172.164 -39.498)" style="fill:none;stroke-miterlimit:10;stroke:#fff" d="M0 332.089 329.258 0"/>
                        <path data-name="Line 94" transform="translate(-185.267 -39.498)" style="fill:none;stroke-miterlimit:10;stroke:#fff" d="M0 332.089 329.258 0"/>
                        <path data-name="Line 95" transform="translate(-198.369 -39.498)" style="fill:none;stroke-miterlimit:10;stroke:#fff" d="M0 332.089 329.258 0"/>
                        <path data-name="Line 96" transform="translate(-211.472 -39.498)" style="fill:none;stroke-miterlimit:10;stroke:#fff" d="M0 332.089 329.258 0"/>
                        <path data-name="Line 97" transform="translate(-224.575 -39.498)" style="fill:none;stroke-miterlimit:10;stroke:#fff" d="M0 332.089 329.258 0"/>
                        <path data-name="Line 98" transform="translate(-237.678 -39.498)" style="fill:none;stroke-miterlimit:10;stroke:#fff" d="M0 332.089 329.258 0"/>
                        <path data-name="Line 99" transform="translate(-250.78 -39.498)" style="fill:none;stroke-miterlimit:10;stroke:#fff" d="M0 332.089 329.258 0"/>
                        <path data-name="Line 100" transform="translate(-263.883 -39.498)" style="fill:none;stroke-miterlimit:10;stroke:#fff" d="M0 332.089 329.258 0"/>
                        <path data-name="Line 101" transform="translate(-276.985 -39.498)" style="fill:none;stroke-miterlimit:10;stroke:#fff" d="M0 332.089 329.258 0"/>
                        <path data-name="Line 102" transform="translate(-290.088 -39.498)" style="fill:none;stroke-miterlimit:10;stroke:#fff" d="M0 332.089 329.258 0"/>
                        <path data-name="Line 103" transform="translate(-303.191 -39.498)" style="fill:none;stroke-miterlimit:10;stroke:#fff" d="M0 332.089 329.258 0"/>
                        <path data-name="Line 104" transform="translate(-316.293 -39.498)" style="fill:none;stroke-miterlimit:10;stroke:#fff" d="M0 332.089 329.258 0"/>
                        <path data-name="Line 105" transform="translate(-329.396 -39.498)" style="fill:none;stroke-miterlimit:10;stroke:#fff" d="M0 332.089 329.258 0"/>
                        <path data-name="Line 106" transform="translate(-342.498 -39.498)" style="fill:none;stroke-miterlimit:10;stroke:#fff" d="M0 332.089 329.258 0"/>
                        <path data-name="Line 107" transform="translate(-355.601 -39.498)" style="fill:none;stroke-miterlimit:10;stroke:#fff" d="M0 332.089 329.258 0"/>
                        <path data-name="Line 108" transform="translate(-368.704 -39.498)" style="fill:none;stroke-miterlimit:10;stroke:#fff" d="M0 332.089 329.258 0"/>
                    </g>
                </g>
            </g>
            <g data-name="Group 14215" style="opacity:.778">
                <path data-name="Path 4360" d="M1564.588 449.091a2.62 2.62 0 1 1-3.151 2.565 2.9 2.9 0 0 1 3.151-2.565z" transform="translate(-1505.335 -256.948)" style="stroke:#fff;fill:#fff"/>
                <path data-name="Path 4361" d="M1564.588 459.372a2.62 2.62 0 1 1-3.151 2.565 2.9 2.9 0 0 1 3.151-2.565z" transform="translate(-1505.335 -289.542)" style="stroke:#fff;fill:#fff"/>
                <path data-name="Path 4362" d="M1564.588 469.654a2.62 2.62 0 1 1-3.151 2.565 2.9 2.9 0 0 1 3.151-2.565z" transform="translate(-1505.335 -322.14)" style="stroke:#fff;fill:#fff"/>
                <path data-name="Path 4363" d="M1564.588 479.936a2.62 2.62 0 1 1-3.151 2.565 2.9 2.9 0 0 1 3.151-2.565z" transform="translate(-1505.335 -354.737)" style="stroke:#fff;fill:#fff"/>
                <path data-name="Path 4364" d="M1564.588 490.218a2.619 2.619 0 1 1-3.151 2.565 2.9 2.9 0 0 1 3.151-2.565z" transform="translate(-1505.335 -387.332)" style="stroke:#fff;fill:#fff"/>
                <path data-name="Path 4365" d="M1564.588 500.5a2.62 2.62 0 1 1-3.151 2.565 2.9 2.9 0 0 1 3.151-2.565z" transform="translate(-1505.335 -419.928)" style="stroke:#fff;fill:#fff"/>
                <path data-name="Path 4366" d="M1554.334 449.091a2.62 2.62 0 1 1-3.151 2.565 2.9 2.9 0 0 1 3.151-2.565z" transform="translate(-1467.754 -256.948)" style="stroke:#fff;fill:#fff"/>
                <path data-name="Path 4367" d="M1554.334 459.372a2.62 2.62 0 1 1-3.151 2.565 2.9 2.9 0 0 1 3.151-2.565z" transform="translate(-1467.754 -289.542)" style="stroke:#fff;fill:#fff"/>
                <path data-name="Path 4368" d="M1554.334 469.654a2.62 2.62 0 1 1-3.151 2.565 2.9 2.9 0 0 1 3.151-2.565z" transform="translate(-1467.754 -322.14)" style="stroke:#fff;fill:#fff"/>
                <path data-name="Path 4369" d="M1554.334 479.936a2.62 2.62 0 1 1-3.151 2.565 2.9 2.9 0 0 1 3.151-2.565z" transform="translate(-1467.754 -354.737)" style="stroke:#fff;fill:#fff"/>
                <path data-name="Path 4370" d="M1554.334 490.218a2.619 2.619 0 1 1-3.151 2.565 2.9 2.9 0 0 1 3.151-2.565z" transform="translate(-1467.754 -387.332)" style="stroke:#fff;fill:#fff"/>
                <path data-name="Path 4371" d="M1554.334 500.5a2.62 2.62 0 1 1-3.151 2.565 2.9 2.9 0 0 1 3.151-2.565z" transform="translate(-1467.754 -419.928)" style="stroke:#fff;fill:#fff"/>
                <path data-name="Path 4372" d="M1544.08 449.091a2.62 2.62 0 1 1-3.15 2.565 2.9 2.9 0 0 1 3.15-2.565z" transform="translate(-1430.172 -256.948)" style="stroke:#fff;fill:#fff"/>
                <path data-name="Path 4373" d="M1544.08 459.372a2.62 2.62 0 1 1-3.15 2.565 2.9 2.9 0 0 1 3.15-2.565z" transform="translate(-1430.172 -289.542)" style="stroke:#fff;fill:#fff"/>
                <path data-name="Path 4374" d="M1544.08 469.654a2.62 2.62 0 1 1-3.15 2.565 2.9 2.9 0 0 1 3.15-2.565z" transform="translate(-1430.172 -322.14)" style="stroke:#fff;fill:#fff"/>
                <path data-name="Path 4375" d="M1544.08 479.936a2.62 2.62 0 1 1-3.15 2.565 2.9 2.9 0 0 1 3.15-2.565z" transform="translate(-1430.172 -354.737)" style="stroke:#fff;fill:#fff"/>
                <path data-name="Path 4376" d="M1544.08 490.218a2.619 2.619 0 1 1-3.15 2.565 2.9 2.9 0 0 1 3.15-2.565z" transform="translate(-1430.172 -387.332)" style="stroke:#fff;fill:#fff"/>
                <path data-name="Path 4377" d="M1544.08 500.5a2.62 2.62 0 1 1-3.15 2.565 2.9 2.9 0 0 1 3.15-2.565z" transform="translate(-1430.172 -419.928)" style="stroke:#fff;fill:#fff"/>
                <path data-name="Path 4378" d="M1533.828 449.091a2.62 2.62 0 1 1-3.151 2.565 2.9 2.9 0 0 1 3.151-2.565z" transform="translate(-1392.592 -256.948)" style="stroke:#fff;fill:#fff"/>
                <path data-name="Path 4379" d="M1533.828 459.372a2.62 2.62 0 1 1-3.151 2.565 2.9 2.9 0 0 1 3.151-2.565z" transform="translate(-1392.592 -289.542)" style="stroke:#fff;fill:#fff"/>
                <path data-name="Path 4380" d="M1533.828 469.654a2.62 2.62 0 1 1-3.151 2.565 2.9 2.9 0 0 1 3.151-2.565z" transform="translate(-1392.592 -322.14)" style="stroke:#fff;fill:#fff"/>
                <path data-name="Path 4381" d="M1533.828 479.936a2.62 2.62 0 1 1-3.151 2.565 2.9 2.9 0 0 1 3.151-2.565z" transform="translate(-1392.592 -354.737)" style="stroke:#fff;fill:#fff"/>
                <path data-name="Path 4382" d="M1533.828 490.218a2.619 2.619 0 1 1-3.151 2.565 2.9 2.9 0 0 1 3.151-2.565z" transform="translate(-1392.592 -387.332)" style="stroke:#fff;fill:#fff"/>
                <path data-name="Path 4383" d="M1533.828 500.5a2.62 2.62 0 1 1-3.151 2.565 2.9 2.9 0 0 1 3.151-2.565z" transform="translate(-1392.592 -419.928)" style="stroke:#fff;fill:#fff"/>
                <path data-name="Path 4384" d="M1523.575 449.091a2.62 2.62 0 1 1-3.151 2.565 2.9 2.9 0 0 1 3.151-2.565z" transform="translate(-1355.011 -256.948)" style="stroke:#fff;fill:#fff"/>
                <path data-name="Path 4385" d="M1523.575 459.372a2.62 2.62 0 1 1-3.151 2.565 2.9 2.9 0 0 1 3.151-2.565z" transform="translate(-1355.011 -289.542)" style="stroke:#fff;fill:#fff"/>
                <path data-name="Path 4386" d="M1523.575 469.654a2.62 2.62 0 1 1-3.151 2.565 2.9 2.9 0 0 1 3.151-2.565z" transform="translate(-1355.011 -322.14)" style="stroke:#fff;fill:#fff"/>
                <path data-name="Path 4387" d="M1523.575 479.936a2.62 2.62 0 1 1-3.151 2.565 2.9 2.9 0 0 1 3.151-2.565z" transform="translate(-1355.011 -354.737)" style="stroke:#fff;fill:#fff"/>
                <path data-name="Path 4388" d="M1523.575 490.218a2.619 2.619 0 1 1-3.151 2.565 2.9 2.9 0 0 1 3.151-2.565z" transform="translate(-1355.011 -387.332)" style="stroke:#fff;fill:#fff"/>
                <path data-name="Path 4389" d="M1523.575 500.5a2.62 2.62 0 1 1-3.151 2.565 2.9 2.9 0 0 1 3.151-2.565z" transform="translate(-1355.011 -419.928)" style="stroke:#fff;fill:#fff"/>
            </g>
        </g>
        <path data-name="Path 5067" d="M1543.294 940.313s119.51 83.3 246-52.449 188.186-148.465 391.8-91.2 330.1-174.978 330.1-174.978h-967.9z" transform="rotate(180 1731.647 521.613)" style="fill:#85c1e3;opacity:.105"/>
    </g>
</svg>
