<svg xmlns="http://www.w3.org/2000/svg" width="37.625" height="37.622" viewBox="0 0 37.625 37.622">
    <path data-name="Icon ionic-ios-call" d="M41.029 33.962a31.6 31.6 0 0 0-6.6-4.417c-1.979-.95-2.7-.931-4.1.078-1.166.842-1.92 1.626-3.262 1.332s-3.986-2.292-6.553-4.848-4.57-5.207-4.854-6.553.5-2.1 1.332-3.262c1.009-1.4 1.038-2.125.078-4.1a30.978 30.978 0 0 0-4.417-6.6c-1.44-1.44-1.763-1.126-2.556-.842a14.547 14.547 0 0 0-2.341 1.238 7.062 7.062 0 0 0-2.811 2.968c-.558 1.2-1.2 3.448 2.086 9.305a51.921 51.921 0 0 0 9.129 12.175l.01.01.01.01a52.124 52.124 0 0 0 12.175 9.129c5.857 3.291 8.1 2.645 9.305 2.086a6.942 6.942 0 0 0 2.968-2.811 14.547 14.547 0 0 0 1.244-2.341c.283-.794.606-1.119-.843-2.557z" transform="translate(-4.49 -4.502)" style="fill:#fff"/>
</svg>
