<svg xmlns="http://www.w3.org/2000/svg" width="41.156" height="45.386" viewBox="0 0 41.156 45.386">
    <path data-name="Icon simple-email" d="M42.8 20.947a23.406 23.406 0 0 1-.754 5.077 14.691 14.691 0 0 1-1.974 4.458 10.416 10.416 0 0 1-3.347 3.168 9.445 9.445 0 0 1-4.887 1.205 7.084 7.084 0 0 1-3.534-.865 6.052 6.052 0 0 1-2.388-2.448 7.569 7.569 0 0 1-6.4 3.216 6.512 6.512 0 0 1-5.59-3.006 9.841 9.841 0 0 1-1.39-3.483 15.02 15.02 0 0 1-.182-4.543 21.105 21.105 0 0 1 1.384-5.564 15.125 15.125 0 0 1 2.554-4.262 10.822 10.822 0 0 1 3.517-2.717 9.813 9.813 0 0 1 4.277-.95 13.3 13.3 0 0 1 2.558.218 10.471 10.471 0 0 1 1.985.6 10.735 10.735 0 0 1 1.645.868c.5.323 1.007.658 1.509 1l-1.242 14.288a4.751 4.751 0 0 0 .037 1.673 2.341 2.341 0 0 0 .51 1.032 1.838 1.838 0 0 0 .828.539 3.074 3.074 0 0 0 2.91-.573 6.2 6.2 0 0 0 1.56-1.985 12.786 12.786 0 0 0 1.049-2.984 20.471 20.471 0 0 0 .459-3.715 23.744 23.744 0 0 0-.584-6.943 13.8 13.8 0 0 0-2.569-5.371 11.931 11.931 0 0 0-4.606-3.46 16.717 16.717 0 0 0-6.71-1.228 14.816 14.816 0 0 0-6.636 1.446 15.227 15.227 0 0 0-5.043 4.01 19.246 19.246 0 0 0-3.3 6.032 27.185 27.185 0 0 0-1.391 7.52 24.992 24.992 0 0 0 .709 7.669 13.851 13.851 0 0 0 2.8 5.5 11.693 11.693 0 0 0 4.748 3.3 18.211 18.211 0 0 0 6.551 1.095 22.439 22.439 0 0 0 4.3-.462 23.718 23.718 0 0 0 2.022-.5 15.219 15.219 0 0 0 1.741-.624l.9 4.044a9.98 9.98 0 0 1-1.948.964 18.754 18.754 0 0 1-2.3.666 22.471 22.471 0 0 1-4.81.539A25.224 25.224 0 0 1 13 43.974a16.14 16.14 0 0 1-6.393-4.2 17.652 17.652 0 0 1-3.837-6.94A29.6 29.6 0 0 1 1.695 23.2a29.382 29.382 0 0 1 1.843-9.246A22.882 22.882 0 0 1 7.98 6.605a20.238 20.238 0 0 1 6.775-4.847A21.213 21.213 0 0 1 23.53 0a22.147 22.147 0 0 1 8.5 1.523 16.537 16.537 0 0 1 6.14 4.282 17.575 17.575 0 0 1 3.642 6.617 25.3 25.3 0 0 1 .988 8.525zm-24.358 2.78a9.648 9.648 0 0 0 .5 4.784 2.565 2.565 0 0 0 2.467 1.617 2.725 2.725 0 0 0 .845-.156 3.014 3.014 0 0 0 .973-.584 5.192 5.192 0 0 0 .987-1.191 9.141 9.141 0 0 0 .908-2.014l.97-11.106a5.8 5.8 0 0 0-1.509-.2 5.217 5.217 0 0 0-2.51.576 4.969 4.969 0 0 0-1.778 1.69 9.926 9.926 0 0 0-1.18 2.779 23.577 23.577 0 0 0-.669 3.8z" transform="translate(-1.67)" style="fill:#fff"/>
</svg>
