<svg xmlns="http://www.w3.org/2000/svg" xmlns:xlink="http://www.w3.org/1999/xlink" width="290" height="235" viewBox="0 0 290 235">
    <defs>
        <linearGradient id="zblb2jw6oh" x1="1.13" y1="1.295" x2=".236" y2=".19" gradientUnits="objectBoundingBox">
            <stop offset="0" stop-color="#b37cff"/>
            <stop offset="1" stop-color="#f895e7"/>
        </linearGradient>
        <linearGradient id="pfg6sluq9c" x1="8.569" y1=".089" x2="10.206" y2=".089" gradientUnits="objectBoundingBox">
            <stop offset="0" stop-color="#a737d5"/>
            <stop offset="1" stop-color="#ef497a"/>
        </linearGradient>
        <linearGradient id="ahd6qpralg" x1="-3.706" y1="3.83" x2="-1.661" y2="3.83" gradientUnits="objectBoundingBox">
            <stop offset="0" stop-color="#ce1567"/>
            <stop offset="1" stop-color="#7a1dbc"/>
        </linearGradient>
        <linearGradient id="vjb7d9d59d" x1="-.042" y1=".524" x2=".954" y2=".524" gradientUnits="objectBoundingBox">
            <stop offset="0" stop-color="#2b3582"/>
            <stop offset="1" stop-color="#150e42"/>
        </linearGradient>
        <linearGradient id="w81fyjqvla" x1=".056" y1=".093" x2="2.451" y2="2.407" gradientUnits="objectBoundingBox">
            <stop offset="0" stop-color="#fdf53f"/>
            <stop offset="1" stop-color="#d93c65"/>
        </linearGradient>
        <linearGradient id="axec9dxypj" x1="-.613" y1="4.347" x2="2.019" y2="-4.749" xlink:href="#w81fyjqvla"/>
        <linearGradient id="0ufc95fa6k" x1=".091" y1="4.005" x2="1.518" y2="-7.109" xlink:href="#w81fyjqvla"/>
        <linearGradient id="w1iov2vh2l" x1="1.058" y1="-5.899" x2=".219" y2="3.719" xlink:href="#w81fyjqvla"/>
        <linearGradient id="363ojhq5rb" x1="1.92" y1="-.952" x2=".04" y2=".872" gradientUnits="objectBoundingBox">
            <stop offset="0" stop-color="#53d8ff"/>
            <stop offset="1" stop-color="#3840f7"/>
        </linearGradient>
        <linearGradient id="8ywwds1dem" x1="1.035" y1="-.187" x2="-1.307" y2="2.376" xlink:href="#363ojhq5rb"/>
        <linearGradient id="l2mfrbfw8n" x1="-.913" y1="1.49" x2="1.659" y2="-.142" xlink:href="#pfg6sluq9c"/>
        <linearGradient id="wtfphjjnxe" x1="-21.861" y1="-.484" x2="-24.696" y2="6.012" gradientUnits="objectBoundingBox">
            <stop offset="0" stop-color="#cb236d"/>
            <stop offset="1" stop-color="#4c246d"/>
        </linearGradient>
        <linearGradient id="247y0o8bmf" x1="-93.354" y1=".5" x2="-92.354" y2=".5" gradientUnits="objectBoundingBox">
            <stop offset="0" stop-color="#f9b776"/>
            <stop offset="1" stop-color="#f47960"/>
        </linearGradient>
        <linearGradient id="xv3oo14tno" x1="-28.97" y1=".5" x2="-27.97" y2=".5" xlink:href="#vjb7d9d59d"/>
        <linearGradient id="a9vlw8qspp" x1="-59.486" y1="-2.223" x2="-66.503" y2="5.384" xlink:href="#wtfphjjnxe"/>
        <linearGradient id="8joeug4e0q" x1="-116.628" y1=".5" x2="-115.628" y2=".5" xlink:href="#247y0o8bmf"/>
        <linearGradient id="94z5iki4xr" x1="-21.032" y1=".5" x2="-20.032" y2=".5" xlink:href="#vjb7d9d59d"/>
        <linearGradient id="3azilyvans" x1=".674" y1=".159" x2=".122" y2="1.452" xlink:href="#ahd6qpralg"/>
        <linearGradient id="56xzr2mgqt" x1="-15.858" y1=".5" x2="-14.858" y2=".5" xlink:href="#247y0o8bmf"/>
        <linearGradient id="4yitkblihu" x1="106.292" y1="1.605" x2="108.292" y2="4.278" xlink:href="#247y0o8bmf"/>
        <linearGradient id="tzpz82zrcv" x1="-106.549" y1=".706" x2="-104.529" y2="-1.072" xlink:href="#247y0o8bmf"/>
        <linearGradient id="f94ssylxyw" x1=".595" y1=".499" x2="-.789" y2="3.804" xlink:href="#ahd6qpralg"/>
        <linearGradient id="rahjfbow3x" x1="-15.779" y1=".5" x2="-14.779" y2=".5" xlink:href="#247y0o8bmf"/>
        <linearGradient id="m0o13rcvly" x1="-12.615" y1="-.062" x2="-12.101" y2="2.428" gradientUnits="objectBoundingBox">
            <stop offset="0" stop-color="#9cfffb"/>
            <stop offset="1" stop-color="#9bfffa"/>
        </linearGradient>
        <linearGradient id="js6hz8ex9z" x1="-65.944" y1="-3.497" x2="-66.518" y2="1.805" xlink:href="#363ojhq5rb"/>
        <linearGradient id="p2nz6gm3wA" x1="-34.493" y1="-1.235" x2="-34.637" y2="1.146" xlink:href="#363ojhq5rb"/>
        <linearGradient id="sut7nfangB" x1="-46.916" y1=".5" x2="-45.916" y2=".5" xlink:href="#247y0o8bmf"/>
        <linearGradient id="bqn9mmjpdC" x1="-37.555" y1=".5" x2="-36.555" y2=".5" xlink:href="#247y0o8bmf"/>
        <linearGradient id="ogfnea8c9D" x1="-60.83" y1="-28.419" x2="-61.152" y2="-29.484" xlink:href="#247y0o8bmf"/>
        <linearGradient id="iyummwxfoE" x1="-46.667" y1="-22.832" x2="-46.462" y2="-21.653" xlink:href="#vjb7d9d59d"/>
        <linearGradient id="50v8sbc3dF" x1="-201.413" y1="-140.22" x2="-202.356" y2="-144.868" xlink:href="#247y0o8bmf"/>
        <clipPath id="ogxbwd64pi">
            <circle data-name="Ellipse 570" cx="21.721" cy="21.721" r="21.721" style="fill:none"/>
        </clipPath>
    </defs>
    <g data-name="Group 15148">
        <path data-name="Rectangle 2720" style="fill:#fff" d="M0 0h290v235H0z"/>
        <g data-name="Group 14373">
            <path data-name="Path 4909" d="M681.224 670.535a72.554 72.554 0 0 1-11.1 9.345c-36.206 25.978-79.048 18.406-88.153 16.557-13.445-2.731-39.435-8.01-58.225-30.106-28.428-33.43-24-86.1-1.951-120.866 4.033-6.359 25.339-41.656 68.642-47.317 26.207-3.426 56.755 3.484 78.877 22.018 46.439 38.904 43.133 117.498 11.91 150.369z" transform="translate(-457.672 -479.209)" style="opacity:.3;fill:url(#zblb2jw6oh)"/>
            <g data-name="Group 14352">
                <path data-name="Path 4910" d="M624.085 456.446a1.11 1.11 0 0 1 1.724-1.221c8.756 6.53 30.295 26.618 29.977 66.038-.4 49.458 11.787 66.1 25.67 75.523a54.882 54.882 0 0 1-30.934-19.951c-31.875-41.297-20.542-102.194-26.437-120.389z" transform="translate(-569.082 -440)" style="fill:url(#pfg6sluq9c)"/>
                <path data-name="Path 4911" d="M730.708 669.139c1.607 5.318 3.109 10.665 4.412 16.06q2 8.08 3.5 16.264c.976 5.456 1.85 10.93 2.49 16.433.665 5.5 1.092 11.022 1.5 16.568.441 5.54.853 11.124 1.838 16.683a56.364 56.364 0 0 0 5.25 16.122c.654 1.259 1.332 2.512 2.078 3.712.724 1.214 1.5 2.4 2.3 3.565a58.436 58.436 0 0 0 18.479 17.273 1.074 1.074 0 0 0 1.134-1.824 72.623 72.623 0 0 1-3.407-2.292c-.56-.391-1.1-.807-1.651-1.212-.533-.425-1.083-.83-1.6-1.271a56.616 56.616 0 0 1-5.931-5.62 62.067 62.067 0 0 1-9.3-13.4 54.073 54.073 0 0 1-3.121-7.524 61.306 61.306 0 0 1-2-7.934c-1-5.391-1.452-10.914-1.932-16.451s-1.016-11.1-1.772-16.629q-.556-4.149-1.26-8.275c-.227-1.376-.48-2.748-.731-4.12s-.536-2.737-.818-4.1q-1.711-8.19-3.924-16.256c-1.5-5.366-3.146-10.691-4.992-15.944a.288.288 0 0 0-.548.179z" transform="translate(-667.952 -638.141)" style="mix-blend-mode:soft-light;isolation:isolate;fill:#fff"/>
            </g>
            <g data-name="Group 14354">
                <g data-name="Group 14353">
                    <path data-name="Path 4912" d="M501.267 1341.333a2.791 2.791 0 0 1-4.244 1.859 85.109 85.109 0 0 1-38.34-62.229c-3.767-31.658-8.817-48.467-11.639-55.938a1.75 1.75 0 0 1 2.589-2.087c15.648 10.115 64.092 47.662 51.634 118.395z" transform="translate(-404.925 -1151.534)" style="fill:url(#ahd6qpralg)"/>
                    <path data-name="Path 4913" d="M716.864 1759.506a.774.774 0 0 1-1.186-.146c-.26-.409-26.068-41.391-33.294-85.172a.774.774 0 0 1 1.527-.252c7.173 43.464 32.815 84.188 33.073 84.595a.774.774 0 0 1-.12.975z" transform="translate(-623.162 -1569.23)" style="mix-blend-mode:soft-light;isolation:isolate;fill:#fff"/>
                </g>
            </g>
            <g data-name="Group 14365" transform="translate(82.833 18.336)">
                <g data-name="Group 14356">
                    <g data-name="Group 14355">
                        <path data-name="Path 4914" d="M1014.4 501.389a9.692 9.692 0 0 0-8.843 9.636c-.087 30.675-.23 136.482 1.769 173.931a7.526 7.526 0 0 0 7.437 7.127c19.65.212 76.172.6 108.26-1.452a12.673 12.673 0 0 0 11.876-12.66c-.039-32.195-.553-122.737-4.963-164.123a10.342 10.342 0 0 0-9.486-9.217c-21.428-1.669-78.339-5.652-106.05-3.242z" transform="translate(-1005.518 -500.634)" style="fill:url(#vjb7d9d59d)"/>
                        <path data-name="Path 4915" d="M1105.578 635.56c-.386 26.24-1.485 113.529.433 145.745a8.953 8.953 0 0 0 8.455 8.584c18.6.648 66.282 1.9 93.454-1.088a10.063 10.063 0 0 0 8.763-9.915c.68-26.778 2.516-108.077.651-139.934a9.907 9.907 0 0 0-9.047-9.465c-20.135-1.357-71.839-4.486-94.945-2.561a8.643 8.643 0 0 0-7.764 8.634z" transform="translate(-1097.648 -617.13)" style="fill:url(#w81fyjqvla)"/>
                        <path data-name="Path 4916" d="M1728.528 554.329a1.361 1.361 0 0 0 1.319 1.332c3.578.109 13.658.417 18.163.58a1.362 1.362 0 0 0 1.38-1.65 1.389 1.389 0 0 0-1.269-1.221 173.994 173.994 0 0 0-18.318-.433 1.408 1.408 0 0 0-1.275 1.392z" transform="translate(-1675.668 -549.011)" style="fill:#1f5aa9"/>
                    </g>
                </g>
                <g data-name="Group 14359" transform="translate(13.885 28.39)">
                    <circle data-name="Ellipse 568" cx="24.389" cy="24.389" r="24.389" style="fill:#fff"/>
                    <g data-name="Group 14358">
                        <g data-name="Group 14357" style="clip-path:url(#ogxbwd64pi)" transform="translate(2.669 2.669)">
                            <circle data-name="Ellipse 569" cx="9.519" cy="9.519" r="9.519" transform="rotate(-74.872 20.013 4.815)" style="fill:url(#axec9dxypj)"/>
                            <path data-name="Path 4917" d="M1301.45 1340.234h30.325c1.859 0 2.973-2.4 1.972-4.236-2.576-4.717-7.965-11.646-17.3-11.334-9 .3-14.328 6.561-17.008 11.05-1.139 1.906.025 4.52 2.011 4.52z" transform="translate(-1294.093 -1295.477)" style="fill:url(#0ufc95fa6k)"/>
                        </g>
                    </g>
                </g>
                <rect data-name="Rectangle 2657" width="33.941" height="12.234" rx="6.117" transform="translate(43.024 148.523)" style="fill:url(#w1iov2vh2l)"/>
                <g data-name="Group 14364" style="opacity:.8">
                    <g data-name="Group 14360" transform="translate(15.328 96.753)">
                        <rect data-name="Rectangle 2658" width="70.416" height="6.736" rx="3.368" transform="translate(13.116 .736)" style="fill:#fff"/>
                        <circle data-name="Ellipse 571" cx="4.084" cy="4.084" r="4.084" style="fill:#fff"/>
                    </g>
                    <g data-name="Group 14361" transform="translate(14.727 108.791)">
                        <path data-name="Rectangle 2659" d="M3.368 0h63.68a3.368 3.368 0 0 1 3.368 3.368 3.368 3.368 0 0 1-3.368 3.368H3.368A3.368 3.368 0 0 1 0 3.368 3.368 3.368 0 0 1 3.368 0z" transform="translate(13.717 1.338)" style="fill:#fff"/>
                        <circle data-name="Ellipse 572" cx="4.084" cy="4.084" r="4.084" transform="rotate(-80.783 4.738 4.031)" style="fill:#fff"/>
                    </g>
                    <g data-name="Group 14362" transform="translate(15.328 122.032)">
                        <rect data-name="Rectangle 2660" width="70.416" height="6.736" rx="3.368" transform="translate(13.116 .736)" style="fill:#fff"/>
                        <circle data-name="Ellipse 573" cx="4.084" cy="4.084" r="4.084" style="fill:#fff"/>
                    </g>
                    <g data-name="Group 14363" transform="translate(15.328 134.672)">
                        <rect data-name="Rectangle 2661" width="70.416" height="6.736" rx="3.368" transform="translate(13.116 .736)" style="fill:#fff"/>
                        <circle data-name="Ellipse 574" cx="4.084" cy="4.084" r="4.084" style="fill:#fff"/>
                    </g>
                </g>
                <rect data-name="Rectangle 2662" width="55.436" height="6.736" rx="3.368" transform="translate(15.488 84.325)" style="fill:#fff"/>
            </g>
            <g data-name="Group 14367">
                <g data-name="Group 14366">
                    <path data-name="Path 4918" d="M1990.656 586.916a6.158 6.158 0 0 0-3.507-5.16l-26.134-12.412a6.165 6.165 0 0 0-5.29 0l-26.134 12.412a6.158 6.158 0 0 0-3.507 5.16c-2.451 37.892 21.844 51.7 29.809 55.186a6.172 6.172 0 0 0 4.954 0c7.965-3.488 32.261-17.294 29.809-55.186z" transform="translate(-1775.798 -545.433)" style="fill:url(#363ojhq5rb)"/>
                    <path data-name="Path 4919" d="M2253.93 598.929a.62.62 0 0 1-.267-1.181l6.175-2.933a.62.62 0 1 1 .532 1.12l-6.175 2.933a.616.616 0 0 1-.265.061z" transform="translate(-2079.262 -569.539)" style="fill:#fff"/>
                    <path data-name="Path 4920" d="M1947.241 670.888a.62.62 0 0 1-.619-.6 78.416 78.416 0 0 1 .129-7.661 4.647 4.647 0 0 1 2.647-3.893l17.58-8.35a.62.62 0 1 1 .532 1.12l-17.58 8.35a3.407 3.407 0 0 0-1.942 2.852 77.195 77.195 0 0 0-.127 7.54.62.62 0 0 1-.6.641z" transform="translate(-1794.956 -621.046)" style="fill:#fff"/>
                    <path data-name="Path 4921" d="M2065.416 671.878a1.539 1.539 0 0 0-.876-1.312l-24.431-11.6a1.537 1.537 0 0 0-1.318 0l-24.431 11.6a1.539 1.539 0 0 0-.876 1.312c-.723 14.135 2.542 25.929 9.711 35.07a43.339 43.339 0 0 0 15.6 12.446 1.541 1.541 0 0 0 1.3 0 43.34 43.34 0 0 0 15.6-12.446c7.179-9.141 10.444-20.935 9.721-35.07z" transform="translate(-1856.877 -628.916)" style="fill:url(#8ywwds1dem)"/>
                </g>
                <path data-name="Path 4922" d="M2131.145 790.818a4.237 4.237 0 0 1 5.881 1.449l5.679 9.627a1.361 1.361 0 0 0 2.426-.164l12.777-30.384a1.507 1.507 0 0 1 2.9.581 59.358 59.358 0 0 1-16.271 41.717s-8.172-2.952-15.037-17.111a4.445 4.445 0 0 1 1.645-5.715z" transform="translate(-1964.086 -732.362)" style="fill:url(#l2mfrbfw8n)"/>
            </g>
            <g data-name="Group 14372">
                <path data-name="Path 4923" d="M2676.938 3128.208s.468 2.649.7 5.27a1.806 1.806 0 0 1-1.728 1.958c-3.491.145-10.96.428-13.64.308a.587.587 0 0 1-.517-.8 1.316 1.316 0 0 1 .673-.709l12.337-5.67z" transform="translate(-2457.806 -2917.796)" style="fill:url(#wtfphjjnxe)"/>
                <path data-name="Path 4924" d="m2824.415 3100.715-.376 3.168s-2.161 1.006-3.637-.127l.9-3.531z" transform="translate(-2604.9 -2891.859)" style="fill:url(#247y0o8bmf)"/>
                <path data-name="Path 4925" d="M2827.427 2292.115c.162.828.871 41.286-3.453 59.417a.615.615 0 0 0 .361.716 10.714 10.714 0 0 0 3.522.716 1.06 1.06 0 0 0 1.052-.761c1.236-4.206 7.16-25.283 7.932-45.416.864-22.5 0-.766 0-.766l-.507-13.906z" transform="translate(-2608.194 -2142.819)" style="fill:url(#xv3oo14tno)"/>
                <path data-name="Path 4926" d="M3001.428 3147.111a19.075 19.075 0 0 1 1.466 4.89 1.1 1.1 0 0 1-.97 1.32c-1.153.114-2.928.259-4.35.249a1.1 1.1 0 0 1-1.088-1.226 9.271 9.271 0 0 1 2.164-5.083z" transform="translate(-2768.105 -2935.317)" style="fill:url(#a9vlw8qspp)"/>
                <path data-name="Path 4927" d="m3029.2 3089.006-.878 4.791a3.1 3.1 0 0 1-2.586.178l.419-5.155z" transform="translate(-2795.225 -2881.286)" style="fill:url(#8joeug4e0q)"/>
                <path data-name="Path 4928" d="M2884.013 2280.728c3.537 21.346-.767 52.759-2.219 58.907a.959.959 0 0 1-.774.728 6.438 6.438 0 0 1-2.766-.11.879.879 0 0 1-.632-.809c-.195-4.971.156-35.486-3.14-47.545a2.739 2.739 0 0 0-1.056-1.511l-6.4-4.547-.49-7.351z" transform="translate(-2647.663 -2130.192)" style="fill:url(#94z5iki4xr)"/>
                <g data-name="Group 14368">
                    <path data-name="Path 4929" d="M2603.259 1733.846c10.6-.175 22.3 2.783 22.3 2.783 3.159 18.436.552 39.7.552 39.7-8.206 2.152-17.463-1.316-17.463-1.316-1.364-7.706-7.728-29.392-7.728-29.392a34.919 34.919 0 0 1-12.959-4.112 22.727 22.727 0 0 0 4.492-9.4 35.578 35.578 0 0 0 10.806 1.737z" transform="translate(-2389.447 -1623.756)" style="fill:url(#3azilyvans)"/>
                    <path data-name="Path 4930" d="M2368.966 1532.051a2.028 2.028 0 0 1 2.359-.663c1.56 6.589 9.739 11.931 18.141 14.543a22.726 22.726 0 0 1-4.492 9.4c-13.944-7.845-16.008-23.28-16.008-23.28z" transform="translate(-2186.464 -1437.573)" style="fill:url(#56xzr2mgqt)"/>
                </g>
                <g data-name="Group 14369">
                    <path data-name="Path 4931" d="M2311.92 1403.052c-.109.346 1.153.874 1.9-.543.026-.679.439-3.588.033-4.141a54.194 54.194 0 0 0-6.35-6.638 1 1 0 0 0-.125 1.385l2.032 2.117a9.845 9.845 0 0 0-1.187 2.346 2.848 2.848 0 0 0 .284 2.1c.357.643.843 1.478 1.3 2.132a2.812 2.812 0 0 0 2.113 1.242z" transform="translate(-2129.165 -1308.255)" style="fill:url(#4yitkblihu)"/>
                    <path data-name="Path 4932" d="m2345 1458.425 1.852 1.57.581 1.563-1.651 1.832a21.3 21.3 0 0 0-.968-3.772c-.408-.672-.194-.997.186-1.193z" transform="translate(-2163.874 -1370.075)" style="fill:url(#tzpz82zrcv)"/>
                </g>
                <path data-name="Path 4933" d="m3046.656 1804.155 4.066-10.264s9.9 6.727 11.529 15.256a23.428 23.428 0 0 0-8.607 2.307c-.733-4.027-6.988-7.299-6.988-7.299z" transform="translate(-2814.614 -1681.018)" style="fill:url(#f94ssylxyw)"/>
                <path data-name="Path 4934" d="M2909.643 2007.26s11.116 6.282 14.866.918a4.217 4.217 0 0 0 .773-3.276 23.433 23.433 0 0 1 8.607-2.307 11.771 11.771 0 0 1-1.28 8.07c-6.57 12.018-24.438-.664-24.438-.664z" transform="translate(-2686.254 -1874.465)" style="fill:url(#rahjfbow3x)"/>
                <g data-name="Group 14370">
                    <path data-name="Path 4935" d="m2594.45 1884.175-6.067-21.186a.617.617 0 0 0-.522-.445c-1.1-.128-4.284-.488-7.962-.8a90.349 90.349 0 0 0-12.647-.42.62.62 0 0 0-.507.892c1.748 3.536 8.938 17.922 12.539 22.634a.623.623 0 0 0 .5.246l14.076-.131a.62.62 0 0 0 .59-.79z" transform="translate(-2369.725 -1743.433)" style="fill:url(#m0o13rcvly)"/>
                    <path data-name="Path 4936" d="m2678.469 1833.813-4.4-.733a.316.316 0 0 0-.352.41l.436 1.319a.315.315 0 0 0 .258.214l4.232.566a.316.316 0 0 0 .349-.385l-.269-1.152a.316.316 0 0 0-.254-.239z" transform="translate(-2468.924 -1717.338)" style="fill:url(#js6hz8ex9z)"/>
                    <path data-name="Path 4937" d="m2655.751 1854.248-.362-1.887a.437.437 0 0 0-.385-.352l-8.884-.9a.436.436 0 0 0-.468.536l.565 2.352a.436.436 0 0 0 .4.334l8.682.437a.436.436 0 0 0 .452-.52z" transform="translate(-2442.913 -1734.049)" style="fill:url(#p2nz6gm3wA)"/>
                    <path data-name="Path 4938" d="M2831.453 2013.52s.845-3.475.5-4.708-1-2.818-3.2-2.466a32.223 32.223 0 0 0-4.8 1.28 1.26 1.26 0 0 0 1.8 1.088l-1.038.8s.148 1.286 1.562.6l-.965 1.065a1.124 1.124 0 0 0 1.647.379c1.047-.677 1.541 2.38 4.494 1.962z" transform="translate(-2608.194 -1877.896)" style="fill:url(#sut7nfangB)"/>
                </g>
                <path data-name="Path 4939" d="m2857.107 1638.1 3.373 9.753a.351.351 0 0 1-.16.423 7.928 7.928 0 0 1-8.223-.553 1.654 1.654 0 0 1-.762-1.182l-1.092-8.442z" transform="translate(-2632.559 -1536.613)" style="fill:url(#bqn9mmjpdC)"/>
                <g data-name="Group 14371">
                    <path data-name="Path 4940" d="M2802.29 1514.541s-3.7 6.972-3.229 9.788 5.065 2.614 9.073.327l2.8-7.528z" transform="translate(-2585.08 -1422.088)" style="fill:url(#ogfnea8c9D)"/>
                    <path data-name="Path 4941" d="M2825.388 1456.685a.287.287 0 0 1-.125-.421 7.5 7.5 0 0 0 1.031-2.188s.666-.426-1.695-.991-5.88-1.442-6.62-3.451c-.721-1.959 1.174-6.885 4.2-2.96a.288.288 0 0 0 .456 0 2.962 2.962 0 0 1 3.608-1.172 2.718 2.718 0 0 1 1.861 2.626.286.286 0 0 0 .338.293 3.314 3.314 0 0 1 3.869 1.8c.79 1.736.276 2.718-.191 3.2a.286.286 0 0 0 .123.476 1.724 1.724 0 0 1 1.217 1.968c-.1 1.822-2.138 1.662-2.718 1.578a.288.288 0 0 0-.255.09c-.5.55-2.738 2.887-5.164 3.169a.29.29 0 0 1-.3-.383l1.05-3.051a.288.288 0 0 0-.156-.358z" transform="translate(-2602.511 -1357.815)" style="fill:url(#iyummwxfoE)"/>
                    <path data-name="Path 4942" d="M2905.16 1596.9s2.637-1.809 2.83-.286-2.375 2.207-3.646 1.639z" transform="translate(-2682.705 -1497.594)" style="fill:url(#50v8sbc3dF)"/>
                </g>
            </g>
        </g>
    </g>
</svg>
