<svg xmlns="http://www.w3.org/2000/svg" xmlns:xlink="http://www.w3.org/1999/xlink" width="290" height="235" viewBox="0 0 290 235">
    <defs>
        <linearGradient id="8uc7cweeka" x1="-.77" y1=".5" x2=".23" y2=".5" gradientUnits="objectBoundingBox">
            <stop offset="0" stop-color="#dae3fe"/>
            <stop offset="1" stop-color="#e9effd"/>
        </linearGradient>
        <linearGradient id="0bc81q9mpd" x1="1.016" y1=".018" x2="-.299" y2="1.265" gradientUnits="objectBoundingBox">
            <stop offset="0" stop-color="#09005d"/>
            <stop offset="1" stop-color="#1a0f91"/>
        </linearGradient>
        <linearGradient id="couyks3a0h" x1="0" y1=".5" x2="1" y2=".5" xlink:href="#8uc7cweeka"/>
        <linearGradient id="2b9s90305b" x1="1.087" y1="-.396" x2="-.111" y2="1.008" gradientUnits="objectBoundingBox">
            <stop offset="0" stop-color="#fe7062"/>
            <stop offset="1" stop-color="#ff928e"/>
        </linearGradient>
        <linearGradient id="phaw8orwwe" x1=".272" y1="-1.555" x2=".515" y2=".484" gradientUnits="objectBoundingBox">
            <stop offset="0" stop-color="#ff928e"/>
            <stop offset="1" stop-color="#feb3b1"/>
        </linearGradient>
        <linearGradient id="x4pqnimaui" x1="1.736" y1="-25.356" x2="-.869" y2="16.545" xlink:href="#2b9s90305b"/>
        <linearGradient id="dpea6b0fhj" x1="1.783" y1="-21.501" x2="-.823" y2="13.075" xlink:href="#2b9s90305b"/>
        <linearGradient id="w4ughbcyck" x1="2.251" y1="-24.941" x2="-1.434" y2="16.106" xlink:href="#2b9s90305b"/>
        <linearGradient id="b5s9dkk1fc" y1=".5" x2="1" y2=".5" gradientUnits="objectBoundingBox">
            <stop offset="0" stop-color="#4042e2"/>
            <stop offset="1" stop-color="#4f52ff"/>
        </linearGradient>
        <linearGradient id="m709r131al" x1=".051" y1=".265" x2="-.683" y2="1.362" xlink:href="#b5s9dkk1fc"/>
        <linearGradient id="k7nkmk2lym" x1="-26.73" y1="53.71" x2="-32.303" y2="59.024" xlink:href="#2b9s90305b"/>
        <linearGradient id="upte5qugcn" x1="-25.493" y1="53.556" x2="-31.066" y2="58.87" xlink:href="#2b9s90305b"/>
        <linearGradient id="ayy1iwdcjo" x1="-26.878" y1="52.911" x2="-32.451" y2="58.226" xlink:href="#2b9s90305b"/>
        <linearGradient id="rokxlegxjp" x1="-27.155" y1="53.054" x2="-34.488" y2="58.766" xlink:href="#2b9s90305b"/>
        <linearGradient id="at0bkvv2wq" x1="-27.147" y1="51.243" x2="-32.72" y2="56.557" xlink:href="#2b9s90305b"/>
        <linearGradient id="gqi7wdsmtr" x1="-3.299" y1="-.077" x2="-5.992" y2="3.48" xlink:href="#0bc81q9mpd"/>
        <linearGradient id="hmwfphp3ms" x1="-4.8" y1="39.075" x2="-5.926" y2="41.475" xlink:href="#0bc81q9mpd"/>
        <linearGradient id="4kfxsxc6zt" x1="0" y1=".5" x2="1" y2=".5" xlink:href="#8uc7cweeka"/>
        <linearGradient id="m3sw73t9wu" x1="-2.983" y1="25.496" x2="-3.477" y2="26.998" xlink:href="#0bc81q9mpd"/>
        <linearGradient id="446s4wiciv" x1="-41.143" y1="54.36" x2="-41.788" y2="56.042" xlink:href="#2b9s90305b"/>
        <linearGradient id="ovxefvlvgw" x1=".01" y1="42.925" x2=".242" y2="47.533" xlink:href="#b5s9dkk1fc"/>
        <linearGradient id="fml3wf0e8x" x1="-42.943" y1="28.113" x2="-44.15" y2="29.582" xlink:href="#2b9s90305b"/>
        <linearGradient id="6o2h3py7iy" x1="-59.773" y1="45.291" x2="-58.699" y2="45.291" xlink:href="#0bc81q9mpd"/>
        <linearGradient id="o2ilsnsdhz" x1="-88.551" y1="70.102" x2="-87.478" y2="70.102" xlink:href="#0bc81q9mpd"/>
        <linearGradient id="uvwn6i2jrA" x1=".959" y1=".656" x2="-.259" y2=".155" xlink:href="#phaw8orwwe"/>
        <linearGradient id="l2170mylmB" x1=".479" y1=".158" x2=".541" y2="1.532" xlink:href="#2b9s90305b"/>
        <linearGradient id="2tl0td0shf" y1=".5" x2="1" y2=".5" gradientUnits="objectBoundingBox">
            <stop offset="0" stop-color="#020039"/>
            <stop offset="1" stop-color="#090056"/>
        </linearGradient>
        <linearGradient id="vinhw1osxC" x1=".064" y1=".094" x2=".951" y2=".917" xlink:href="#b5s9dkk1fc"/>
        <linearGradient id="o2hgxufjgD" x1="1.107" y1="-.006" x2="-.123" y2=".733" xlink:href="#2b9s90305b"/>
        <linearGradient id="2wlfkbu89E" x1=".5" y1="-2.145" x2=".5" y2="-.209" xlink:href="#phaw8orwwe"/>
        <linearGradient id="kqfnpxi9dF" x1=".653" y1="-2.993" x2=".309" y2="4.351" xlink:href="#phaw8orwwe"/>
        <linearGradient id="05v12nvvlG" x1=".5" y1="-6.722" x2=".5" y2="-.386" xlink:href="#phaw8orwwe"/>
        <linearGradient id="6y6ef3ngmH" x1="1.188" y1="-.094" x2="-.616" y2="1.466" xlink:href="#2b9s90305b"/>
        <linearGradient id="5ymt5msc9I" x1=".803" y1=".158" x2="-.146" y2="1.441" gradientUnits="objectBoundingBox">
            <stop offset="0" stop-color="#ff928e"/>
            <stop offset=".531" stop-color="#fea5a3"/>
            <stop offset="1" stop-color="#feb3b1"/>
        </linearGradient>
        <linearGradient id="2g7hqsta0J" x1=".991" y1="-1.915" x2=".609" y2=".058" xlink:href="#phaw8orwwe"/>
        <linearGradient id="kjfjosbtyg" y1=".5" x2="1" y2=".5" gradientUnits="objectBoundingBox">
            <stop offset="0" stop-color="#e1473d"/>
            <stop offset="1" stop-color="#e9605a"/>
        </linearGradient>
        <linearGradient id="qh64dqc4gK" x1="1.43" y1="-.323" x2=".085" y2=".962" xlink:href="#phaw8orwwe"/>
        <linearGradient id="pufto5ir4L" x1=".28" y1=".152" x2="1.03" y2="1.129" xlink:href="#2tl0td0shf"/>
        <linearGradient id="y1nudp0yqM" x1="4.988" y1="-2.89" x2="-.516" y2="1.302" xlink:href="#phaw8orwwe"/>
        <linearGradient id="g6kespinbN" x1="-.193" y1="-1.262" x2="1.141" y2="2.116" xlink:href="#phaw8orwwe"/>
        <linearGradient id="vwr0fsyztO" x1=".035" y1=".333" x2="1.461" y2=".835" xlink:href="#2b9s90305b"/>
        <linearGradient id="9ghzvsdulP" x1=".5" y1="-1.279" x2=".5" y2="1.94" xlink:href="#phaw8orwwe"/>
        <linearGradient id="de7n28z1nQ" x1=".485" y1=".339" x2=".712" y2="1.663" xlink:href="#0bc81q9mpd"/>
        <linearGradient id="dik7x1oroR" x1="-.653" y1=".098" x2="2.14" y2="1.033" xlink:href="#2b9s90305b"/>
        <linearGradient id="0cjb67nzgS" x1="-.279" y1=".282" x2="1.279" y2=".718" xlink:href="#kjfjosbtyg"/>
        <linearGradient id="irrdk486eT" x1=".724" y1=".148" x2="-.021" y2="1.392" xlink:href="#phaw8orwwe"/>
        <linearGradient id="s7qmsq4ndU" x1="1.445" y1=".558" x2=".133" y2=".477" xlink:href="#phaw8orwwe"/>
        <linearGradient id="bbdchl79jV" x1="0" y1=".5" x2="1" y2=".5" xlink:href="#0bc81q9mpd"/>
        <linearGradient id="20hjh2ncvW" x1="28.272" y1="65.741" x2="30.73" y2="63.093" xlink:href="#phaw8orwwe"/>
        <linearGradient id="tmm27hnrgX" x1=".497" y1="-2.181" x2=".504" y2="3.784" xlink:href="#2tl0td0shf"/>
        <linearGradient id="f2v4v4jt8Y" x1=".496" y1="-2.549" x2=".504" y2="3.416" xlink:href="#2tl0td0shf"/>
        <linearGradient id="adqziamoeZ" x1="-.184" y1="1.294" x2=".486" y2=".516" xlink:href="#kjfjosbtyg"/>
        <linearGradient id="fm9rjr7qwaa" x1=".878" y1="-.071" x2="-1.173" y2="3.028" xlink:href="#2b9s90305b"/>
        <linearGradient id="33nxgm8jmab" x1="1.304" y1="-.302" x2="-1.589" y2="2.559" xlink:href="#2b9s90305b"/>
        <linearGradient id="pfpmhdsl0ac" x1="1.304" y1="-.302" x2="-1.589" y2="2.559" xlink:href="#2b9s90305b"/>
        <linearGradient id="tss2lmv5rad" x1="-1.058" y1=".733" x2="1.002" y2=".425" xlink:href="#2b9s90305b"/>
    </defs>
    <g data-name="Group 15149">
        <path data-name="Rectangle 2719" style="fill:#fff" d="M0 0h290v235H0z"/>
        <g data-name="Group 14351">
            <path data-name="Path 4679" d="M331.362 202.656c4.2 1.249 10.476 6.927 15.981 15.983 6.772 11.14 10.8 12.116 20.376 6.627s20.834-1.8 28.979 12.812-6.123 25.975-19.347 43.778 13.18 13.2 21.733 33.992-3.51 44.12-43.2 43.842c-39.746-.278-99.829.255-99.829.255s-55.719 4.916-76.01-7.785 4.667-18.878-14.2-27-38.569-8.669-30.317-29.66 19.93-16.644 27.466-22.256 12.07-11.705 1.294-21.694-19.026-16.719-13.578-29.953c7.816-18.987 26.783-21.437 47.622-13.389S222.7 226.563 257.1 220.6c19.177-3.331 38.512-28.58 74.262-17.944z" transform="translate(-122.59 -159.348)" style="fill:url(#8uc7cweeka)"/>
            <g data-name="Group 14309">
                <path data-name="Path 4680" d="M1665.485 885.215a.262.262 0 0 0 .481-.193c-.961-4.2-3.127-17.742 6.9-24.247 11.688-7.582 31.826-10.871 19.488-56.679a2.606 2.606 0 0 0-3.871-1.546c-6.866 4.173-23.34 15.739-24.205 31.071-1.094 19.4 2.259 23.5.54 30.644-3.042 12.627-.7 18.698.667 20.95z" transform="translate(-1466.572 -688.344)" style="fill:#bdd0fb"/>
                <g data-name="Group 14304">
                    <path data-name="Path 4681" d="M1607.377 643.644a.149.149 0 0 1-.292-.06c1.093-7.542 4.229-31.328 3.336-50.326-1.077-22.891-5.151-32.95-6.942-44.61s5.6-26.431 25.382-21.657c16.152 3.9 28.844 6.556 34.793 5.7a1.429 1.429 0 0 1 1.473 2.059c-3.417 6.794-12.7 22.145-27.3 23.366-18.8 1.573-19.066-3.576-23.027 1.417s-3.756 9.892-3.45 19.079c.294 8.849 1.537 43.767-3.973 65.032z" transform="translate(-1413.762 -445.772)" style="fill:#bdd0fb"/>
                    <path data-name="Path 4682" d="M1637.663 650.053a37.278 37.278 0 0 1-1.388-4.27 39.284 39.284 0 0 1-.9-4.385 28.284 28.284 0 0 1 .029-8.984 18.8 18.8 0 0 1 1.338-4.349 15.473 15.473 0 0 1 2.461-3.853 17.033 17.033 0 0 1 3.471-2.957c.632-.395 1.256-.8 1.91-1.162.641-.382 1.307-.72 1.971-1.063a33.537 33.537 0 0 1 4.144-1.722 27.681 27.681 0 0 1 4.37-1.045 28.927 28.927 0 0 1 4.47-.326c1.492 0 2.975.1 4.447.244 2.943.286 5.849.7 8.768.846a38.068 38.068 0 0 0 8.728-.491.235.235 0 0 1 .087.462 38.652 38.652 0 0 1-8.843.722c-2.963-.078-5.9-.453-8.815-.678a35.524 35.524 0 0 0-8.685.212 26.656 26.656 0 0 0-4.191 1.056 32.466 32.466 0 0 0-3.979 1.711c-.639.341-1.281.676-1.9 1.055-.631.357-1.234.762-1.845 1.154a15.979 15.979 0 0 0-3.21 2.764 15.751 15.751 0 0 0-3.478 7.641 27.15 27.15 0 0 0-.041 8.592 41.557 41.557 0 0 0 .836 4.263 36.372 36.372 0 0 0 1.289 4.134l.008.02a.563.563 0 0 1-1.049.41z" transform="translate(-1441.708 -524.725)" style="fill:#dce5fe"/>
                </g>
                <g data-name="Group 14305">
                    <path data-name="Path 4683" d="M1663.63 948.745a.165.165 0 0 1-.29-.15 47.482 47.482 0 0 0 2.636-18.738c-.66-11.753-9.295-40.121 13.029-45.255 19.667-4.522 31.29-5.513 36.742-9.333a1.172 1.172 0 0 1 1.849 1c-.25 7.03-2.086 25.593-14.375 30.2-15.249 5.716-30.054-.547-34.914 4.943-4.716 5.326 3.234 25.739-4.677 37.333z" transform="translate(-1466.572 -752.377)" style="fill:#bdd0fb"/>
                    <path data-name="Path 4684" d="M1675.733 983.729a37.227 37.227 0 0 1-.078-3.8c.035-1.263.111-2.525.242-3.785a38.845 38.845 0 0 1 1.5-7.469 30.082 30.082 0 0 1 1.377-3.594 24.137 24.137 0 0 1 1.936-3.367 19.263 19.263 0 0 1 2.582-2.954l.759-.633c.129-.1.25-.215.386-.309l.407-.282c.275-.182.535-.388.824-.548l.862-.487.216-.121.225-.1.451-.2a8.733 8.733 0 0 1 .912-.38l.934-.319c.311-.114.626-.173.939-.261a22.331 22.331 0 0 1 3.831-.608 37.653 37.653 0 0 1 7.6.447 25.609 25.609 0 0 0 7.284.195 18.477 18.477 0 0 0 6.791-2.616.211.211 0 0 1 .237.349 19.866 19.866 0 0 1-3.221 2 16.061 16.061 0 0 1-3.621 1.268 18.959 18.959 0 0 1-3.829.393c-1.279 0-2.543-.095-3.79-.2s-2.475-.23-3.7-.283a27.11 27.11 0 0 0-3.626.06 20.666 20.666 0 0 0-3.536.628c-.285.086-.584.151-.858.254l-.833.291a7.358 7.358 0 0 0-.811.344l-.4.182-.2.091-.191.109-.763.437c-.256.142-.484.331-.729.493l-.361.252c-.121.083-.227.186-.341.278l-.674.568a18.6 18.6 0 0 0-2.337 2.663 24.968 24.968 0 0 0-3.151 6.467c-.371 1.157-.7 2.331-.966 3.524s-.472 2.4-.653 3.616a50.152 50.152 0 0 0-.5 7.342v.022a.563.563 0 0 1-1.125.045z" transform="translate(-1477.387 -820.418)" style="fill:#dce5fe"/>
                </g>
                <g data-name="Group 14306">
                    <path data-name="Path 4685" d="M632.523 476.747s.74-19.418-8.132-24.745-25.836-8.821-26.074-36.722c-.139-16.334-.441-23.48-.667-26.6a1.839 1.839 0 0 1 2.2-1.938c8.45 1.718 35.882 8.682 41.384 27.553 6.522 22.375-8.711 62.452-8.711 62.452z" transform="translate(-530.294 -323.332)" style="fill:#bdd0fb"/>
                    <path data-name="Path 4686" d="M664.706 451.2c.65.6 1.273 1.207 1.888 1.829.309.31.609.627.909.944s.605.631.9.956c.589.645 1.182 1.287 1.753 1.948l.864.985.843 1 .837 1.009.815 1.027a71.623 71.623 0 0 1 1.609 2.071c1.064 1.388 2.065 2.822 3.077 4.249.972 1.454 1.962 2.9 2.868 4.4l.694 1.114.347.557.331.567 1.318 2.272.326.57.309.58.617 1.16.617 1.16.309.58.29.589c.76 1.581 1.567 3.128 2.251 4.764.184.4.339.815.5 1.224s.33.819.486 1.231l.448 1.245.223.623.2.629.408 1.259.37 1.27c.258.844.45 1.7.674 2.556a73.325 73.325 0 0 1 1.705 10.41 80.24 80.24 0 0 1 .28 10.523q-.108 2.629-.381 5.247a53.952 53.952 0 0 1-.773 5.222.584.584 0 0 1-1.15-.2v-.025a77.049 77.049 0 0 0 .739-10.286 88.322 88.322 0 0 0-.49-10.308 77.827 77.827 0 0 0-1.761-10.142 65.081 65.081 0 0 0-3.219-9.747 128.077 128.077 0 0 0-9.847-18.175l-1.439-2.156c-.471-.725-.989-1.417-1.479-2.129s-1-1.411-1.514-2.106l-.768-1.046-.79-1.028a101.2 101.2 0 0 0-6.662-7.947l-.008-.009a.331.331 0 0 1 .466-.47z" transform="translate(-588.724 -379.912)" style="fill:#dce5fe"/>
                </g>
                <g data-name="Group 14307">
                    <path data-name="Path 4687" d="M446.062 857.415c1.38.67-13.108-17.406-17.735-45.867-2.18-13.411-2.272-30.224-9.941-36.674-6.383-5.368-28.019-1.881-35.1-.56a1.062 1.062 0 0 0-.487 1.86c3.408 2.84 10.7 9.541 12.62 16.316 2.53 8.929 11.05 14.583 18.665 16.092s11.852 2.987 15.606 15.14 12.45 31.789 16.372 33.693z" transform="translate(-341.202 -661.818)" style="fill:#bdd0fb"/>
                    <path data-name="Path 4688" d="M470.369 822.11a34.356 34.356 0 0 1 13.252 3.263 26.951 26.951 0 0 1 5.826 3.7 23.377 23.377 0 0 1 4.6 5.184l.467.735c.154.246.285.506.428.758s.284.51.411.764l.381.762q.766 1.521 1.511 3.052 1.489 3.064 2.879 6.174c1.856 4.146 3.577 8.351 5.034 12.663a.228.228 0 0 1-.426.16v-.007c-.857-2.088-1.75-4.171-2.685-6.23s-1.87-4.12-2.839-6.164-1.948-4.083-2.956-6.108q-.745-1.524-1.517-3.035l-.382-.757c-.127-.253-.265-.487-.4-.732s-.257-.49-.4-.725l-.44-.7a23.176 23.176 0 0 0-4.349-4.987 25.583 25.583 0 0 0-2.659-2l-.347-.232-.356-.219c-.238-.145-.472-.3-.713-.436-.486-.273-.969-.552-1.47-.8a34.637 34.637 0 0 0-6.251-2.434 36.207 36.207 0 0 0-6.61-1.282h-.012a.183.183 0 0 1 .025-.364z" transform="translate(-418.306 -705.863)" style="fill:#dce5fe"/>
                </g>
                <g data-name="Group 14308">
                    <path data-name="Path 4689" d="M443.96 1140.606c.817.431-4.6-8.9-5.021-17.124s-2.271-22.256-9.362-30.651-14.855-9.161-24.64-1.529c-8.153 6.36-13.239 9.569-16.222 10.166a1.127 1.127 0 0 0-.756 1.644c1.913 3.523 7.322 11.615 16.4 11.046 11.584-.727 25.623-8.257 29.9-1.975s3.729 9.8 3.861 12.774.43 12.797 5.84 15.649z" transform="translate(-345.951 -937.732)" style="fill:#bdd0fb"/>
                    <path data-name="Path 4690" d="M555.451 1167.908a22.773 22.773 0 0 1 2.014-1.7c.7-.533 1.419-1.042 2.17-1.5a21.644 21.644 0 0 1 4.805-2.277 15.124 15.124 0 0 1 2.636-.6 11.282 11.282 0 0 1 2.74-.012c.228.037.458.058.684.109s.457.1.674.158l1.282.4 1.254.488 1.216.585a15.281 15.281 0 0 1 4.236 3.318 18.929 18.929 0 0 1 2.924 4.463c.2.4.393.795.549 1.208s.341.815.494 1.228l.428 1.249c.151.414.247.843.369 1.265a45.37 45.37 0 0 1 1.09 5.132.2.2 0 0 1-.4.082v-.007c-.417-1.683-.814-3.368-1.381-5-.258-.823-.582-1.619-.883-2.422-.162-.4-.347-.783-.519-1.175s-.368-.771-.569-1.147a19.322 19.322 0 0 0-2.892-4.155 14.818 14.818 0 0 0-3.979-3.031l-1.137-.538-1.179-.45-1.211-.368c-.2-.057-.4-.094-.595-.143s-.4-.066-.6-.1a10.133 10.133 0 0 0-2.461-.007 14.133 14.133 0 0 0-2.456.494 23.868 23.868 0 0 0-4.691 1.983c-.75.414-1.495.844-2.218 1.312s-1.433.963-2.113 1.481h-.005a.211.211 0 0 1-.275-.32z" transform="translate(-493.167 -1004.248)" style="fill:#dce5fe"/>
                </g>
            </g>
            <g data-name="Group 14312">
                <g data-name="Group 14310">
                    <path data-name="Path 4691" d="m794.444 271.4 90.615 1c5.009.055 8.938 4.377 8.934 9.807l-.08 134.323a6.872 6.872 0 0 1-6.714 6.891l-97.148.429a6.308 6.308 0 0 1-6.24-6.372V282.857c0-6.378 4.76-11.522 10.633-11.457z" transform="translate(-693.854 -222.025)" style="fill:url(#0bc81q9mpd)"/>
                    <path data-name="Path 4692" d="M962.628 377.446H886.46a5.783 5.783 0 0 0-5.76 5.744v110.858a5.6 5.6 0 0 0 5.76 5.524h76.168a5.64 5.64 0 0 0 5.807-5.524V383.19a5.824 5.824 0 0 0-5.807-5.744z" transform="translate(-778.978 -315.195)" style="fill:#91b3fa"/>
                </g>
                <g data-name="Group 14311">
                    <path data-name="Path 4693" d="M1092.364 684.529v-4.879a39.786 39.786 0 0 1-13.69-2.968 2.822 2.822 0 0 1-1.56-3.334l1.24-4.544a2.845 2.845 0 0 1 3.862-1.862 33.031 33.031 0 0 0 12.64 2.661c4.9 0 8.552-1.661 8.552-5.065 0-3.072-2.823-4.9-9.631-6.725-9.714-2.657-16.689-6.892-16.689-15.444 0-7.722 5.646-13.617 15.444-15.195v-4.88a2.843 2.843 0 0 1 2.843-2.843h2.866a2.843 2.843 0 0 1 2.843 2.843v4.381a36.275 36.275 0 0 1 10.851 1.948 2.829 2.829 0 0 1 1.768 3.415l-1.14 4.2a2.835 2.835 0 0 1-3.742 1.915 29.6 29.6 0 0 0-10.643-1.932c-5.812 0-7.473 2.408-7.473 4.567 0 2.657 3.487 4.484 11.043 6.809 10.794 3.238 15.278 7.722 15.278 15.776 0 7.39-5.48 14.032-16.108 15.693v5.46a2.843 2.843 0 0 1-2.843 2.843h-2.867a2.843 2.843 0 0 1-2.844-2.84z" transform="translate(-951.453 -527.814)" style="fill:url(#couyks3a0h)"/>
                </g>
            </g>
            <g data-name="Group 14326">
                <g data-name="Group 14313">
                    <path data-name="Path 4694" d="m1789.479 564.453-46.839-4.153a3.7 3.7 0 0 1-3.368-3.66l-.173-31.581a3.7 3.7 0 0 1 3.951-3.706l49.875 3.471a3.7 3.7 0 0 1 3.424 4.013l-2.864 32.266a3.7 3.7 0 0 1-4.006 3.35z" transform="translate(-1533.142 -441.616)" style="fill:#7d97f4"/>
                    <path data-name="Path 4695" d="m1759.472 560.765-.31 27.267a2.285 2.285 0 0 0 2.059 2.3l44.913 4.461a2.285 2.285 0 0 0 2.5-2.072l2.588-29.156a2.285 2.285 0 0 0-2.152-2.484l-47.19-2.572a2.285 2.285 0 0 0-2.408 2.256z" transform="translate(-1550.769 -474.269)" style="opacity:.87;fill:#fff"/>
                    <path data-name="Path 4696" d="m1933.508 773.3 25.418 1.492a.463.463 0 0 1 .434.5l-.036.408a.463.463 0 0 1-.5.421l-25.382-1.9a.463.463 0 0 1-.426-.5.463.463 0 0 1 .492-.421z" transform="translate(-1703.513 -662.976)" style="fill:#7d97f4"/>
                    <path data-name="Path 4697" d="m1931.355 791.219-.016.174a.463.463 0 0 0 .42.5l25.35 2.25a.463.463 0 0 0 .5-.42l.015-.174a.463.463 0 0 0-.42-.5l-25.35-2.25a.463.463 0 0 0-.499.42z" transform="translate(-1702.037 -678.353)" style="fill:#7d97f4"/>
                    <path data-name="Path 4698" d="m1993.122 815.558-.007.076a.463.463 0 0 0 .42.5l17.656 1.567a.463.463 0 0 0 .5-.42l.032-.359a.463.463 0 0 0-.427-.5l-17.682-1.284a.462.462 0 0 0-.492.42z" transform="translate(-1756.311 -699.736)" style="fill:#7d97f4"/>
                </g>
                <g data-name="Group 14314">
                    <path data-name="Path 4699" d="m1671.156 444.548-55.276-1.125a4.344 4.344 0 0 1-4.244-4.024l-2.732-37.031a4.344 4.344 0 0 1 4.338-4.664l58.783.077a4.344 4.344 0 0 1 4.338 4.433l-.775 38.079a4.344 4.344 0 0 1-4.432 4.255z" transform="translate(-1418.746 -332.993)" style="fill:url(#2b9s90305b)"/>
                    <path data-name="Path 4700" d="m1637.5 437.773 1.82 32.01a2.687 2.687 0 0 0 2.6 2.533l53.041 1.635a2.687 2.687 0 0 0 2.769-2.631l.7-34.408a2.687 2.687 0 0 0-2.723-2.741l-55.562.762a2.687 2.687 0 0 0-2.645 2.84z" transform="translate(-1443.878 -365.033)" style="fill:url(#phaw8orwwe)"/>
                    <path data-name="Path 4701" d="m1855.025 677.859 29.935-.286a.544.544 0 0 1 .549.555l-.01.482a.544.544 0 0 1-.547.533l-29.926-.2a.544.544 0 0 1-.54-.555.544.544 0 0 1 .539-.529z" transform="translate(-1634.518 -578.878)" style="fill:url(#x4pqnimaui)"/>
                    <path data-name="Path 4702" d="M1854.035 701.116v.205a.544.544 0 0 0 .533.555l29.917.609a.544.544 0 0 0 .555-.533v-.205a.544.544 0 0 0-.533-.555l-29.917-.609a.544.544 0 0 0-.555.533z" transform="translate(-1634.118 -599.093)" style="fill:url(#dpea6b0fhj)"/>
                    <path data-name="Path 4703" d="M1928.382 724.725v.09a.544.544 0 0 0 .533.555l20.837.424a.544.544 0 0 0 .555-.533l.009-.424a.544.544 0 0 0-.542-.555l-20.844-.091a.544.544 0 0 0-.548.534z" transform="translate(-1699.439 -619.836)" style="fill:url(#w4ughbcyck)"/>
                </g>
                <g data-name="Group 14325" transform="translate(173.975 52.408)">
                    <path data-name="Path 4704" d="M1545.724 348.27H1484.4a4.818 4.818 0 0 1-4.8-4.366l-3.865-41a4.818 4.818 0 0 1 4.706-5.27l65.188-1.241a4.818 4.818 0 0 1 4.91 4.818v42.245a4.818 4.818 0 0 1-4.815 4.814z" transform="translate(-1475.718 -296.389)" style="fill:url(#b5s9dkk1fc)"/>
                    <path data-name="Path 4705" d="m1508.109 341.7 2.741 35.456a2.98 2.98 0 0 0 2.94 2.75l58.856.617a2.98 2.98 0 0 0 3.011-2.98v-38.174a2.98 2.98 0 0 0-3.081-2.978l-61.6 2.1a2.98 2.98 0 0 0-2.867 3.209z" transform="translate(-1504.168 -331.531)" style="fill:url(#couyks3a0h)"/>
                    <path data-name="Path 4706" d="m1762.7 370.256 33.19-.993a.6.6 0 0 1 .621.6v.534a.6.6 0 0 1-.6.6l-33.19.458a.6.6 0 0 1-.612-.6.6.6 0 0 1 .591-.599z" transform="translate(-1727.339 -360.414)" style="fill:#7d97f4"/>
                    <rect data-name="Rectangle 2645" width="34.397" height="1.435" rx=".717" transform="translate(34.777 12.624)" style="fill:#7d97f4"/>
                    <g data-name="Group 14315">
                        <path data-name="Path 4707" d="M1693.237 582.542a.271.271 0 0 1-.271-.27v-.812a.271.271 0 0 1 .27-.272.271.271 0 0 1 .271.27v.812a.271.271 0 0 1-.27.271zm-.007-2.708a.271.271 0 0 1-.271-.27v-.812a.271.271 0 0 1 .27-.271.271.271 0 0 1 .271.27v.812a.271.271 0 0 1-.27.271zm-.007-2.708a.271.271 0 0 1-.271-.27v-.812a.271.271 0 0 1 .27-.272.271.271 0 0 1 .271.27v.812a.271.271 0 0 1-.27.271zm-.007-2.708a.271.271 0 0 1-.271-.27v-.812a.271.271 0 0 1 .27-.271.271.271 0 0 1 .271.27v.812a.271.271 0 0 1-.27.271z" transform="translate(-1666.565 -539.467)" style="fill:#7d97f4"/>
                    </g>
                    <g data-name="Group 14316">
                        <path data-name="Path 4708" d="M1805.4 556.594a.271.271 0 0 1-.271-.271v-.812a.271.271 0 1 1 .542 0v.812a.271.271 0 0 1-.271.271zm0-2.708a.271.271 0 0 1-.271-.271v-.815a.271.271 0 0 1 .542 0v.812a.271.271 0 0 1-.271.275zm0-2.708a.271.271 0 0 1-.271-.271v-.807a.271.271 0 0 1 .542 0v.812a.271.271 0 0 1-.271.267zm0-2.708a.271.271 0 0 1-.271-.271v-.812a.271.271 0 1 1 .542 0v.812a.271.271 0 0 1-.271.272zm0-2.708a.271.271 0 0 1-.271-.271v-.812a.271.271 0 1 1 .542 0v.812a.271.271 0 0 1-.271.272z" transform="translate(-1765.132 -514.292)" style="fill:#7d97f4"/>
                    </g>
                    <g data-name="Group 14317">
                        <path data-name="Path 4709" d="M1887.074 538.263a.271.271 0 0 1-.27-.262l-.015-.485a.271.271 0 0 1 .262-.279.265.265 0 0 1 .279.262l.015.485a.271.271 0 0 1-.262.279zm-.074-2.379a.271.271 0 0 1-.271-.262l-.025-.812a.271.271 0 1 1 .541-.017l.025.812a.271.271 0 0 1-.262.279zm-.084-2.707a.271.271 0 0 1-.271-.262l-.025-.812a.271.271 0 1 1 .541-.017l.025.812a.271.271 0 0 1-.262.279zm-.084-2.707a.271.271 0 0 1-.271-.262l-.025-.812a.271.271 0 1 1 .541-.017l.025.812a.271.271 0 0 1-.262.279zm-.084-2.707a.271.271 0 0 1-.271-.262l-.025-.812a.271.271 0 0 1 .262-.279.264.264 0 0 1 .279.262l.025.812a.271.271 0 0 1-.262.279zm-.084-2.707a.271.271 0 0 1-.271-.262l-.025-.812a.271.271 0 0 1 .262-.279.268.268 0 0 1 .279.262l.025.812a.271.271 0 0 1-.262.279zm-.084-2.707a.271.271 0 0 1-.271-.262l-.025-.812a.271.271 0 0 1 .262-.279.267.267 0 0 1 .279.262l.025.812a.271.271 0 0 1-.262.279z" transform="translate(-1836.43 -493.723)" style="fill:#7d97f4"/>
                    </g>
                    <g data-name="Group 14318">
                        <path data-name="Path 4710" d="M1972.028 484.172a.271.271 0 0 1-.271-.271v-.812a.271.271 0 0 1 .542 0v.812a.271.271 0 0 1-.271.271zm0-2.708a.271.271 0 0 1-.271-.271v-.812a.271.271 0 0 1 .542 0v.812a.271.271 0 0 1-.271.271zm0-2.708a.271.271 0 0 1-.271-.271v-.812a.271.271 0 0 1 .542 0v.812a.271.271 0 0 1-.271.271zm0-2.708a.271.271 0 0 1-.271-.271v-.812a.271.271 0 0 1 .542 0v.812a.271.271 0 0 1-.271.271zm0-2.708a.271.271 0 0 1-.271-.271v-.812a.271.271 0 0 1 .542 0v.812a.271.271 0 0 1-.271.271zm0-2.708a.271.271 0 0 1-.271-.271v-.812a.271.271 0 0 1 .542 0v.812a.271.271 0 0 1-.271.272zm0-2.708a.271.271 0 0 1-.271-.271v-.812a.271.271 0 0 1 .542 0v.812a.271.271 0 0 1-.271.272zm0-2.708a.271.271 0 0 1-.271-.271v-.812a.271.271 0 0 1 .542 0v.812a.271.271 0 0 1-.271.272zm0-2.708a.271.271 0 0 1-.271-.271v-.812a.271.271 0 0 1 .542 0v.812a.271.271 0 0 1-.271.272z" transform="translate(-1911.523 -441.147)" style="fill:#7d97f4"/>
                    </g>
                    <g data-name="Group 14320">
                        <path data-name="Path 4711" d="M1552.45 433.96a.406.406 0 0 1-.4-.372l-2.776-32.783a.406.406 0 1 1 .809-.068l2.776 32.783a.406.406 0 0 1-.37.439z" transform="translate(-1540.337 -387.739)" style="fill:#7d97f4"/>
                        <g data-name="Group 14319">
                            <path data-name="Path 4712" d="m1541.721 398.742 1.256-1.489 1.489 1.257-.1-1.165-1.489-1.256-1.256 1.489z" transform="translate(-1533.62 -383.982)" style="fill:#7d97f4"/>
                        </g>
                    </g>
                    <g data-name="Group 14322">
                        <path data-name="Path 4713" d="M1612.308 658.424h-57.12a.406.406 0 1 1 0-.812h57.12a.406.406 0 1 1 0 .812z" transform="translate(-1545.18 -613.749)" style="fill:#7d97f4"/>
                        <g data-name="Group 14321">
                            <path data-name="Path 4714" d="m2015.2 652.369 1.378-1.377-1.378-1.377h1.169l1.377 1.377-1.377 1.377z" transform="translate(-1949.691 -606.723)" style="fill:#7d97f4"/>
                        </g>
                    </g>
                    <g data-name="Group 14323">
                        <path data-name="Path 4715" d="M1592.1 463.039a.406.406 0 0 1-.053-.809c.3-.04 30.207-4.135 46.579-16.207a.406.406 0 1 1 .482.654c-16.541 12.2-46.651 16.319-46.954 16.359a.409.409 0 0 1-.054.003z" transform="translate(-1577.614 -427.784)" style="fill:#7d97f4"/>
                    </g>
                    <g data-name="Group 14324">
                        <path data-name="Path 4716" d="M1960.143 445.529h-.032a.406.406 0 0 1-.373-.437l.126-1.6-2.249-.134a.406.406 0 0 1-.382-.429.4.4 0 0 1 .43-.381l2.663.158a.406.406 0 0 1 .381.437l-.158 2.008a.407.407 0 0 1-.406.378z" transform="translate(-1898.761 -424.801)" style="fill:#7d97f4"/>
                    </g>
                </g>
            </g>
            <g data-name="Group 14328">
                <path data-name="Path 4717" d="m241.745 415.04 32.427-17.323a3.809 3.809 0 0 1 5.058 1.4l27.508 45.734a2.809 2.809 0 0 1-1.039 3.9l-36.8 20.53a2.666 2.666 0 0 1-3.65-1.072l-25.28-47.319a4.323 4.323 0 0 1 1.776-5.85z" transform="translate(-215.602 -332.61)" style="fill:url(#m709r131al)"/>
                <path data-name="Path 4718" d="M440.188 920.147 436 922.315a2.927 2.927 0 0 1-3.913-1.216l-3.354-6.279a.12.12 0 0 1 .049-.162.122.122 0 0 1 .162.049l3.354 6.279a2.686 2.686 0 0 0 3.59 1.115l4.187-2.168a.12.12 0 0 1 .111.213z" transform="translate(-381.881 -787.163)" style="fill:#fff"/>
                <path data-name="Path 4719" d="M416.409 891.49a.12.12 0 0 1-.162-.05l-.543-1.017a.12.12 0 0 1 .049-.162.12.12 0 0 1 .162.05l.543 1.017a.12.12 0 0 1-.049.163z" transform="translate(-370.434 -765.726)" style="fill:#fff"/>
                <g data-name="Group 14327">
                    <path data-name="Path 4720" d="M251.515 424.886c4.749-1.765 20.968-8.042 33.042-15.734a1.161 1.161 0 0 1 1.619.377l27.737 45.881a1.336 1.336 0 0 1-.445 1.831c-5.128 3.142-26.287 16-34.5 19.343a1.059 1.059 0 0 1-1.329-.478l-26.789-49.444a1.256 1.256 0 0 1 .665-1.776z" transform="translate(-225.475 -342.889)" style="fill:#91b3fa"/>
                    <path data-name="Path 4721" d="M261.032 437.223c4.57-1.7 20.179-7.74 31.8-15.142a1.117 1.117 0 0 1 1.558.363l26.69 44.156a1.286 1.286 0 0 1-.428 1.762c-4.934 3.024-25.3 15.4-33.2 18.615a1.019 1.019 0 0 1-1.279-.46l-25.78-47.582a1.208 1.208 0 0 1 .639-1.712z" transform="translate(-233.864 -354.255)" style="fill:#bdd0fb"/>
                    <path data-name="Path 4722" d="M339.918 453.144a.408.408 0 0 0 .232-.544.482.482 0 0 0-.626-.09l-27.416 14.37c-.237.124-.23.312.016.418l.273.118a1.144 1.144 0 0 0 .874-.036z" transform="translate(-279.277 -381.081)" style="fill:url(#couyks3a0h)"/>
                    <path data-name="Path 4723" d="M320.1 481.837c-.237.124-.229.312.016.418l.273.118a1.144 1.144 0 0 0 .874-.036l26.646-14.237a.408.408 0 0 0 .232-.544.482.482 0 0 0-.626-.09z" transform="translate(-286.298 -394.221)" style="fill:url(#couyks3a0h)"/>
                    <path data-name="Path 4724" d="m379.488 665.828-.01.006-3.6 2.032a1.122 1.122 0 0 1-1.469-.255l-2.049-2.826a.764.764 0 0 1-.131-.588.917.917 0 0 1 .4-.593c.291-.195.686-.47 1.122-.774.949-.66 2.024-1.409 2.683-1.8l.015-.009a1.164 1.164 0 0 1 1.406.134 17.346 17.346 0 0 1 2.091 3.314 1.032 1.032 0 0 1-.458 1.359zm-6.678-1.944a.578.578 0 0 0-.253.372.429.429 0 0 0 .071.331l2.049 2.826a.786.786 0 0 0 1.03.16l3.6-2.032h.007a.7.7 0 0 0 .323-.906 17.265 17.265 0 0 0-2.033-3.236.835.835 0 0 0-1.01-.074c-.649.385-1.766 1.162-2.663 1.786-.437.3-.835.581-1.127.777z" transform="translate(-332.236 -564.183)" style="fill:#fff"/>
                    <path data-name="Path 4725" d="M379.8 670.747c.723-.486 2.264-1.6 3.035-2.053a.8.8 0 0 1 .971.079 14.061 14.061 0 0 1 1.647 2.617.688.688 0 0 1-.316.909l-2.88 1.624a.764.764 0 0 1-1-.166l-1.637-2.258a.537.537 0 0 1 .18-.752z" transform="translate(-338.67 -570.966)" style="fill:url(#couyks3a0h)"/>
                    <path data-name="Path 4726" d="M442.8 587.268a.346.346 0 0 0-.085.578l.821.829a.666.666 0 0 0 .763.1l17.795-10.26a.475.475 0 0 0 .169-.658l-.3-.489a.515.515 0 0 0-.678-.183z" transform="translate(-394.072 -490.628)" style="fill:url(#couyks3a0h)"/>
                    <path data-name="Path 4727" d="M384.607 655.439a.635.635 0 0 1 .878-.231l1.438.86a.2.2 0 0 0 .308-.2l-.5-4.915a.226.226 0 0 1 .423-.131 8.9 8.9 0 0 1 .85 6.657 4.837 4.837 0 0 1-3.206-1.174.666.666 0 0 1-.191-.866z" transform="translate(-343.049 -555.275)" style="fill:url(#k7nkmk2lym)"/>
                    <path data-name="Path 4728" d="m344.04 598.007-.01.006-3.6 2.032a1.121 1.121 0 0 1-1.469-.255l-2.049-2.826a.764.764 0 0 1-.131-.588.917.917 0 0 1 .4-.593c.291-.2.686-.471 1.122-.774.949-.66 2.024-1.409 2.683-1.8l.015-.009a1.164 1.164 0 0 1 1.406.134 17.353 17.353 0 0 1 2.091 3.314 1.033 1.033 0 0 1-.458 1.359zm-6.678-1.944a.579.579 0 0 0-.253.372.43.43 0 0 0 .072.331l2.049 2.826a.786.786 0 0 0 1.03.16l3.6-2.032h.007a.7.7 0 0 0 .323-.906 17.258 17.258 0 0 0-2.032-3.236.836.836 0 0 0-1.01-.074c-.649.385-1.765 1.162-2.663 1.786-.437.3-.835.581-1.127.777z" transform="translate(-301.092 -504.598)" style="fill:#fff"/>
                    <path data-name="Path 4729" d="M344.354 602.926c.723-.486 2.264-1.6 3.035-2.052a.8.8 0 0 1 .971.079 14.065 14.065 0 0 1 1.647 2.617.688.688 0 0 1-.316.909l-2.88 1.624a.764.764 0 0 1-1-.166l-1.637-2.258a.537.537 0 0 1 .18-.753z" transform="translate(-307.525 -511.381)" style="fill:url(#couyks3a0h)"/>
                    <path data-name="Path 4730" d="M407.35 519.447a.346.346 0 0 0-.085.578l.821.829a.667.667 0 0 0 .763.1l17.795-10.26a.474.474 0 0 0 .169-.658l-.3-.489a.515.515 0 0 0-.678-.183z" transform="translate(-362.928 -431.043)" style="fill:url(#couyks3a0h)"/>
                    <path data-name="Path 4731" d="M349.159 587.619a.635.635 0 0 1 .878-.231l1.438.86a.2.2 0 0 0 .308-.2l-.5-4.915a.226.226 0 0 1 .423-.131 8.9 8.9 0 0 1 .85 6.657 4.837 4.837 0 0 1-3.206-1.174.666.666 0 0 1-.191-.866z" transform="translate(-311.905 -495.69)" style="fill:url(#upte5qugcn)"/>
                    <path data-name="Path 4732" d="m415.965 729.091-.01.005-3.6 2.032a1.122 1.122 0 0 1-1.469-.255l-2.049-2.826a.764.764 0 0 1-.131-.588.918.918 0 0 1 .4-.593c.291-.195.686-.471 1.122-.774.949-.66 2.024-1.409 2.683-1.8l.015-.009a1.164 1.164 0 0 1 1.406.134 17.345 17.345 0 0 1 2.091 3.314 1.033 1.033 0 0 1-.458 1.36zm-6.678-1.944a.579.579 0 0 0-.253.372.429.429 0 0 0 .072.331l2.049 2.826a.786.786 0 0 0 1.03.159l3.6-2.032h.007a.7.7 0 0 0 .323-.906 17.255 17.255 0 0 0-2.032-3.236.84.84 0 0 0-1.01-.074c-.649.385-1.766 1.162-2.663 1.786-.437.3-.835.581-1.127.777z" transform="translate(-364.283 -619.764)" style="fill:#fff"/>
                    <path data-name="Path 4733" d="M416.279 734.011c.723-.486 2.264-1.6 3.035-2.053a.8.8 0 0 1 .971.079 14.071 14.071 0 0 1 1.647 2.617.688.688 0 0 1-.316.909l-2.88 1.624a.764.764 0 0 1-1-.166l-1.638-2.258a.537.537 0 0 1 .181-.752z" transform="translate(-370.717 -626.548)" style="fill:url(#couyks3a0h)"/>
                    <path data-name="Path 4734" d="M479.276 650.532a.346.346 0 0 0-.085.578l.821.829a.666.666 0 0 0 .763.1l17.795-10.26a.475.475 0 0 0 .169-.658l-.3-.489a.515.515 0 0 0-.678-.183z" transform="translate(-426.119 -546.21)" style="fill:url(#couyks3a0h)"/>
                    <path data-name="Path 4735" d="M421.083 718.7a.635.635 0 0 1 .878-.231l1.438.86a.2.2 0 0 0 .308-.2l-.5-4.915a.226.226 0 0 1 .423-.131 8.9 8.9 0 0 1 .85 6.657 4.839 4.839 0 0 1-3.206-1.174.666.666 0 0 1-.191-.866z" transform="translate(-375.096 -610.857)" style="fill:url(#ayy1iwdcjo)"/>
                    <path data-name="Path 4736" d="m448.229 791.462-.01.005-3.6 2.032a1.122 1.122 0 0 1-1.469-.255l-2.049-2.825a.765.765 0 0 1-.131-.588.918.918 0 0 1 .4-.593c.29-.195.686-.47 1.121-.773.9-.628 2.025-1.409 2.685-1.8a1.18 1.18 0 0 1 1.42.125 17.354 17.354 0 0 1 2.091 3.314 1.033 1.033 0 0 1-.458 1.358zm-6.678-1.945a.579.579 0 0 0-.253.372.429.429 0 0 0 .072.331l2.049 2.826a.785.785 0 0 0 1.029.16l3.6-2.032a.711.711 0 0 0 .33-.91 17.259 17.259 0 0 0-2.032-3.236.845.845 0 0 0-1.01-.074c-.649.385-1.766 1.163-2.664 1.787-.437.3-.834.58-1.126.776z" transform="translate(-392.63 -674.564)" style="fill:url(#couyks3a0h)"/>
                    <path data-name="Path 4737" d="M448.543 796.352c.723-.486 2.264-1.6 3.035-2.052a.8.8 0 0 1 .971.079A14.072 14.072 0 0 1 454.2 797a.688.688 0 0 1-.316.909L451 799.528a.764.764 0 0 1-1-.166l-1.637-2.258a.537.537 0 0 1 .18-.752z" transform="translate(-399.063 -681.319)" style="opacity:.6;fill:#fff"/>
                    <path data-name="Path 4738" d="M511.54 712.873a.346.346 0 0 0-.085.578l.821.829a.666.666 0 0 0 .763.1l17.795-10.26a.474.474 0 0 0 .169-.658l-.3-.49a.515.515 0 0 0-.678-.183z" transform="translate(-454.465 -600.98)" style="fill:url(#couyks3a0h)"/>
                    <path data-name="Path 4739" d="M453.348 781.044a.635.635 0 0 1 .878-.231l1.438.86a.2.2 0 0 0 .307-.2l-.5-4.915a.226.226 0 0 1 .423-.131 8.9 8.9 0 0 1 .85 6.657 4.837 4.837 0 0 1-3.206-1.174.666.666 0 0 1-.19-.866z" transform="translate(-403.443 -665.628)" style="fill:url(#rokxlegxjp)"/>
                    <path data-name="Path 4740" d="m481 856.041-.01.006-3.6 2.032a1.122 1.122 0 0 1-1.469-.255L473.864 855a.763.763 0 0 1-.131-.588.918.918 0 0 1 .4-.593c.291-.195.686-.471 1.122-.774.949-.66 2.024-1.408 2.683-1.8a1.177 1.177 0 0 1 1.421.125 17.343 17.343 0 0 1 2.091 3.314 1.032 1.032 0 0 1-.45 1.357zm-6.678-1.944a.578.578 0 0 0-.253.372.429.429 0 0 0 .072.331l2.049 2.826a.786.786 0 0 0 1.03.16l3.6-2.032h.007a.7.7 0 0 0 .323-.906 17.258 17.258 0 0 0-2.033-3.236.851.851 0 0 0-1.01-.074c-.649.385-1.766 1.162-2.663 1.787-.437.3-.835.581-1.127.777z" transform="translate(-421.418 -731.302)" style="fill:#fff"/>
                    <path data-name="Path 4741" d="M481.311 860.932c.723-.485 2.264-1.6 3.035-2.053a.8.8 0 0 1 .971.079 14.068 14.068 0 0 1 1.647 2.617.688.688 0 0 1-.316.909l-2.88 1.624a.764.764 0 0 1-1-.166l-1.637-2.258a.537.537 0 0 1 .18-.752z" transform="translate(-427.852 -738.057)" style="fill:url(#couyks3a0h)"/>
                    <path data-name="Path 4742" d="M544.307 777.453a.346.346 0 0 0-.085.578l.821.829a.666.666 0 0 0 .763.1L563.6 768.7a.474.474 0 0 0 .169-.658l-.3-.489a.515.515 0 0 0-.678-.183z" transform="translate(-483.254 -657.719)" style="fill:url(#couyks3a0h)"/>
                    <path data-name="Path 4743" d="M486.116 845.624a.635.635 0 0 1 .878-.231l1.438.86a.2.2 0 0 0 .308-.2l-.5-4.915a.226.226 0 0 1 .423-.131 8.9 8.9 0 0 1 .85 6.657 4.837 4.837 0 0 1-3.206-1.174.666.666 0 0 1-.191-.866z" transform="translate(-432.232 -722.366)" style="fill:url(#at0bkvv2wq)"/>
                </g>
                <path data-name="Path 4744" d="M353.4 410.4a3.735 3.735 0 0 0-3.22.966 1.621 1.621 0 0 0-.213 2.046l2.112 3.21 3.854-1.639s.613-4.216-2.533-4.583zm-.164 3.587a1.04 1.04 0 1 1 .427-1.408 1.04 1.04 0 0 1-.431 1.404z" transform="translate(-312.452 -344.111)" style="fill:url(#gqi7wdsmtr)"/>
                <path data-name="Path 4745" d="M355.882 417.918a.206.206 0 0 1-.2-.091l-.336-.511a.207.207 0 1 1 .345-.227l.336.511a.206.206 0 0 1-.059.286.2.2 0 0 1-.086.032zm-.659-1a.206.206 0 0 1-.2-.091l-.255-.388a1.654 1.654 0 0 1 .217-2.083 3.225 3.225 0 0 1 1.359-.8.209.209 0 0 1 .257.139.207.207 0 0 1-.139.257 2.815 2.815 0 0 0-1.187.7 1.239 1.239 0 0 0-.162 1.561l.255.388a.207.207 0 0 1-.144.318z" transform="translate(-316.669 -346.912)" style="fill:url(#couyks3a0h)"/>
                <path data-name="Path 4746" d="m329.976 434.887-.906-1.7a1.174 1.174 0 0 1 .518-1.607l11.912-5.849a1.142 1.142 0 0 1 1.476.428l.969 1.578z" transform="translate(-294.21 -357.518)" style="fill:url(#hmwfphp3ms)"/>
                <path data-name="Path 4747" d="M358.91 464.305a.12.12 0 0 1-.112-.212l.5-.269a.119.119 0 0 1 .162.049.12.12 0 0 1-.049.163l-.5.269z" transform="translate(-320.394 -391.071)" style="fill:url(#4kfxsxc6zt)"/>
                <path data-name="Path 4748" d="M335.05 470.952a.206.206 0 0 1-.211-.107l-.367-.686a1.2 1.2 0 0 1 .492-1.619l1.85-.988a.207.207 0 0 1 .195.365l-1.85.988a.784.784 0 0 0-.322 1.06l.367.686a.206.206 0 0 1-.153.3z" transform="translate(-298.955 -394.338)" style="fill:url(#couyks3a0h)"/>
                <path data-name="Path 4749" d="m299.838 432.427 20.456-10.927a1.714 1.714 0 0 1 2.16.458l.071.091a1.472 1.472 0 0 1-.467 2.2l-20.988 11.214a.957.957 0 0 1-1.316-.434l-.457-.964a1.25 1.25 0 0 1 .541-1.638z" transform="translate(-268.069 -353.721)" style="fill:url(#m3sw73t9wu)"/>
            </g>
            <g data-name="Group 14334">
                <g data-name="Group 14332">
                    <g data-name="Group 14329">
                        <path data-name="Path 4750" d="M1024.793 188.772s.055-.092.161-.258a.2.2 0 0 1 .364.048c.087-.024.186-.049.295-.076a.2.2 0 0 1 .1.394c-.307.074-.524.141-.628.173l-.061.018-.483.13zm.736-1.107c.194-.274.4-.551.607-.824a.2.2 0 0 1 .322.247c-.205.268-.406.541-.6.812a.2.2 0 0 1-.283.048.209.209 0 0 1-.041-.039.2.2 0 0 1-.005-.244zm.929.853a.2.2 0 0 1 .171-.23 10.156 10.156 0 0 1 1.031-.1.2.2 0 0 1 .018.405 9.76 9.76 0 0 0-.99.1.2.2 0 0 1-.23-.171zm2.023-.126a.2.2 0 0 1 .219-.186 6.777 6.777 0 0 1 1.032.163.2.2 0 1 1-.095.394 6.345 6.345 0 0 0-.97-.153.2.2 0 0 1-.186-.219zm-1.71-2.352c.218-.265.442-.527.664-.777a.2.2 0 0 1 .3.269c-.219.247-.439.5-.654.766a.2.2 0 0 1-.286.028.208.208 0 0 1-.03-.03.2.2 0 0 1 .006-.256zm3.687 2.769a.2.2 0 0 1 .269-.1 4.851 4.851 0 0 1 .659.363q.122.081.24.152a.2.2 0 0 1-.21.347q-.124-.075-.253-.16a4.449 4.449 0 0 0-.6-.333.2.2 0 0 1-.074-.058.2.2 0 0 1-.031-.211zm2.762 2.873a.2.2 0 0 1 .215-.047 1.5 1.5 0 0 1 .609-.041.2.2 0 1 1-.044.4.9.9 0 0 0-.654.127l-.258-.311zm-.985-1.9a.2.2 0 0 1 .264-.113 3.659 3.659 0 0 0 .925.246.2.2 0 0 1-.048.4 4.064 4.064 0 0 1-1.028-.272.2.2 0 0 1-.113-.264zm-4.107-5.269c.237-.247.48-.491.723-.724a.2.2 0 1 1 .281.293 23.9 23.9 0 0 0-.712.712.2.2 0 0 1-.287.006l-.018-.02a.2.2 0 0 1 .014-.269zm5.8 6.446c.272-.282.506-.529.694-.736a.2.2 0 1 1 .3.274c-.191.209-.427.459-.7.744a.2.2 0 0 1-.287 0l-.018-.019a.2.2 0 0 1 .014-.265zm.886 1a.2.2 0 0 1 .245-.15c.289.069.607.142.977.2a.2.2 0 0 1-.062.4c-.384-.06-.712-.134-1.01-.206a.2.2 0 0 1-.15-.245zm-.607-1.861a.2.2 0 0 1 .14-.25 2.534 2.534 0 0 0 .688-.324c.063-.04.115-.071.154-.09a.591.591 0 0 1 .057-.024.2.2 0 0 1 .251.129.209.209 0 0 1-.132.26c-.03.014-.068.039-.115.069a2.942 2.942 0 0 1-.793.371.2.2 0 0 1-.214-.069.2.2 0 0 1-.033-.07zm-4.6-7c.23-.2.465-.4.7-.583l.091-.072a.2.2 0 0 1 .285.033.2.2 0 0 1-.033.285l-.089.071c-.227.182-.457.374-.683.572a.2.2 0 0 1-.286-.019l-.006-.007a.2.2 0 0 1 .021-.278zm7.205 9.206a.2.2 0 0 1 .212-.194 9.7 9.7 0 0 0 .992-.009.2.2 0 1 1 .024.4 10.093 10.093 0 0 1-1.034.009.2.2 0 0 1-.194-.212zm2.023-.076a.2.2 0 0 1 .171-.231l.213-.033a6.721 6.721 0 0 0 .754-.169.2.2 0 0 1 .111.39 7.171 7.171 0 0 1-.8.179l-.219.035a.2.2 0 0 1-.231-.171zm-7.668-10.116a.2.2 0 0 1 .049-.283c.284-.2.572-.39.857-.565a.2.2 0 1 1 .212.345c-.278.171-.559.356-.836.551a.2.2 0 0 1-.275-.039zm9.627 9.612a.2.2 0 0 1 .1-.269 6.488 6.488 0 0 0 .86-.476.2.2 0 0 1 .223.339 6.931 6.931 0 0 1-.914.505.2.2 0 0 1-.269-.1zm-7.913-10.694a.2.2 0 0 1 .086-.274c.308-.161.621-.31.93-.442a.2.2 0 0 1 .16.373c-.3.128-.6.272-.9.429a.2.2 0 0 1-.252-.053.2.2 0 0 1-.023-.036zm9.654 9.351a7.145 7.145 0 0 0 .689-.7.2.2 0 0 1 .309.263 7.528 7.528 0 0 1-.729.745.2.2 0 0 1-.286-.017l-.007-.008a.2.2 0 0 1 .025-.286zm-7.8-10.175a.2.2 0 0 1 .129-.256c.33-.108.665-.2 1-.276a.2.2 0 1 1 .09.4c-.318.072-.64.161-.958.266a.2.2 0 0 1-.222-.066.209.209 0 0 1-.04-.074zm9.078 8.678a4.324 4.324 0 0 0 .426-.813l.065-.444a.2.2 0 1 1 .4.058l-.063.434a4.305 4.305 0 0 1-.483.983.2.2 0 0 1-.342-.218zm-7.111-9.161a.2.2 0 0 1 .177-.226 9.643 9.643 0 0 1 1.033-.068.2.2 0 0 1 0 .406 9.181 9.181 0 0 0-.989.065.2.2 0 0 1-.225-.177zm2.023-.067a.2.2 0 0 1 .222-.182 9.6 9.6 0 0 1 1.023.158.2.2 0 0 1-.084.4 9.135 9.135 0 0 0-.979-.152.2.2 0 0 1-.182-.222zm5.724 6.968.146-1a.2.2 0 0 1 .4.058l-.146 1a.2.2 0 0 1-.4-.058zm-3.735-6.594a.2.2 0 0 1 .255-.131c.32.1.645.226.966.365a.2.2 0 0 1-.161.372 10.777 10.777 0 0 0-.929-.351.2.2 0 0 1-.131-.255zm4.027 4.586.146-1a.2.2 0 1 1 .4.058l-.146 1a.2.2 0 0 1-.4-.058zm-2.154-3.819a.2.2 0 0 1 .275-.082c.294.159.592.336.884.526a.2.2 0 0 1-.221.34 12.613 12.613 0 0 0-.857-.51.2.2 0 0 1-.062-.051.2.2 0 0 1-.021-.227zm1.716 1.075a.2.2 0 0 1 .284-.04c.26.2.523.407.781.627l.085.073-.02.135a.2.2 0 0 1-.387.051c-.233-.2-.469-.386-.7-.562a.2.2 0 0 1-.036-.035.2.2 0 0 1-.01-.253z" transform="translate(-905.349 -141.221)" style="fill:#7d97f4"/>
                    </g>
                    <path data-name="Path 4751" d="M1098.541 207.174s-2.075 3.988-5.166 2.781-5.911-3.193-7.345-2.573c0 0 5.464-6.886 12.565-1.793z" transform="translate(-959.374 -162.558)" style="fill:url(#446s4wiciv)"/>
                    <path data-name="Path 4752" d="M1153.065 263.592s-.537 4.381-1.931 4.925c-1.325.518-11.277-.378-12.245-.466a.082.082 0 0 1-.075-.084 1.131 1.131 0 0 1 .475-.908c1.423-1.012 5.7-4 7.281-4.485 1.912-.589 6.495 1.018 6.495 1.018z" transform="translate(-1005.749 -214.158)" style="fill:#7d97f4"/>
                    <path data-name="Path 4753" d="M1168.733 283.071a.1.1 0 0 0 .072.038c.055 0 5.514.4 7.87.479a1.06 1.06 0 0 0 .99-.6 15.773 15.773 0 0 0 1.107-3.009.1.1 0 0 0-.2-.047 15.545 15.545 0 0 1-1.092 2.967.857.857 0 0 1-.8.483c-2.352-.079-7.807-.474-7.862-.479a.1.1 0 0 0-.087.165z" transform="translate(-1032.016 -229.456)" style="fill:#91b3fa"/>
                    <path data-name="Path 4754" d="M1155.01 149.875s-.424-4.393-1.8-4.973c-1.312-.552-11.284.086-12.253.149a.082.082 0 0 0-.077.082 1.13 1.13 0 0 0 .452.92c1.4 1.048 5.594 4.143 7.163 4.672 1.892.638 6.515-.85 6.515-.85z" transform="translate(-1007.562 -110.692)" style="fill:#7d97f4"/>
                    <path data-name="Path 4755" d="M1170.732 148.673a.1.1 0 0 0 .084.038c.055 0 5.518-.257 7.872-.275a.857.857 0 0 1 .788.5 15.574 15.574 0 0 1 1.015 2.995.1.1 0 1 0 .2-.042 15.481 15.481 0 0 0-1.028-3.036 1.061 1.061 0 0 0-.975-.623c-2.358.018-7.825.273-7.88.275a.1.1 0 0 0-.074.165z" transform="translate(-1033.772 -113.815)" style="fill:#91b3fa"/>
                    <path data-name="Path 4756" d="M1205.226 190.74a22.8 22.8 0 0 1-7.041 1.042 64.9 64.9 0 0 1-15.839-2.018.866.866 0 0 1-.611-.639 15.258 15.258 0 0 1 .038-7.281 1.257 1.257 0 0 1 .931-.918 65.533 65.533 0 0 1 15.642-1.548 22.8 22.8 0 0 1 6.965 1.208 21.444 21.444 0 0 1-.085 10.154z" transform="translate(-1043.088 -141.17)" style="fill:url(#ovxefvlvgw)"/>
                    <path data-name="Path 4757" d="M1378.324 189.388a23.655 23.655 0 0 1 8.328 4.878.425.425 0 0 1-.008.629 23.654 23.654 0 0 1-8.405 4.647 21.446 21.446 0 0 0 .085-10.154z" transform="translate(-1216.101 -149.973)" style="fill:url(#fml3wf0e8x)"/>
                    <g data-name="Group 14330">
                        <path data-name="Path 4758" d="M1297.691 196.8a4.119 4.119 0 1 0 3.775 4.158 3.977 3.977 0 0 0-3.775-4.158z" transform="translate(-1141.923 -156.481)" style="fill:#bdd0fb"/>
                        <path data-name="Path 4759" d="M1304.2 202.737a3.282 3.282 0 1 0 3.008 3.313 3.169 3.169 0 0 0-3.008-3.313z" transform="translate(-1148.337 -161.701)" style="fill:url(#6o2h3py7iy)"/>
                        <path data-name="Path 4760" d="M1330.5 224.74a.1.1 0 0 0 .108.034 2.561 2.561 0 0 0 1.792-2.434 2.659 2.659 0 0 0-.121-.832.1.1 0 0 0-.194.061 2.463 2.463 0 0 1 .112.769 2.356 2.356 0 0 1-1.645 2.242.1.1 0 0 0-.069.126.1.1 0 0 0 .017.034z" transform="translate(-1174.14 -178.129)" style="fill:#91b3fa"/>
                    </g>
                    <g data-name="Group 14331">
                        <path data-name="Path 4761" d="M1243.714 207.461a2.721 2.721 0 1 0 2.494 2.747 2.627 2.627 0 0 0-2.494-2.747z" transform="translate(-1095.659 -165.85)" style="fill:#bdd0fb"/>
                        <path data-name="Path 4762" d="M1248.017 211.386a2.168 2.168 0 1 0 1.987 2.189 2.093 2.093 0 0 0-1.987-2.189z" transform="translate(-1099.896 -169.299)" style="fill:url(#o2ilsnsdhz)"/>
                        <path data-name="Path 4763" d="M1265.113 225.693a.1.1 0 0 0 .108.034 1.726 1.726 0 0 0 1.208-1.641 1.784 1.784 0 0 0-.082-.561.1.1 0 1 0-.193.061 1.583 1.583 0 0 1 .072.5 1.522 1.522 0 0 1-1.062 1.449.1.1 0 0 0-.069.126.1.1 0 0 0 .018.032z" transform="translate(-1116.693 -179.902)" style="fill:#91b3fa"/>
                    </g>
                </g>
                <g data-name="Group 14333">
                    <path data-name="Path 4764" d="m992.477 251.781-1.331.326a.232.232 0 1 1-.11-.451h.015l1.3-.323h.016a.235.235 0 1 1 .113.455z" transform="translate(-875.76 -204.383)" style="fill:#7d97f4"/>
                    <path data-name="Path 4765" d="m970.456 256.426-1.36.147a.227.227 0 1 1-.049-.452h.013l1.331-.149h.014a.23.23 0 1 1 .051.456z" transform="translate(-856.419 -208.468)" style="fill:#7d97f4"/>
                    <path data-name="Path 4766" d="m948.2 258.2-1.365-.01a.222.222 0 0 1 0-.444h.011l1.341.005h.012a.225.225 0 1 1 0 .449z" transform="translate(-836.893 -210.028)" style="fill:#7d97f4"/>
                    <path data-name="Path 4767" d="m926 256.578-1.356-.143a.217.217 0 0 1 .046-.432h.009l1.337.136h.01a.22.22 0 1 1-.045.437z" transform="translate(-817.417 -208.497)" style="fill:#7d97f4"/>
                    <path data-name="Path 4768" d="m904.021 253.033-1.338-.254a.212.212 0 1 1 .079-.417h.007l1.323.246h.008a.215.215 0 1 1-.078.422z" transform="translate(-798.14 -205.296)" style="fill:#7d97f4"/>
                    <path data-name="Path 4769" d="m882.364 247.882-1.316-.346a.207.207 0 1 1 .105-.4h.006l1.3.338h.007a.21.21 0 1 1-.105.406z" transform="translate(-779.148 -200.701)" style="fill:#7d97f4"/>
                    <path data-name="Path 4770" d="m861.074 241.391-1.292-.423a.2.2 0 0 1 .126-.385l1.292.417h.005a.2.2 0 0 1-.126.39z" transform="translate(-760.478 -194.943)" style="fill:#7d97f4"/>
                    <path data-name="Path 4771" d="m840.162 233.772-1.268-.488a.2.2 0 1 1 .142-.369l1.261.48a.2.2 0 1 1-.142.374z" transform="translate(-742.137 -188.203)" style="fill:#7d97f4"/>
                    <path data-name="Path 4772" d="m819.625 225.192-1.245-.543a.192.192 0 0 1 .154-.353l1.239.535a.195.195 0 0 1-.155.358z" transform="translate(-724.125 -180.627)" style="fill:#7d97f4"/>
                    <path data-name="Path 4773" d="m799.451 215.785-1.222-.591a.188.188 0 0 1 .163-.338l1.218.584a.19.19 0 1 1-.164.343z" transform="translate(-706.429 -172.332)" style="fill:#7d97f4"/>
                    <path data-name="Path 4774" d="m779.627 205.658-1.2-.633a.183.183 0 1 1 .17-.323l1.2.626a.185.185 0 0 1-.171.328z" transform="translate(-689.037 -163.409)" style="fill:#7d97f4"/>
                    <path data-name="Path 4775" d="m760.135 194.9-1.181-.67a.178.178 0 0 1 .175-.309l1.178.663a.18.18 0 0 1-.177.314z" transform="translate(-671.937 -153.932)" style="fill:#7d97f4"/>
                    <path data-name="Path 4776" d="m740.943 183.551-1.162-.7a.175.175 0 1 1 .181-.3l1.159.7a.176.176 0 0 1-.181.3z" transform="translate(-655.097 -143.942)" style="fill:#7d97f4"/>
                    <path data-name="Path 4777" d="m722.051 171.689-1.143-.732a.174.174 0 0 1 .187-.293l1.14.728a.174.174 0 0 1-.188.294z" transform="translate(-638.519 -133.498)" style="fill:#7d97f4"/>
                    <path data-name="Path 4778" d="m703.461 159.361-1.125-.759a.172.172 0 1 1 .193-.286l1.122.756a.173.173 0 0 1-.193.287z" transform="translate(-622.206 -122.647)" style="fill:#7d97f4"/>
                    <path data-name="Path 4779" d="m685.174 146.6-1.106-.784a.171.171 0 1 1 .2-.279l1.1.781a.172.172 0 1 1-.2.28z" transform="translate(-606.16 -111.422)" style="fill:#7d97f4"/>
                    <path data-name="Path 4780" d="m666.414 134.55-1.155-.685-.009-.006a.17.17 0 0 1 .173-.292l1.175.695a.17.17 0 0 1-.173.293z" transform="translate(-589.617 -100.909)" style="fill:#7d97f4"/>
                    <path data-name="Path 4781" d="m646.348 124.935-1.233-.533h-.01a.168.168 0 0 1 .133-.309l1.253.541a.169.169 0 0 1-.134.31z" transform="translate(-571.903 -92.59)" style="fill:#7d97f4"/>
                    <path data-name="Path 4782" d="m625.226 117.944-1.291-.373h-.01a.167.167 0 0 1 .093-.321l1.311.377a.168.168 0 1 1-.093.322z" transform="translate(-553.278 -86.586)" style="fill:#7d97f4"/>
                    <path data-name="Path 4783" d="m603.388 113.685-1.327-.206h-.01a.166.166 0 0 1 .051-.327l1.348.208a.166.166 0 0 1-.051.329z" transform="translate(-534.041 -82.99)" style="fill:#7d97f4"/>
                    <path data-name="Path 4784" d="m581.186 112.223-1.343-.037h-.01a.164.164 0 0 1 .009-.328l1.364.036a.165.165 0 1 1-.009.33h-.011z" transform="translate(-514.505 -81.857)" style="fill:#7d97f4"/>
                    <path data-name="Path 4785" d="m558.977 112.595-1.337.134h-.01a.163.163 0 0 1-.033-.324l1.357-.137a.164.164 0 0 1 .033.326h-.011z" transform="translate(-494.981 -82.216)" style="fill:#7d97f4"/>
                    <path data-name="Path 4786" d="m537.119 115.527-1.309.3h-.01a.162.162 0 0 1-.073-.315l1.329-.308a.162.162 0 1 1 .073.316z" transform="translate(-475.785 -84.797)" style="fill:#7d97f4"/>
                    <path data-name="Path 4787" d="m515.964 121.24-1.26.466h-.01a.16.16 0 0 1-.111-.3l1.279-.475a.161.161 0 0 1 .112.3z" transform="translate(-457.227 -89.822)" style="fill:#7d97f4"/>
                    <path data-name="Path 4788" d="m495.906 129.642-1.183.633-.01.005a.159.159 0 0 1-.15-.28l1.2-.646a.16.16 0 1 1 .151.281z" transform="translate(-439.656 -97.213)" style="fill:#7d97f4"/>
                    <path data-name="Path 4789" d="m477.4 140.856-1.087.789-.008.006a.157.157 0 0 1-.185-.255l1.1-.8a.158.158 0 1 1 .186.256z" transform="translate(-423.47 -107.077)" style="fill:#7d97f4"/>
                    <path data-name="Path 4790" d="m460.576 154.507-.984.916-.007.006a.156.156 0 1 1-.213-.229l1-.929a.157.157 0 1 1 .214.229z" transform="translate(-408.769 -119.083)" style="fill:#7d97f4"/>
                    <path data-name="Path 4791" d="m445.548 170.153-.873 1.023-.006.007a.155.155 0 0 1-.236-.2l.884-1.037a.155.155 0 1 1 .237.2z" transform="translate(-395.655 -132.842)" style="fill:#7d97f4"/>
                    <path data-name="Path 4792" d="m432.5 187.514-.75 1.117-.005.008a.154.154 0 0 1-.255-.171l.759-1.132a.154.154 0 0 1 .256.172z" transform="translate(-384.292 -148.108)" style="fill:#7d97f4"/>
                    <path data-name="Path 4793" d="m421.7 206.38-.608 1.2v.009a.152.152 0 0 1-.271-.137l.615-1.217a.153.153 0 0 1 .273.138z" transform="translate(-374.92 -164.698)" style="fill:#7d97f4"/>
                    <path data-name="Path 4794" d="m413.52 226.57-.441 1.269v.01a.151.151 0 0 1-.285-.1l.446-1.29a.151.151 0 0 1 .286.1z" transform="translate(-367.879 -182.454)" style="fill:#7d97f4"/>
                    <path data-name="Path 4795" d="m408.469 247.869-.242 1.32v.012a.149.149 0 0 1-.294-.054l.245-1.344a.15.15 0 0 1 .3.054z" transform="translate(-363.616 -201.186)" style="fill:#7d97f4"/>
                    <path data-name="Path 4796" d="m407.122 269.911-.008 1.34v.014a.148.148 0 0 1-.3 0l.007-1.367a.149.149 0 0 1 .3 0z" transform="translate(-362.64 -220.574)" style="fill:#7d97f4"/>
                    <path data-name="Path 4797" d="m408.1 292.135.251 1.315v.015a.147.147 0 0 1-.288.055l-.258-1.344a.147.147 0 1 1 .289-.055z" transform="translate(-363.51 -240.125)" style="fill:#7d97f4"/>
                    <path data-name="Path 4798" d="m413.388 313.745.512 1.237.006.014a.145.145 0 0 1-.268.111l-.525-1.264a.146.146 0 1 1 .27-.112z" transform="translate(-368.16 -259.138)" style="fill:#7d97f4"/>
                    <path data-name="Path 4799" d="M423.132 333.779a6.82 6.82 0 0 0 .843 1.022.144.144 0 0 1-.2.2 7.111 7.111 0 0 1-.88-1.064.145.145 0 0 1 .24-.163z" transform="translate(-376.74 -276.774)" style="fill:#7d97f4"/>
                    <path data-name="Path 4800" d="M438.911 349.268a5.7 5.7 0 0 0 1.19.567.143.143 0 0 1-.092.27 5.988 5.988 0 0 1-1.251-.594.143.143 0 1 1 .152-.243z" transform="translate(-390.643 -290.419)" style="fill:#7d97f4"/>
                    <path data-name="Path 4801" d="M459.786 356.355a6.268 6.268 0 0 0 1.322-.006.141.141 0 0 1 .031.281 6.568 6.568 0 0 1-1.382.008.142.142 0 0 1 .029-.283z" transform="translate(-409.038 -296.659)" style="fill:#7d97f4"/>
                    <path data-name="Path 4802" d="M481.766 350.3a7.361 7.361 0 0 0 1.225-.51.14.14 0 0 1 .131.248 7.65 7.65 0 0 1-1.271.531.141.141 0 0 1-.084-.269z" transform="translate(-428.4 -290.883)" style="fill:#7d97f4"/>
                    <path data-name="Path 4803" d="M501.384 337.2a7.994 7.994 0 0 0 .982-.9.139.139 0 0 1 .2.189 8.272 8.272 0 0 1-1.015.928.139.139 0 0 1-.17-.221z" transform="translate(-445.674 -279.007)" style="fill:#7d97f4"/>
                    <path data-name="Path 4804" d="m516.437 318.968.337-.575a6.6 6.6 0 0 0 .308-.592v-.008a.137.137 0 0 1 .245.123 6.822 6.822 0 0 1-.316.61l-.348.594a.138.138 0 0 1-.238-.139z" transform="translate(-458.924 -262.72)" style="fill:#7d97f4"/>
                    <path data-name="Path 4805" d="M525.732 297.8a7.577 7.577 0 0 0 .252-1.306.136.136 0 0 1 .271.027 7.843 7.843 0 0 1-.26 1.353.137.137 0 0 1-.263-.075z" transform="translate(-467.109 -243.962)" style="fill:#7d97f4"/>
                    <path data-name="Path 4806" d="M526.1 275.786a6.835 6.835 0 0 0-.246-1.3.135.135 0 0 1 .259-.076 7.1 7.1 0 0 1 .257 1.354.135.135 0 0 1-.27.025z" transform="translate(-467.216 -224.583)" style="fill:#7d97f4"/>
                    <path data-name="Path 4807" d="M516.581 255.868a7.77 7.77 0 0 0-.7-1.128.133.133 0 0 1 .214-.16 8.03 8.03 0 0 1 .728 1.166.134.134 0 0 1-.239.122z" transform="translate(-458.433 -207.202)" style="fill:#7d97f4"/>
                    <path data-name="Path 4808" d="M501.084 240.064a9.607 9.607 0 0 0-1.017-.864.132.132 0 0 1 .156-.213 9.864 9.864 0 0 1 1.047.886.133.133 0 0 1-.185.19z" transform="translate(-444.518 -193.527)" style="fill:#7d97f4"/>
                    <path data-name="Path 4809" d="M481.9 228.965a11.353 11.353 0 0 0-1.205-.58.131.131 0 0 1 .1-.242 11.629 11.629 0 0 1 1.234.592.131.131 0 1 1-.128.229z" transform="translate(-427.472 -184.013)" style="fill:#7d97f4"/>
                    <path data-name="Path 4810" d="M460.6 222.428c-.428-.125-.871-.205-1.306-.311h-.01a.133.133 0 1 1 .062-.258c.442.108.887.195 1.325.321a.13.13 0 0 1-.07.25z" transform="translate(-408.646 -178.495)" style="fill:#7d97f4"/>
                    <path data-name="Path 4811" d="m438.508 219.283-1.339-.129h-.009a.14.14 0 1 1 .027-.279l1.356.138a.136.136 0 0 1-.027.271z" transform="translate(-389.186 -175.878)" style="fill:#7d97f4"/>
                    <path data-name="Path 4812" d="m416.188 218.722-1.345.033h-.008a.148.148 0 0 1-.007-.3l1.362-.026a.144.144 0 0 1 .006.288z" transform="translate(-369.55 -175.491)" style="fill:#7d97f4"/>
                    <path data-name="Path 4813" d="m393.972 219.783-1.333.182h-.008a.155.155 0 1 1-.042-.307l1.351-.176a.151.151 0 0 1 .04.3z" transform="translate(-350.02 -176.411)" style="fill:#7d97f4"/>
                    <path data-name="Path 4814" d="m372.117 223.268-1.306.322h-.008a.163.163 0 1 1-.078-.316l1.325-.319a.159.159 0 0 1 .075.309z" transform="translate(-330.82 -179.461)" style="fill:#7d97f4"/>
                    <path data-name="Path 4815" d="m350.87 229.063-1.264.46h-.009a.17.17 0 0 1-.116-.32l1.284-.459a.166.166 0 0 1 .113.313z" transform="translate(-312.167 -184.544)" style="fill:#7d97f4"/>
                    <path data-name="Path 4816" d="m330.513 237.143-1.2.6h-.009a.178.178 0 1 1-.158-.318l1.225-.6a.174.174 0 0 1 .154.312z" transform="translate(-294.31 -191.636)" style="fill:#7d97f4"/>
                    <path data-name="Path 4817" d="m311.418 247.56-1.119.741-.009.006a.185.185 0 0 1-.2-.309l1.141-.746a.181.181 0 0 1 .2.3z" transform="translate(-277.58 -200.783)" style="fill:#7d97f4"/>
                    <path data-name="Path 4818" d="m293.736 260.259-1.037.856-.007.006a.193.193 0 1 1-.245-.3l1.056-.862a.189.189 0 0 1 .24.292z" transform="translate(-262.095 -211.939)" style="fill:#7d97f4"/>
                    <path data-name="Path 4819" d="m277.355 274.728-.961.942-.005.005a.2.2 0 1 1-.28-.286l.977-.947a.2.2 0 0 1 .274.281z" transform="translate(-247.749 -224.649)" style="fill:#7d97f4"/>
                    <path data-name="Path 4820" d="m262.153 290.522-.892 1.009v.005a.207.207 0 1 1-.311-.275l.907-1.014a.2.2 0 0 1 .3.271z" transform="translate(-234.434 -238.524)" style="fill:#7d97f4"/>
                    <path data-name="Path 4821" d="m248.034 307.361-.829 1.063a.214.214 0 0 1-.338-.264l.842-1.068a.211.211 0 0 1 .332.26z" transform="translate(-222.068 -253.317)" style="fill:#7d97f4"/>
                    <path data-name="Path 4822" d="m234.925 325.042-.769 1.107a.222.222 0 1 1-.364-.253l.781-1.113a.218.218 0 0 1 .357.25z" transform="translate(-210.587 -268.849)" style="fill:#7d97f4"/>
                    <path data-name="Path 4823" d="m222.784 343.431-.711 1.146a.229.229 0 0 1-.388-.241l.723-1.152a.225.225 0 0 1 .382.238z" transform="translate(-199.954 -285.004)" style="fill:#7d97f4"/>
                    <path data-name="Path 4824" d="m211.6 362.436-.653 1.18v.005a.236.236 0 1 1-.412-.228l.665-1.186a.232.232 0 0 1 .406.226z" transform="translate(-190.159 -301.7)" style="fill:#7d97f4"/>
                    <path data-name="Path 4825" d="m201.376 381.993-.594 1.211v.005a.243.243 0 0 1-.436-.214l.605-1.218a.239.239 0 0 1 .429.212z" transform="translate(-181.216 -318.882)" style="fill:#7d97f4"/>
                    <path data-name="Path 4826" d="m192.179 402.059-.53 1.239v.006a.25.25 0 0 1-.459-.2l.542-1.249a.246.246 0 0 1 .452.195z" transform="translate(-173.175 -336.512)" style="fill:#7d97f4"/>
                    <path data-name="Path 4827" d="m184.106 422.6-.46 1.266v.007a.257.257 0 1 1-.483-.175l.471-1.278a.253.253 0 0 1 .476.174z" transform="translate(-166.128 -354.562)" style="fill:#7d97f4"/>
                    <path data-name="Path 4828" d="m177.325 443.6-.377 1.292v.009a.264.264 0 0 1-.507-.148l.389-1.307a.26.26 0 0 1 .5.147z" transform="translate(-160.226 -373.015)" style="fill:#7d97f4"/>
                    <path data-name="Path 4829" d="m172.127 465.029-.275 1.314v.009a.271.271 0 0 1-.53-.109c.091-.446.191-.89.286-1.336a.267.267 0 0 1 .523.112z" transform="translate(-155.733 -391.849)" style="fill:#7d97f4"/>
                    <path data-name="Path 4830" d="m168.919 486.892-.158 1.332v.013a.268.268 0 0 1-.532-.062l.158-1.358a.269.269 0 0 1 .535.062z" transform="translate(-153.019 -411.075)" style="fill:#7d97f4"/>
                    <path data-name="Path 4831" d="m167.88 509.088-.022 1.34v.014a.265.265 0 0 1-.53-.008l.02-1.369a.267.267 0 1 1 .533.008z" transform="translate(-152.23 -430.601)" style="fill:#7d97f4"/>
                    <path data-name="Path 4832" d="m168.284 531.375.123 1.334v.015a.263.263 0 0 1-.523.049l-.129-1.363a.264.264 0 1 1 .525-.05z" transform="translate(-152.607 -450.209)" style="fill:#7d97f4"/>
                    <path data-name="Path 4833" d="m171 553.493.274 1.31v.015a.26.26 0 0 1-.509.107l-.283-1.339a.261.261 0 1 1 .511-.108z" transform="translate(-154.996 -469.669)" style="fill:#7d97f4"/>
                    <path data-name="Path 4834" d="m176.208 575.145.422 1.271v.014a.257.257 0 0 1-.488.163l-.434-1.3a.259.259 0 0 1 .49-.164z" transform="translate(-159.586 -488.72)" style="fill:#7d97f4"/>
                    <path data-name="Path 4835" d="m183.855 596.081.561 1.217.006.012a.255.255 0 0 1-.462.214l-.575-1.241a.256.256 0 0 1 .464-.215z" transform="translate(-166.317 -507.139)" style="fill:#7d97f4"/>
                    <path data-name="Path 4836" d="m193.744 616.061.685 1.153.006.011a.252.252 0 0 1-.433.258l-.7-1.174a.253.253 0 1 1 .435-.259z" transform="translate(-175.02 -524.716)" style="fill:#7d97f4"/>
                    <path data-name="Path 4837" d="m205.61 634.94.791 1.084.007.009a.249.249 0 0 1-.4.294l-.807-1.1a.251.251 0 1 1 .4-.3z" transform="translate(-185.461 -541.323)" style="fill:#7d97f4"/>
                    <path data-name="Path 4838" d="m219.161 652.655.881 1.015.006.007a.246.246 0 0 1-.372.323l-.9-1.028a.248.248 0 1 1 .374-.326z" transform="translate(-197.382 -556.904)" style="fill:#7d97f4"/>
                    <path data-name="Path 4839" d="m234.116 669.209.954.947.006.006a.244.244 0 0 1-.343.346l-.968-.957a.245.245 0 0 1 .345-.349z" transform="translate(-210.536 -571.461)" style="fill:#7d97f4"/>
                    <path data-name="Path 4840" d="m250.211 684.639 1.015.884h.005a.241.241 0 0 1-.317.364l-1.027-.887a.243.243 0 0 1 .318-.366z" transform="translate(-224.691 -585.028)" style="fill:#7d97f4"/>
                    <path data-name="Path 4841" d="m267.251 699.035 1.064.826a.239.239 0 0 1-.292.377l-1.076-.832a.24.24 0 1 1 .293-.38z" transform="translate(-239.676 -597.685)" style="fill:#7d97f4"/>
                    <path data-name="Path 4842" d="m285.063 712.477 1.105.773a.236.236 0 0 1-.27.387l-1.116-.777a.237.237 0 1 1 .271-.389z" transform="translate(-255.337 -609.503)" style="fill:#7d97f4"/>
                    <path data-name="Path 4843" d="m303.506 725.084 1.13.747a.233.233 0 1 1-.256.39l-1.133-.745a.235.235 0 0 1 .258-.392z" transform="translate(-271.553 -620.585)" style="fill:#7d97f4"/>
                    <path data-name="Path 4844" d="m322.175 737.362 1.134.741a.231.231 0 0 1-.252.386l-1.135-.739a.232.232 0 0 1 .253-.389z" transform="translate(-287.959 -631.373)" style="fill:#7d97f4"/>
                    <path data-name="Path 4845" d="m340.88 749.561 1.133.741a.228.228 0 0 1-.249.381l-1.134-.739a.229.229 0 0 1 .25-.384z" transform="translate(-304.397 -642.091)" style="fill:#7d97f4"/>
                    <path data-name="Path 4846" d="m359.555 761.787 1.129.748a.225.225 0 1 1-.249.375l-1.129-.745a.227.227 0 1 1 .248-.379z" transform="translate(-320.807 -652.832)" style="fill:#7d97f4"/>
                    <path data-name="Path 4847" d="m378.133 774.145 1.12.761a.222.222 0 0 1-.25.368l-1.119-.757a.224.224 0 0 1 .251-.371z" transform="translate(-337.131 -663.689)" style="fill:#7d97f4"/>
                    <path data-name="Path 4848" d="m396.554 786.745 1.109.781a.22.22 0 0 1-.253.359l-1.107-.776a.221.221 0 1 1 .254-.362z" transform="translate(-353.316 -674.757)" style="fill:#7d97f4"/>
                    <path data-name="Path 4849" d="m414.74 799.683 1.09.806a.217.217 0 0 1-.258.349l-1.087-.8a.218.218 0 1 1 .259-.352z" transform="translate(-369.294 -686.122)" style="fill:#7d97f4"/>
                    <path data-name="Path 4850" d="m432.608 813.052 1.068.837a.214.214 0 0 1-.264.338l-1.065-.831a.216.216 0 0 1 .265-.34z" transform="translate(-384.991 -697.865)" style="fill:#7d97f4"/>
                    <path data-name="Path 4851" d="m450.113 826.922 1.047.861a.212.212 0 1 1-.269.327l-1.045-.855a.213.213 0 1 1 .27-.33z" transform="translate(-400.371 -710.049)" style="fill:#7d97f4"/>
                    <path data-name="Path 4852" d="m467.271 841.2 1.023.892a.209.209 0 0 1-.275.315l-1.02-.885a.21.21 0 0 1 .276-.318z" transform="translate(-415.445 -722.586)" style="fill:#7d97f4"/>
                    <path data-name="Path 4853" d="m483.981 856.008.989.932a.206.206 0 0 1-.283.3l-.984-.924a.208.208 0 1 1 .284-.3z" transform="translate(-430.125 -735.595)" style="fill:#7d97f4"/>
                    <path data-name="Path 4854" d="m500.065 871.5.942.981a.2.2 0 1 1-.294.282l-.936-.971a.205.205 0 1 1 .3-.285z" transform="translate(-444.253 -749.201)" style="fill:#7d97f4"/>
                    <path data-name="Path 4855" d="m515.314 887.816.88 1.038a.2.2 0 0 1-.307.26v-.005l-.874-1.025v-.005a.2.2 0 0 1 .308-.262z" transform="translate(-457.647 -763.528)" style="fill:#7d97f4"/>
                    <path data-name="Path 4856" d="m529.475 905.086.8 1.1a.2.2 0 0 1-.321.233v-.006l-.793-1.087v-.007a.2.2 0 0 1 .323-.236z" transform="translate(-470.085 -778.692)" style="fill:#7d97f4"/>
                    <path data-name="Path 4857" d="m542.236 923.412.7 1.17a.2.2 0 1 1-.336.2v-.008l-.692-1.152v-.008a.2.2 0 1 1 .338-.2z" transform="translate(-481.292 -794.78)" style="fill:#7d97f4"/>
                    <path data-name="Path 4858" d="m553.234 942.838.572 1.238a.191.191 0 0 1-.346.161v-.01l-.57-1.215v-.01a.194.194 0 0 1 .352-.165z" transform="translate(-490.951 -811.832)" style="fill:#7d97f4"/>
                    <path data-name="Path 4859" d="m562.114 963.364.424 1.3a.183.183 0 0 1-.348.115v-.011l-.424-1.273v-.011a.187.187 0 0 1 .355-.118z" transform="translate(-498.757 -829.851)" style="fill:#7d97f4"/>
                    <path data-name="Path 4860" d="m568.486 984.8.258 1.34a.176.176 0 0 1-.345.067v-.011l-.26-1.316v-.011a.179.179 0 0 1 .352-.07z" transform="translate(-504.364 -848.671)" style="fill:#7d97f4"/>
                    <path data-name="Path 4861" d="m572.1 1006.875.084 1.362a.168.168 0 0 1-.336.022v-.011l-.09-1.34v-.011a.172.172 0 1 1 .343-.023z" transform="translate(-507.55 -868.051)" style="fill:#7d97f4"/>
                    <path data-name="Path 4862" d="m572.159 1029.232-.1 1.358a.161.161 0 0 1-.321-.023v-.008l.09-1.341v-.009a.164.164 0 1 1 .328.022z" transform="translate(-507.534 -887.679)" style="fill:#7d97f4"/>
                    <path data-name="Path 4863" d="m569.229 1051.5-.222 1.343a.153.153 0 0 1-.3-.049v-.006l.212-1.331v-.007a.157.157 0 0 1 .31.049z" transform="translate(-504.867 -907.237)" style="fill:#7d97f4"/>
                    <path data-name="Path 4864" d="m564.324 1073.488-.346 1.317a.146.146 0 0 1-.282-.073v-.007l.335-1.3v-.007a.15.15 0 1 1 .29.074z" transform="translate(-500.464 -926.551)" style="fill:#7d97f4"/>
                    <path data-name="Path 4865" d="m556.948 1094.952-.513 1.265a.138.138 0 0 1-.257-.1v-.011l.5-1.247v-.01a.142.142 0 1 1 .264.105z" transform="translate(-493.855 -945.403)" style="fill:#7d97f4"/>
                    <path data-name="Path 4866" d="M545.853 1115.326a9.157 9.157 0 0 1-.781 1.13.131.131 0 0 1-.2-.165 8.861 8.861 0 0 0 .752-1.1.135.135 0 1 1 .233.136z" transform="translate(-483.901 -963.295)" style="fill:#7d97f4"/>
                    <path data-name="Path 4867" d="M528.753 1132.466a4.514 4.514 0 0 1-1.207.686.123.123 0 0 1-.087-.231 4.264 4.264 0 0 0 1.136-.655.127.127 0 1 1 .158.2z" transform="translate(-468.562 -978.333)" style="fill:#7d97f4"/>
                </g>
            </g>
            <g data-name="Group 14339">
                <g data-name="Group 14335">
                    <path data-name="Path 4868" d="M1108.092 1124.763s-1.689-4.446-3.662-4.039a13.491 13.491 0 0 0-4.131 1.923l-3.169 4.286s8.9 3.5 12.026 1.5a68.461 68.461 0 0 0 20.563-.313 44.986 44.986 0 0 1-3.233-9.744c-5.812 3.287-12.072 5.744-18.394 6.387z" transform="translate(-969.127 -966.152)" style="fill:url(#uvwn6i2jrA)"/>
                    <path data-name="Path 4869" d="M1368.626 905.425s-13.011 16.387-29.743 25.858a44.986 44.986 0 0 0 3.233 9.744c8.68-1.424 18.725-4.823 27.241-12.376z" transform="translate(-1181.524 -779.062)" style="fill:url(#l2170mylmB)"/>
                </g>
                <path data-name="Path 4870" d="m151.013 916.09 25.829 64.957a7.7 7.7 0 0 0 8.246 4.773l67.731-5-24.4-69.075a4.316 4.316 0 0 0-4.133-2.781c-11.875.274-55.126 1.342-70.6 2.719a3.205 3.205 0 0 0-2.673 4.407z" transform="translate(-137.685 -782.17)" style="fill:url(#2tl0td0shf)"/>
                <path data-name="Path 4871" d="m226.825 1005.685-25.805-65.54a2.044 2.044 0 0 1 1.856-2.792l63.783-2.421a3.866 3.866 0 0 1 3.747 2.452l23.361 63.89z" transform="translate(-181.704 -804.983)" style="fill:url(#vinhw1osxC)"/>
                <path data-name="Path 4872" d="m1540.426 916.09-25.826 64.957a7.7 7.7 0 0 1-8.246 4.773l-67.731-4.74 24.4-69.336a4.316 4.316 0 0 1 4.133-2.781c11.875.274 55.126 1.342 70.6 2.719a3.205 3.205 0 0 1 2.67 4.408z" transform="translate(-1269.15 -782.17)" style="fill:url(#2tl0td0shf)"/>
                <path data-name="Path 4873" d="m1530.866 1005.685 25.806-65.54a2.044 2.044 0 0 0-1.856-2.792l-63.783-2.421a3.867 3.867 0 0 0-3.747 2.452l-23.361 63.89z" transform="translate(-1291.382 -804.983)" style="fill:url(#b5s9dkk1fc)"/>
                <path data-name="Path 4874" d="m780.767 923.27.808 21.694a59.639 59.639 0 0 0 6.559 1.862c1.3-4.189 4.166-9.33 6.512-13.152-8.62-3.046-13.879-10.404-13.879-10.404z" transform="translate(-691.18 -794.74)" style="fill:url(#o2hgxufjgD)"/>
                <path data-name="Path 4875" d="M877.095 920.231C865.271 933 855.7 933.748 847.942 931c-2.346 3.823-5.211 8.964-6.512 13.152 31.573 6.961 39.008-22.065 39.008-22.065z" transform="translate(-744.477 -792.07)" style="fill:url(#2wlfkbu89E)"/>
                <path data-name="Path 4876" d="M1154.882 898.232a4.331 4.331 0 0 1 3.883-1c2.52.459 4.764 1.335 6.335 0s2.123.457 2.123.457l-4.7 3.575z" transform="translate(-1019.866 -771.427)" style="fill:url(#kqfnpxi9dF)"/>
                <path data-name="Path 4877" d="M1131.718 904.929s.933-3.9 3.745-3.367 9.2 4.007 10.842 3.367 3.749-2.17 4.829-1.629l-1.9 2.364s4.888-2.82 5.729-1.087l-8.133 4.577s-11.9-1.193-15.112-4.225z" transform="translate(-999.515 -775.624)" style="fill:url(#05v12nvvlG)"/>
                <path data-name="Path 4878" d="M442.358 955.67s-4.034-57.593 25.375-75.5c0 0 8.222-5.428 18.467 5.084s6.946 21.433-1.652 31.668-17.355 28.517-15.271 38.751z" transform="translate(-393.7 -755.64)" style="fill:url(#6y6ef3ngmH)"/>
                <path data-name="Path 4879" d="M703.827 761.114c-.008.687-9.8 14.6-9.8 14.6s1.758 3.462 10.149 6.273l7.244-14.893z" transform="translate(-614.972 -652.275)" style="fill:url(#5ymt5msc9I)"/>
                <path data-name="Path 4880" d="M743.021 1069.593s18.58 15.561 38.643 8.771a4.777 4.777 0 0 1 3.767.284l5.768 3.046a5.148 5.148 0 0 0 6.824-1.911 10.833 10.833 0 0 0 1.621-4.338l-11.286-4.569.832-1.384s-5.511-.467-6.953 3.483c0 0-10.5 4.366-28.2-15.1.003-.004-8.029 6.825-11.016 11.718z" transform="translate(-658.017 -912.997)" style="fill:url(#2g7hqsta0J)"/>
                <path data-name="Path 4881" d="M649.15 1048.311a.408.408 0 0 1-.23-.071 35.854 35.854 0 0 1-11.573-13.944.411.411 0 0 1 .757-.321 34.978 34.978 0 0 0 11.277 13.584.411.411 0 0 1-.23.752z" transform="translate(-565.146 -891.783)" style="fill:url(#kjfjosbtyg)"/>
                <path data-name="Path 4882" d="M682.052 926.98a.411.411 0 0 1-.346-.188c-.023-.037-2.415-3.76-6.969-11.914a9.085 9.085 0 0 0-5.41-4.672 10.573 10.573 0 0 0-7.213.958.411.411 0 0 1-.406-.715 11.232 11.232 0 0 1 7.833-1.037 9.87 9.87 0 0 1 5.914 5.065c4.539 8.127 6.919 11.833 6.942 11.87a.411.411 0 0 1-.345.634z" transform="translate(-586.395 -782.276)" style="fill:url(#kjfjosbtyg)"/>
                <g data-name="Group 14336">
                    <path data-name="Path 4883" d="M737.117 695.475s3.485 8 3.718 12.206 1.139 6.927-3.718 7.774-8.95-1.574-11.167-5.759c0 0-3.474-6.449-2.695-9.09s13.862-5.131 13.862-5.131z" transform="translate(-640.551 -594.606)" style="fill:url(#qh64dqc4gK)"/>
                    <path data-name="Path 4884" d="m682.377 643.467.277-.122a.667.667 0 0 0 .326-.916c-.685-1.324-2.021-4.357-.3-5.064 2.223-.912 11.03-2.708 12.93-5.833a5.815 5.815 0 0 0-2.224-7.983.335.335 0 0 0-.438.143l-.2.383a.33.33 0 0 1-.609-.063.329.329 0 0 0-.594-.085c-.584.935-2.161 2.451-6.378 3.229-5.993 1.106-9.955 3.531-10.054 7.672a.331.331 0 0 1-.511.273c-.442-.27-1.151-.4-2.1.4-1.646 1.384-.972 4.974 2.636 7.927a.328.328 0 0 1-.016.529c-.654.426-1.629 1.439.9 2.79a8.508 8.508 0 0 0 5.316 1.158.329.329 0 0 0 .267-.4l-.8-3.64a.33.33 0 0 1 .322-.4z" transform="translate(-595.319 -531.387)" style="fill:url(#pufto5ir4L)"/>
                    <path data-name="Path 4885" d="M729.509 765.672s-1.329-5.113-3.622-3.68 1.189 5.729 3.032 5.92z" transform="translate(-642.3 -652.824)" style="fill:url(#y1nudp0yqM)"/>
                </g>
                <path data-name="Path 4886" d="M1092.274 1202.091s4.721 4.618 5.632 3.946a16.577 16.577 0 0 0 1.936-2.076 2.026 2.026 0 0 0 .138-2.388l-1.114-1.719a3.219 3.219 0 0 0-4.8-.7 5.833 5.833 0 0 0-1.792 2.937z" transform="translate(-964.861 -1036.44)" style="fill:url(#g6kespinbN)"/>
                <path data-name="Path 4887" d="M1585.98 959.71a95.416 95.416 0 0 0-12.1-42.177 34.343 34.343 0 0 1-3.939-22.1l1.321-8.537a63.935 63.935 0 0 1 34.91-.236s25.448 21 8.44 74.726z" transform="translate(-1384.165 -760.529)" style="fill:url(#vwr0fsyztO)"/>
                <path data-name="Path 4888" d="m1607.03 795.868 4.293 10.314a2.055 2.055 0 0 0 1.553 1.235c2.475.425 8.462 1.088 12.394-1.5a1 1 0 0 0 .267-1.4l-7.932-11.387z" transform="translate(-1417.11 -680.4)" style="fill:url(#9ghzvsdulP)"/>
                <g data-name="Group 14337">
                    <path data-name="Path 4889" d="M1689.088 1126.8a.953.953 0 0 0-.6 1.363l12.421 23.816a.953.953 0 0 0 1.11.475l40.628-11.73a.953.953 0 0 0 .651-1.18l-7-24.228a.954.954 0 0 0-1.159-.657z" transform="translate(-1488.58 -962.858)" style="fill:#bdd0fb"/>
                    <path data-name="Path 4890" d="M1710.265 1114.354a1 1 0 0 0-.705 1.316l9.943 27.007a1 1 0 0 0 1.213.614l40.506-11.695a1 1 0 0 0 .7-1.169l-5.613-25.993a1 1 0 0 0-1.207-.76z" transform="translate(-1507.135 -953.213)" style="fill:url(#couyks3a0h)"/>
                    <path data-name="Path 4891" d="M1737.281 1124.7a1.233 1.233 0 0 0-1.016 1.5l6.753 29.156a1.233 1.233 0 0 0 1.544.907l39.892-11.518a1.233 1.233 0 0 0 .852-1.493l-6.135-23.8a1.233 1.233 0 0 0-1.38-.911z" transform="translate(-1530.624 -966.286)" style="fill:url(#de7n28z1nQ)"/>
                </g>
                <path data-name="Path 4892" d="M1825.205 961.6c3.1-23.388-14.928-41.373-14.928-41.373l-10.724 12.5c8.142 10.148 12.012 19.447 13.78 26.751 2.345-.678 7.99-1.756 11.872 2.122z" transform="translate(-1586.256 -792.07)" style="fill:url(#dik7x1oroR)"/>
                <path data-name="Path 4893" d="M1811.35 1048.228a.274.274 0 0 1-.266-.209c-2.193-9.059-6.812-18.024-13.728-26.644a.274.274 0 0 1 .428-.343c6.966 8.683 11.62 17.72 13.832 26.858a.274.274 0 0 1-.2.331.282.282 0 0 1-.066.007z" transform="translate(-1584.273 -880.54)" style="fill:url(#0cjb67nzgS)"/>
                <path data-name="Path 4894" d="M1833.849 1238.6a42.963 42.963 0 0 1 1.22 14.271 1.883 1.883 0 0 1-1.741 1.688c-1.039.073-2.452.168-3.715.241a6.935 6.935 0 0 1-3.96-1.531.62.62 0 0 0-.913.784c.769 1.505 2.721 2.844 4.067 3.632a.642.642 0 0 1-.148 1.173l-5.754 1.631c9.454 8.907 15.7-1.059 15.7-1.059a45.091 45.091 0 0 0 7.12-18.71c-3.886-3.879-9.531-2.8-11.876-2.12z" transform="translate(-1606.771 -1071.189)" style="fill:url(#irrdk486eT)"/>
                <g data-name="Group 14338">
                    <path data-name="Path 4895" d="M1588.537 681.686c-.18.17-7.61 14.759-7.61 14.759l8.421 4.065 9.1-12.782s-6.893-8.884-9.911-6.042z" transform="translate(-1394.177 -581.999)" style="fill:url(#s7qmsq4ndU)"/>
                    <path data-name="Path 4896" d="m1577.693 645.59-4.2 7a1.309 1.309 0 0 1-.23.287c-.5.465-2.21 1.819-3.533-.024-1.127-1.571-2.185-3-3.318-3.587a1.342 1.342 0 0 0-1.812.6 50.1 50.1 0 0 0-2.874 6.818 1.336 1.336 0 0 0 .778 1.639 37.246 37.246 0 0 0 8.065 2.353 1.343 1.343 0 0 0 1.27-.54c1.287-1.762 4.913-6.688 6.15-7.921 1.15-1.145 3.272-.713 4.228-.439a1.35 1.35 0 0 0 1.073-.141 2.959 2.959 0 0 0 1.114-4.5 1.345 1.345 0 0 1 .416-1.826 2.971 2.971 0 0 0 1.139-4.216 4.189 4.189 0 0 0-4.537-2.221 1.4 1.4 0 0 1-1.463-.814.888.888 0 0 0-.693-.546 1.3 1.3 0 0 1-1.055-1.531 3.44 3.44 0 0 0-1.921-3.942c-3.633-2-6.816 1.257-7.625 4s3.253 4.689 5.808 5.013c1.877.238 2.906 2.286 3.32 3.357a1.346 1.346 0 0 1-.1 1.181z" transform="translate(-1377.253 -538.328)" style="fill:url(#bbdchl79jV)"/>
                    <path data-name="Path 4897" d="M1683.119 790.86s1.616-4.727 3.684-4.554 3.7 2.234 1.133 4.55c-3.189 2.881-4.817.004-4.817.004z" transform="translate(-1483.96 -674.404)" style="fill:url(#20hjh2ncvW)"/>
                </g>
                <path data-name="Path 4898" d="M486.2 1498.741a2.193 2.193 0 0 1-2.193 2.193h-89.075a3.332 3.332 0 0 1-3.332-3.332l-1.4-1.628 92.492-.792a3.56 3.56 0 0 1 3.512 3.56z" transform="translate(-348.038 -1297.204)" style="fill:url(#tmm27hnrgX)"/>
                <path data-name="Path 4899" d="M1248.961 1498.741a2.192 2.192 0 0 0 2.193 2.193h89.078a3.332 3.332 0 0 0 3.332-3.332l1.4-1.628-92.492-.792a3.56 3.56 0 0 0-3.512 3.56z" transform="translate(-1102.521 -1297.204)" style="fill:url(#f2v4v4jt8Y)"/>
            </g>
            <g data-name="Group 14348">
                <g data-name="Group 14341" transform="translate(17.461 159.06)">
                    <circle data-name="Ellipse 556" cx="7.211" cy="7.211" r="7.211" transform="rotate(-61.845 10.614 6.358)" style="fill:url(#adqziamoeZ)"/>
                    <circle data-name="Ellipse 557" cx="6.972" cy="6.972" r="6.972" transform="rotate(-5.655 36.602 -19.87)" style="fill:url(#fm9rjr7qwaa)"/>
                    <path data-name="Path 4900" d="M217.871 1203.931a.271.271 0 0 1-.241-.393 6.678 6.678 0 0 1 5.99-3.688 6.764 6.764 0 0 1 1.21.109.271.271 0 0 1-.1.533 6.2 6.2 0 0 0-1.113-.1 6.139 6.139 0 0 0-5.507 3.391.271.271 0 0 1-.239.148z" transform="translate(-213.859 -1196.795)" style="opacity:.6;fill:#fff"/>
                    <circle data-name="Ellipse 558" cx="5.901" cy="5.901" r="5.901" transform="rotate(-35.783 14.12 1.692)" style="opacity:.6;fill:#fff"/>
                    <g data-name="Group 14340">
                        <path data-name="Path 4901" d="M249.041 1230.5v-.642a5.239 5.239 0 0 1-1.8-.391.371.371 0 0 1-.205-.439l.163-.6a.374.374 0 0 1 .508-.245 4.348 4.348 0 0 0 1.663.35c.645 0 1.125-.219 1.125-.667 0-.4-.371-.645-1.267-.885-1.278-.349-2.2-.907-2.2-2.032 0-1.016.743-1.792 2.032-2v-.642a.374.374 0 0 1 .374-.374h.377a.374.374 0 0 1 .374.374v.576a4.779 4.779 0 0 1 1.428.256.372.372 0 0 1 .233.449l-.15.553a.373.373 0 0 1-.492.252 3.892 3.892 0 0 0-1.4-.254c-.765 0-.983.317-.983.6 0 .35.459.59 1.453.9 1.42.426 2.01 1.016 2.01 2.076a2.189 2.189 0 0 1-2.119 2.065v.718a.374.374 0 0 1-.374.374h-.377a.374.374 0 0 1-.373-.372z" transform="translate(-239.707 -1216.201)" style="fill:url(#33nxgm8jmab)"/>
                    </g>
                </g>
                <g data-name="Group 14343" transform="translate(29.996 142.515)">
                    <circle data-name="Ellipse 559" cx="12.554" cy="12.554" r="12.554" transform="rotate(-45 21.431 8.877)" style="fill:url(#adqziamoeZ)"/>
                    <circle data-name="Ellipse 560" cx="12.137" cy="12.137" r="12.137" transform="rotate(-45 21.726 8.165)" style="fill:url(#fm9rjr7qwaa)"/>
                    <path data-name="Path 4902" d="M351.849 1096.862a.268.268 0 0 1-.122-.029.27.27 0 0 1-.12-.364 11.426 11.426 0 0 1 10.249-6.311 11.581 11.581 0 0 1 2.07.186.271.271 0 0 1-.1.533 11.01 11.01 0 0 0-1.973-.178 10.887 10.887 0 0 0-9.766 6.013.271.271 0 0 1-.238.15z" transform="translate(-344.103 -1083.878)" style="opacity:.6;fill:#fff"/>
                    <circle data-name="Ellipse 561" cx="10.272" cy="10.272" r="10.272" transform="translate(7.746 7.746)" style="opacity:.6;fill:#fff"/>
                    <g data-name="Group 14342">
                        <path data-name="Path 4903" d="M404.659 1141.865v-1.118a9.116 9.116 0 0 1-3.136-.68.646.646 0 0 1-.357-.764l.284-1.041a.651.651 0 0 1 .884-.426 7.567 7.567 0 0 0 2.9.609c1.122 0 1.959-.38 1.959-1.16 0-.7-.647-1.122-2.206-1.541-2.225-.609-3.823-1.579-3.823-3.537 0-1.769 1.293-3.119 3.538-3.48v-1.118a.651.651 0 0 1 .651-.651H406a.651.651 0 0 1 .651.651v1a8.309 8.309 0 0 1 2.485.446.648.648 0 0 1 .4.782l-.261.963a.649.649 0 0 1-.857.438 6.783 6.783 0 0 0-2.438-.443c-1.331 0-1.712.552-1.712 1.046 0 .609.8 1.027 2.529 1.56 2.472.742 3.5 1.769 3.5 3.614 0 1.693-1.255 3.214-3.69 3.595v1.251a.651.651 0 0 1-.651.651h-.657a.651.651 0 0 1-.64-.647z" transform="translate(-387.649 -1116.21)" style="fill:url(#pfpmhdsl0ac)"/>
                    </g>
                </g>
                <g data-name="Group 14345" transform="translate(38.746 170.648)">
                    <circle data-name="Ellipse 562" cx="12.918" cy="12.918" r="12.918" transform="rotate(-78.019 18.217 12.362)" style="fill:url(#adqziamoeZ)"/>
                    <circle data-name="Ellipse 563" cx="12.488" cy="12.488" r="12.488" transform="rotate(-45 21.319 8.83)" style="fill:url(#fm9rjr7qwaa)"/>
                    <path data-name="Path 4904" d="M420.76 1325.282a.267.267 0 0 1-.122-.029.271.271 0 0 1-.12-.364 11.749 11.749 0 0 1 10.539-6.489 11.912 11.912 0 0 1 2.128.191.271.271 0 1 1-.1.533 11.362 11.362 0 0 0-2.031-.183 11.211 11.211 0 0 0-10.054 6.192.27.27 0 0 1-.24.149z" transform="translate(-413.397 -1312.538)" style="opacity:.6;fill:#fff"/>
                    <circle data-name="Ellipse 564" cx="10.57" cy="10.57" r="10.57" transform="rotate(-76.7 18.91 9.601)" style="opacity:.6;fill:#fff"/>
                    <g data-name="Group 14344">
                        <path data-name="Path 4905" d="M475.044 1371.541v-1.15a9.38 9.38 0 0 1-3.227-.7.665.665 0 0 1-.368-.786l.292-1.071a.67.67 0 0 1 .91-.439 7.786 7.786 0 0 0 2.979.627c1.155 0 2.016-.391 2.016-1.194 0-.724-.665-1.154-2.27-1.585-2.29-.626-3.934-1.624-3.934-3.64 0-1.82 1.331-3.209 3.64-3.581v-1.15a.67.67 0 0 1 .67-.67h.676a.67.67 0 0 1 .67.67v1.033a8.547 8.547 0 0 1 2.558.459.667.667 0 0 1 .417.8l-.269.991a.668.668 0 0 1-.882.451 6.976 6.976 0 0 0-2.508-.455c-1.37 0-1.761.568-1.761 1.076 0 .626.822 1.057 2.6 1.6 2.544.763 3.6 1.82 3.6 3.718 0 1.742-1.292 3.307-3.8 3.7v1.287a.67.67 0 0 1-.67.67h-.676a.67.67 0 0 1-.663-.661z" transform="translate(-458.148 -1345.749)" style="fill:url(#33nxgm8jmab)"/>
                    </g>
                </g>
                <g data-name="Group 14347" transform="translate(60.039 157.772)">
                    <circle data-name="Ellipse 565" cx="9.465" cy="9.465" r="9.465" transform="rotate(-85.3 13.08 9.312)" style="fill:url(#adqziamoeZ)"/>
                    <circle data-name="Ellipse 566" cx="9.15" cy="9.15" r="9.15" transform="rotate(-45 15.62 6.47)" style="fill:url(#tss2lmv5rad)"/>
                    <path data-name="Path 4906" d="M579.9 1204.051a.271.271 0 0 1-.242-.393 8.681 8.681 0 0 1 7.787-4.794 8.779 8.779 0 0 1 1.573.141.271.271 0 1 1-.1.533 8.245 8.245 0 0 0-1.475-.133 8.142 8.142 0 0 0-7.3 4.5.271.271 0 0 1-.243.146z" transform="translate(-574.508 -1194.641)" style="opacity:.6;fill:#fff"/>
                    <circle data-name="Ellipse 567" cx="7.744" cy="7.744" r="7.744" transform="rotate(-19.33 26.281 -5.397)" style="opacity:.6;fill:#fff"/>
                    <g data-name="Group 14346">
                        <path data-name="Path 4907" d="M620.2 1238.4v-.843a6.87 6.87 0 0 1-2.364-.513.487.487 0 0 1-.269-.576l.214-.785a.491.491 0 0 1 .667-.322 5.705 5.705 0 0 0 2.183.46c.846 0 1.477-.287 1.477-.875 0-.531-.487-.846-1.663-1.161-1.678-.459-2.882-1.19-2.882-2.667 0-1.334.975-2.352 2.667-2.624v-.843a.491.491 0 0 1 .491-.491h.495a.491.491 0 0 1 .491.491v.757a6.264 6.264 0 0 1 1.874.337.488.488 0 0 1 .305.589l-.2.726a.489.489 0 0 1-.646.33 5.117 5.117 0 0 0-1.838-.333c-1 0-1.29.416-1.29.789 0 .459.6.774 1.907 1.176 1.864.559 2.638 1.333 2.638 2.724 0 1.276-.946 2.423-2.782 2.71v.943a.491.491 0 0 1-.491.491h-.5a.491.491 0 0 1-.484-.49z" transform="translate(-607.82 -1219.499)" style="fill:url(#33nxgm8jmab)"/>
                    </g>
                </g>
            </g>
            <g data-name="Group 14350">
                <path data-name="Path 4908" d="M1864.777 715.2a.626.626 0 0 1 .12-1.212c2.985-.387 7.36-1.556 8.793-5.058 2.248-5.5-2.408-26.682 18.983-30.473 19.732-3.5 30.722 2.748 30.473 20.981-.246 17.67-28.646 25.957-58.369 15.762z" transform="translate(-1643.187 -578.835)" style="fill:#91b3fa"/>
                <g data-name="Group 14349">
                    <path data-name="Rectangle 2646" transform="translate(236.815 116.787)" style="fill:#bdd0fb" d="M0 0h1.914v14.977H0z"/>
                    <path data-name="Rectangle 2647" transform="translate(240.013 121.934)" style="fill:#bdd0fb" d="M0 0h1.914v9.83H0z"/>
                    <path data-name="Rectangle 2648" transform="translate(243.211 109.213)" style="fill:#bdd0fb" d="M0 0h1.914v22.551H0z"/>
                    <path data-name="Rectangle 2649" transform="translate(246.409 126.346)" style="fill:#bdd0fb" d="M0 0h1.914v5.418H0z"/>
                    <path data-name="Rectangle 2650" transform="translate(249.608 112.228)" style="fill:#bdd0fb" d="M0 0h1.914v19.536H0z"/>
                    <path data-name="Rectangle 2651" transform="translate(252.806 115.61)" style="fill:#bdd0fb" d="M0 0h1.914v16.153H0z"/>
                    <path data-name="Rectangle 2652" transform="translate(256.004 119.287)" style="fill:#bdd0fb" d="M0 0h1.914v12.477H0z"/>
                    <path data-name="Rectangle 2653" transform="translate(259.202 104.654)" style="fill:#bdd0fb" d="M0 0h1.914v27.11H0z"/>
                    <path data-name="Rectangle 2654" transform="translate(262.4 107.522)" style="fill:#bdd0fb" d="M0 0h1.914v24.242H0z"/>
                    <path data-name="Rectangle 2655" transform="translate(265.598 111.86)" style="fill:#bdd0fb" d="M0 0h1.914v19.904H0z"/>
                    <path data-name="Rectangle 2656" transform="translate(268.796 126.849)" style="fill:#bdd0fb" d="M0 0h1.914v4.915H0z"/>
                </g>
            </g>
        </g>
    </g>
</svg>
