<svg xmlns="http://www.w3.org/2000/svg" width="432" height="290" viewBox="0 0 432 290">
    <defs>
        <clipPath id="yrimxp6cwa">
            <path data-name="Path 4201" d="M1148.3 1498.052s36.93 1.045 49.512-19.581c0 0-24.862.79-33.669 4.9 0 0 22.312-9.395 27.792-28.771 0 0-19.024-2.349-35.151 15.266 0 0 6.576-14.092-6.146-31.707-13.967 22.973-13.685 35.309-9.2 59.892z" transform="translate(-1138.692 -1438.16)" style="fill:#a7bd37"/>
        </clipPath>
        <clipPath id="0d1rx0rpyb">
            <path data-name="Path 4205" d="m752.088 780.844-17.25-31.02a60.1 60.1 0 0 0 0-9.423c-7.473-77.632-123.5-68.243-118.068 9.889 2.492 18.561 18.184 67.766 18.207 68.738l-4.726 38.742h73.183l-1.091-38.742c23.006 1.23 34.121-2.514 32.5-28.128h11.336c4.999.154 8.472-5.76 5.909-10.056zm-48.094-36.1a7.91 7.91 0 0 1-2.4-.371v9.389a4.981 4.981 0 0 1-4.981 4.981h-13.695c4.413 4.8.616 13.3-6 13.08-6.616.224-10.416-8.286-6-13.08H657.22a4.981 4.981 0 0 1-4.981-4.981v-9.389c-13.585 3.112-13.575-18.209 0-15.093v-9.389a4.981 4.981 0 0 1 4.981-4.981h13.695c-4.412-4.8-.616-13.3 6-13.08 6.616-.224 10.416 8.286 6 13.08h13.695a4.981 4.981 0 0 1 4.981 4.981v9.389c11.629-3.188 14.448 14.983 2.403 15.465z" transform="translate(-616.584 -686.71)" style="fill:#a4c4ff"/>
        </clipPath>
        <clipPath id="t3nc0ucuyc">
            <path data-name="Path 4209" d="M850.688 815.977a7.91 7.91 0 0 0-2.4.372v-9.389a4.981 4.981 0 0 0-4.981-4.981h-13.695c4.413-4.795.616-13.3-6-13.08-6.616-.224-10.416 8.286-6 13.08h-13.698a4.981 4.981 0 0 0-4.981 4.981v9.389c-13.585-3.112-13.576 18.208 0 15.093v9.389a4.981 4.981 0 0 0 4.981 4.981h13.695c-4.413 4.8-.616 13.3 6 13.08 6.616.224 10.416-8.286 6-13.08h13.695a4.981 4.981 0 0 0 4.981-4.981v-9.389c11.629 3.188 14.449-14.983 2.403-15.465z" transform="translate(-788.748 -788.895)" style="fill:#3875ff"/>
        </clipPath>
        <clipPath id="dhf29jl7pd">
            <path data-name="Path 4215" d="M405.977 1423.269s-43.155-8.141-52.6-36.158c0 0 24.241 2.519 40.609 13.11 0 0-23.109-8.425-24.553-34.663 0 0 29.035 10.771 36.543 28.855 0 0-17.045-20.43-17.527-44.021 19.191 16.407 41.353 40.178 37.793 72.876z" transform="translate(-353.378 -1350.393)" style="fill:#a7bd37"/>
        </clipPath>
        <clipPath id="rmrqju3qie">
            <path data-name="Path 4221" d="M2072.738 1455.9s7.418-44.152 3.184-60.078l-13.271.555 3.7 59.524a7.238 7.238 0 0 0 6.387-.001z" transform="translate(-2062.651 -1395.822)" style="fill:#ffb6a6"/>
        </clipPath>
        <clipPath id="j349swivlf">
            <path data-name="Path 4225" d="M2174.165 1436.208s-.54-44.768-7.535-59.689l-12.961 2.9 14.208 57.921a7.238 7.238 0 0 0 6.288-1.132z" transform="translate(-2153.669 -1376.519)" style="fill:#ffb6a6"/>
        </clipPath>
        <clipPath id="5hsal66vxg">
            <path data-name="Path 4228" d="M2039.358 1123.8h26.547a20.473 20.473 0 0 1 3.3 17 17.175 17.175 0 0 0-.189 7.526l4.671 23.52s-19.453 7.758-39.819 2.617z" transform="translate(-2033.871 -1123.799)" style="fill:#38385d"/>
        </clipPath>
        <clipPath id="aa5o1vp8sh">
            <path data-name="Path 4235" d="M2079.209 658.7c3.846-21.3 23.815-5.9 13.544 8.545.159 3.545 2.963 10.643-2.664 11.363-5.052.239-4.413-5.031-4.606-8.474-3.938-1.003-6.683-5.843-6.274-11.434z" transform="translate(-2079.169 -648.206)" style="fill:#ffb6a6"/>
        </clipPath>
        <clipPath id="o9hdcgn0ti">
            <path data-name="Path 4239" d="M1714.555 825a35.67 35.67 0 0 0 0-15.339h-6.642a28.858 28.858 0 0 0-2.782-6.715l4.7-4.7a35.865 35.865 0 0 0-10.846-10.846l-4.7 4.7a28.857 28.857 0 0 0-6.715-2.782v-6.642a35.677 35.677 0 0 0-15.338 0v6.642a28.857 28.857 0 0 0-6.715 2.782l-4.7-4.7a35.865 35.865 0 0 0-10.846 10.846l4.7 4.7a28.869 28.869 0 0 0-2.783 6.715h-6.642a35.678 35.678 0 0 0 0 15.339h6.642a28.865 28.865 0 0 0 2.783 6.715l-4.7 4.7a35.863 35.863 0 0 0 10.846 10.846l4.7-4.7a28.847 28.847 0 0 0 6.715 2.782v6.642a35.677 35.677 0 0 0 15.338 0v-6.642a28.847 28.847 0 0 0 6.715-2.782l4.7 4.7a35.865 35.865 0 0 0 10.846-10.846l-4.7-4.7a28.854 28.854 0 0 0 2.782-6.715zm-34.655 10.742c-24.2-.413-24.2-36.415 0-36.824 24.2.413 24.2 36.415 0 36.824z" transform="translate(-1644.412 -781.841)" style="fill:#a4c4ff"/>
        </clipPath>
        <clipPath id="xvfv3vq8kj">
            <path data-name="Path 4244" d="M2017.164 984.946s-6.062-3.107-7.57-2.818 2.5 2.492 2.375 2.818-7.991.423-8.28 1.161 2.118 6.482 3.883 6.194 9.21-1.667 9.21-1.667z" transform="translate(-2003.666 -982.109)" style="fill:#ffb6a6"/>
        </clipPath>
        <clipPath id="7l0ydfhd2k">
            <path data-name="Path 4249" d="m899.49 585.849 9.558 2.07 15.8-8.423 8.268 16.813-13.941 8.082c.739 10.594-1.869 39.76-1.869 39.76-16.989 8.605-36.165-9.164-36.165-9.164 2.128-4.916 1.271-43.267 18.347-49.137" transform="translate(-881.143 -579.496)" style="fill:#f85c3d"/>
        </clipPath>
        <clipPath id="hru4m3zdql">
            <path data-name="Path 4254" d="m1014.745 532.805.711-5.865c2.784.2 6.162.321 6.092-3.393l-1.418-13.747-13.175-.113-1.792 16.681z" transform="translate(-1005.163 -509.686)" style="fill:#ffb6a6"/>
        </clipPath>
        <clipPath id="inbfg1hxbm">
            <path data-name="Path 4259" d="M1185.933 460.258c2.072-1.024 6.007-2.307 7.526-4.112l17.735-19.891 4.431 4.718-14.035 23.181c-1.736 3.384-6.872 5.788-9.92 7.773z" transform="translate(-1185.933 -436.256)" style="fill:#ffb6a6"/>
        </clipPath>
        <clipPath id="7istecwszn">
            <path data-name="Path 4262" d="M1364.515 197.185a7.623 7.623 0 0 0-2.313.358V188.5a4.8 4.8 0 0 0-4.8-4.8h-13.2c4.252-4.62.594-12.819-5.783-12.6-6.375-.216-10.036 7.984-5.783 12.6h-13.2a4.8 4.8 0 0 0-4.8 4.8v9.046c-13.09-3-13.081 17.545 0 14.543v9.046a4.8 4.8 0 0 0 4.8 4.8h13.2c-4.252 4.62-.594 12.819 5.783 12.6 6.375.216 10.036-7.984 5.782-12.6h13.2a4.8 4.8 0 0 0 4.8-4.8v-9.046c11.199 3.07 13.92-14.439 2.314-14.904z" transform="translate(-1304.832 -171.09)" style="fill:#a4c4ff"/>
        </clipPath>
        <clipPath id="7byfqjlnto">
            <path data-name="Path 4267" d="M1147.336 813.1a18.621 18.621 0 0 0 7.881 3.123l28.916 3.543-.639 5.786-30.111 1.61c-4.193.478-9.016-2.149-12.748-3.752z" transform="translate(-1140.635 -813.104)" style="fill:#ffb6a6"/>
        </clipPath>
    </defs>
    <g data-name="Group 15143">
        <path data-name="Rectangle 2717" style="fill:#fff" d="M0 0h432v290H0z"/>
        <g data-name="Group 14024">
            <g data-name="Group 14023">
                <g data-name="Group 13977">
                    <g data-name="Group 13969">
                        <path data-name="Path 4197" d="M1148.3 1498.052s36.93 1.045 49.512-19.581c0 0-24.862.79-33.669 4.9 0 0 22.312-9.395 27.792-28.771 0 0-19.024-2.349-35.151 15.266 0 0 6.576-14.092-6.146-31.707-13.967 22.973-13.685 35.309-9.2 59.892z" transform="translate(-989.515 -1229.714)" style="fill:#a7bd37"/>
                        <g data-name="Group 13968" style="clip-path:url(#yrimxp6cwa)" transform="translate(149.177 208.446)">
                            <path data-name="Path 4198" d="M1141.275 1541.019s-3.983 33.676 9.777 44.177l-18.648 2.716-3.621-47.617z" transform="translate(-1130.248 -1525.186)" style="fill:#3e5409"/>
                            <path data-name="Path 4199" d="M1135.986 1725.4a.3.3 0 0 1-.011-.592c13.174-.494 28.558-4.657 39.145-8.062 11.988-3.623 19.747-7.757 20.411-7.193-9.92 5.457-42.486 15.521-59.545 15.847z" transform="translate(-1136.142 -1669.361)" style="fill:#3e5409"/>
                            <path data-name="Path 4200" d="M1157.659 1584.611c8.984-11.1 50.293-36.689 50.683-36.4-.152 1.016-39.793 25.21-50.683 36.4z" transform="translate(-1154.853 -1531.927)" style="fill:#3e5409"/>
                        </g>
                    </g>
                    <g data-name="Group 13974">
                        <g data-name="Group 13971">
                            <path data-name="Path 4202" d="m752.088 780.844-17.25-31.02a60.1 60.1 0 0 0 0-9.423c-7.473-77.632-123.5-68.243-118.068 9.889 2.492 18.561 18.184 67.766 18.207 68.738l-4.726 38.742h73.183l-1.091-38.742c23.006 1.23 34.121-2.514 32.5-28.128h11.336c4.999.154 8.472-5.76 5.909-10.056zm-48.094-36.1a7.91 7.91 0 0 1-2.4-.371v9.389a4.981 4.981 0 0 1-4.981 4.981h-13.695c4.413 4.8.616 13.3-6 13.08-6.616.224-10.416-8.286-6-13.08H657.22a4.981 4.981 0 0 1-4.981-4.981v-9.389c-13.585 3.112-13.575-18.209 0-15.093v-9.389a4.981 4.981 0 0 1 4.981-4.981h13.695c-4.412-4.8-.616-13.3 6-13.08 6.616-.224 10.416 8.286 6 13.08h13.695a4.981 4.981 0 0 1 4.981 4.981v9.389c11.629-3.188 14.448 14.983 2.403 15.465z" transform="translate(-544.646 -589.431)" style="fill:#a4c4ff"/>
                            <g data-name="Group 13970" style="clip-path:url(#0d1rx0rpyb)" transform="translate(71.938 97.279)">
                                <path data-name="Path 4203" d="M1067.62 1581.128h-22.332s6.137 18.722 28.641 18.722l-6.31-18.722" transform="translate(-981.867 -1448.811)" style="fill:#739bfd"/>
                                <path data-name="Path 4204" d="M681.263 1376.519s35.463 27.991 41.772 72.487h-33.87l-7.9-72.487" transform="translate(-671.695 -1274.471)" style="fill:#739bfd"/>
                            </g>
                        </g>
                        <g data-name="Group 13973">
                            <path data-name="Path 4206" d="M850.688 815.977a7.91 7.91 0 0 0-2.4.372v-9.389a4.981 4.981 0 0 0-4.981-4.981h-13.695c4.413-4.795.616-13.3-6-13.08-6.616-.224-10.416 8.286-6 13.08h-13.698a4.981 4.981 0 0 0-4.981 4.981v9.389c-13.585-3.112-13.576 18.208 0 15.093v9.389a4.981 4.981 0 0 0 4.981 4.981h13.695c-4.413 4.8-.616 13.3 6 13.08 6.616.224 10.416-8.286 6-13.08h13.695a4.981 4.981 0 0 0 4.981-4.981v-9.389c11.629 3.188 14.449-14.983 2.403-15.465z" transform="translate(-691.341 -676.499)" style="fill:#3875ff"/>
                            <g data-name="Group 13972" style="clip-path:url(#t3nc0ucuyc)" transform="translate(97.407 112.396)">
                                <path data-name="Path 4207" d="M865.274 821.433a7.908 7.908 0 0 0-2.4.372v-9.389a4.981 4.981 0 0 0-4.981-4.981H844.2c4.412-4.8.616-13.3-6-13.08-6.616-.224-10.416 8.286-6 13.08h-13.7a4.981 4.981 0 0 0-4.981 4.981v9.384c-13.585-3.112-13.576 18.209 0 15.093v9.389a4.981 4.981 0 0 0 4.981 4.981h13.695c-4.412 4.8-.616 13.3 6 13.08 6.616.224 10.416-8.286 6-13.08h13.695a4.981 4.981 0 0 0 4.981-4.981V836.9c11.629 3.186 14.448-14.985 2.403-15.467z" transform="translate(-801.176 -793.544)" style="fill:#739bfd"/>
                                <path data-name="Path 4208" d="M883.876 961.134c-6.641 11.345-.158 27.906 8.361 46.4H915.6s3.227-29.946 0-41.95z" transform="translate(-867.471 -935.653)" style="fill:#38385d"/>
                            </g>
                        </g>
                    </g>
                    <g data-name="Group 13976">
                        <path data-name="Path 4210" d="M405.977 1423.269s-43.155-8.141-52.6-36.158c0 0 24.241 2.519 40.609 13.11 0 0-23.109-8.425-24.553-34.663 0 0 29.035 10.771 36.543 28.855 0 0-17.045-20.43-17.527-44.021 19.191 16.407 41.353 40.178 37.793 72.876z" transform="translate(-320.378 -1154.931)" style="fill:#a7bd37"/>
                        <g data-name="Group 13975" style="clip-path:url(#dhf29jl7pd)" transform="translate(33 195.462)">
                            <path data-name="Path 4211" d="M574.313 1490.624c9.849 27.487 20.278 59.117-29.4 47.016 0 0 20.68 8.4 21.327 8.24s31.505-.646 31.505-.646-1.298-47.501-23.432-54.61z" transform="translate(-516.574 -1469.879)" style="fill:#3e5409"/>
                            <path data-name="Path 4212" d="M627.325 1422.132c-13.926-34.79-38.157-72.539-37.952-73.42.546-.168 25.485 39.052 37.952 73.42z" transform="translate(-554.46 -1348.96)" style="fill:#3e5409"/>
                            <path data-name="Path 4213" d="M517.672 1509.558c-1.974 3.172-54.56-50.976-56.991-58.241 1.014-.082 8.886 11.284 20.869 24.234 10.082 12.178 27.045 27.041 36.122 34.007z" transform="translate(-444.807 -1436.387)" style="fill:#3e5409"/>
                            <path data-name="Path 4214" d="M424.8 1634.056c-14.655-2.024-65.1-30.228-73.117-36.61.928-.423 12.779 7.957 28.713 16.391 13.847 8.396 35.14 16.875 44.404 20.219z" transform="translate(-351.929 -1560.885)" style="fill:#3e5409"/>
                        </g>
                    </g>
                </g>
                <g data-name="Group 13996">
                    <g data-name="Group 13978">
                        <path data-name="Path 4216" d="M2042.311 629.272c-3.562 4.214-.935 10.3-2.229 15.185-.681 2.577-2.372 4.777-3.225 7.3a12.106 12.106 0 0 0 2.875 12.188c5.078 4.972 12.89 4.616 19.415 3.378 3.623-.879 12.319-1.785 12.949-6.139 1.283-4.627 1.511-10.27-1.977-13.988-1.234-1.3-2.84-2.209-4.088-3.5-4.4-4.3-3.186-12.864-8.976-16.035-2.024-.995-4.3-.544-6.408-.117a8.71 8.71 0 0 1-2.623-.288 6.463 6.463 0 0 0-5.713 2.016z" transform="translate(-1754.305 -538.61)" style="fill:#38385d"/>
                    </g>
                    <g data-name="Group 13995">
                        <path data-name="Path 4217" d="M1798.8 909.5c-17 24.963-11.655 17.944-38.959 28.978l3.459 8.273c4.177-1.514 29.153-6.2 31.971-9.478l10.483-8.671z" transform="translate(-1518.775 -779.264)" style="fill:#38385d"/>
                        <g data-name="Group 13981">
                            <path data-name="Path 4218" d="m2015.82 1801.93-8.975 3.061a5.613 5.613 0 0 0-3.494 3.482h19.693c.641-2.861 1.04-4.023-.833-6.544z" transform="translate(-1726.26 -1539.669)" style="fill:#38385d"/>
                            <g data-name="Group 13980">
                                <path data-name="Path 4219" d="M2072.738 1455.9s7.418-44.152 3.184-60.078l-13.271.555 3.7 59.524a7.238 7.238 0 0 0 6.387-.001z" transform="translate(-1776.787 -1193.639)" style="fill:#ffb6a6"/>
                                <g data-name="Group 13979" style="clip-path:url(#rmrqju3qie)" transform="translate(285.864 202.183)">
                                    <path data-name="Path 4220" d="M2043.882 1448.781s6.066 1.131 18.429-1.508l-.331-9.048-16.212.251z" transform="translate(-2046.658 -1431.951)" style="fill:#ff8370"/>
                                </g>
                            </g>
                        </g>
                        <g data-name="Group 13984">
                            <path data-name="Path 4222" d="m2185.722 1781.131-8.289 4.607a5.612 5.612 0 0 0-2.82 4.047l19.38-3.5c.117-2.951.321-4.121-1.982-6.292z" transform="translate(-1872.186 -1520.98)" style="fill:#38385d"/>
                            <g data-name="Group 13983">
                                <path data-name="Path 4223" d="M2174.165 1436.208s-.54-44.768-7.535-59.689l-12.961 2.9 14.208 57.921a7.238 7.238 0 0 0 6.288-1.132z" transform="translate(-1854.34 -1177.192)" style="fill:#ffb6a6"/>
                                <g data-name="Group 13982" style="clip-path:url(#j349swivlf)" transform="translate(299.329 199.327)">
                                    <path data-name="Path 4224" d="M2154.733 1429.39s6.171.036 17.868-4.757l-1.933-8.846-15.91 3.126z" transform="translate(-2154.575 -1409.978)" style="fill:#ff8370"/>
                                </g>
                            </g>
                        </g>
                        <g data-name="Group 13986">
                            <path data-name="Path 4226" d="M2039.358 1123.8h26.547a20.473 20.473 0 0 1 3.3 17 17.175 17.175 0 0 0-.189 7.526l4.671 23.52s-19.453 7.758-39.819 2.617z" transform="translate(-1752.265 -961.858)" style="fill:#38385d"/>
                            <g data-name="Group 13985" style="clip-path:url(#5hsal66vxg)" transform="translate(281.606 161.941)">
                                <path data-name="Path 4227" d="M2048.777 1120.689s20.89.358 31.634-6.924l-29.962-.716z" transform="translate(-2046.572 -1114.639)" style="fill:#1a1a35"/>
                            </g>
                        </g>
                        <path data-name="Path 4229" d="m2071.451 1086.1-.487 5.577h26.547a8.914 8.914 0 0 1-1.673-5.577z" transform="translate(-1783.87 -929.739)" style="fill:#ffb6a6"/>
                        <path data-name="Path 4230" d="M2064.261 823.489s14.45 4.729 16.008 8.711-5.144 32.928-5.144 32.928h-27.777s-2.6-28.667-2.656-30.977c-.111-4.957 11.846-10.158 11.846-10.158z" transform="translate(-1761.484 -705.975)" style="fill:#ff5c3d"/>
                        <g data-name="Group 13989">
                            <g data-name="Group 13988">
                                <path data-name="Path 4231" d="M2079.209 658.7c3.846-21.3 23.815-5.9 13.544 8.545.159 3.545 2.963 10.643-2.664 11.363-5.052.239-4.413-5.031-4.606-8.474-3.938-1.003-6.683-5.843-6.274-11.434z" transform="translate(-1790.861 -556.623)" style="fill:#ffb6a6"/>
                                <g data-name="Group 13987" style="clip-path:url(#aa5o1vp8sh)" transform="translate(288.308 91.583)">
                                    <path data-name="Path 4232" d="M2135.341 776.894a9.41 9.41 0 0 1-6.19 2.866s4.353 1.583 7.308.333l-1.119-3.2" transform="translate(-2121.757 -757.856)" style="fill:#ff8370"/>
                                    <path data-name="Path 4233" d="M2110.786 765.085c-.149-.027 3.358-2.284 3.358-2.284a2.562 2.562 0 0 1-3.358 2.284z" transform="translate(-2106.105 -745.848)" style="fill:#fff"/>
                                    <path data-name="Path 4234" d="M2084.829 660.239a7.437 7.437 0 0 0 2.826 7.243 13.654 13.654 0 0 1 .816-5.331c1.817 6.083 8.125 3.427 10.711 7.4 0 0-1.035-4.9-3.279-6.58a44.026 44.026 0 0 1-5.606-5.908s-4.162.208-5.468 3.176z" transform="translate(-2083.898 -655.749)" style="fill:#ff8370"/>
                                </g>
                            </g>
                            <path data-name="Path 4236" d="M2085.467 825.567c4.864 5.551 16.283 3.236 20.14-1.121-7.628-3.546-12.295-4.224-20.14 1.121z" transform="translate(-1796.227 -704.425)" style="fill:#ffb6a6"/>
                        </g>
                        <g data-name="Group 13992">
                            <g data-name="Group 13991">
                                <path data-name="Path 4237" d="M1714.555 825a35.67 35.67 0 0 0 0-15.339h-6.642a28.858 28.858 0 0 0-2.782-6.715l4.7-4.7a35.865 35.865 0 0 0-10.846-10.846l-4.7 4.7a28.857 28.857 0 0 0-6.715-2.782v-6.642a35.677 35.677 0 0 0-15.338 0v6.642a28.857 28.857 0 0 0-6.715 2.782l-4.7-4.7a35.865 35.865 0 0 0-10.846 10.846l4.7 4.7a28.869 28.869 0 0 0-2.783 6.715h-6.642a35.678 35.678 0 0 0 0 15.339h6.642a28.865 28.865 0 0 0 2.783 6.715l-4.7 4.7a35.863 35.863 0 0 0 10.846 10.846l4.7-4.7a28.847 28.847 0 0 0 6.715 2.782v6.642a35.677 35.677 0 0 0 15.338 0v-6.642a28.847 28.847 0 0 0 6.715-2.782l4.7 4.7a35.865 35.865 0 0 0 10.846-10.846l-4.7-4.7a28.854 28.854 0 0 0 2.782-6.715zm-34.655 10.742c-24.2-.413-24.2-36.415 0-36.824 24.2.413 24.2 36.415 0 36.824z" transform="translate(-1420.421 -670.488)" style="fill:#a4c4ff"/>
                                <g data-name="Group 13990" style="clip-path:url(#o9hdcgn0ti)" transform="translate(223.991 111.353)">
                                    <path data-name="Path 4238" d="M2014.676 1028.443s.555 2.964 2.272 3.178 10.56-2.232 10.56-2.232l-.129-2.575-12.7 1.629" transform="translate(-1959.9 -990.574)" style="fill:#739bfd"/>
                                </g>
                            </g>
                            <path data-name="Path 4240" d="M1788.761 897.272c-24.2.413-24.2 36.415 0 36.824 24.203-.413 24.199-36.414 0-36.824zm.7 26.484c-10.611-.181-10.609-15.965 0-16.144 10.608.181 10.607 15.965-.003 16.144z" transform="translate(-1527.95 -768.843)" style="fill:#3875ff"/>
                        </g>
                        <path data-name="Path 4241" d="m2120.226 882.371 6.494 18.7a7.715 7.715 0 0 1-2.107 8.248 7.715 7.715 0 0 1-6.306 1.915l-26.722-3.939.56-8.347 22.936 1.77s-1.451-13.986 5.145-18.347z" transform="translate(-1801.441 -756.146)" style="fill:#38385d"/>
                        <g data-name="Group 13994">
                            <path data-name="Path 4242" d="M2017.164 984.946s-6.062-3.107-7.57-2.818 2.5 2.492 2.375 2.818-7.991.423-8.28 1.161 2.118 6.482 3.883 6.194 9.21-1.667 9.21-1.667z" transform="translate(-1726.528 -841.13)" style="fill:#ffb6a6"/>
                            <g data-name="Group 13993" style="clip-path:url(#xvfv3vq8kj)" transform="translate(277.138 140.979)">
                                <path data-name="Path 4243" d="M2056.9 991.456c-.419 5.454-.2 6.211-5.225 9.144l7.838-1.68.373-6.158z" transform="translate(-2044.57 -990.073)" style="fill:#ff8370"/>
                            </g>
                        </g>
                    </g>
                    <path data-name="Path 4245" d="M2112.6 644.11c-.625 4.149 3.425 6.819 6.9 7.89l-.84-1.742c4.037 2.566 3.515 5.992 3.386 10.179 5.785-3.723 5.522-12.82 1.136-17.539a9.7 9.7 0 0 0-7.484-3.1c-1.762.577-2.821 2.571-3.098 4.312z" transform="translate(-1819.289 -549.443)" style="fill:#38385d"/>
                    <path data-name="Path 4246" d="M2095.831 645.818c-3.059 2.027-3.222 6.424-2.317 9.685a30.748 30.748 0 0 1 3.495-8.612c-.377-.329-.802-.743-1.178-1.073z" transform="translate(-1802.674 -554.588)" style="fill:#38385d"/>
                </g>
                <g data-name="Group 14015">
                    <g data-name="Group 14006">
                        <g data-name="Group 14005">
                            <g data-name="Group 14004">
                                <g data-name="Group 13998">
                                    <path data-name="Path 4247" d="m899.49 585.849 9.558 2.07 15.8-8.423 8.268 16.813-13.941 8.082c.739 10.594-1.869 39.76-1.869 39.76-16.989 8.605-36.165-9.164-36.165-9.164 2.128-4.916 1.271-43.267 18.347-49.137" transform="translate(-770.067 -498.078)" style="fill:#f85c3d"/>
                                    <g data-name="Group 13997" style="clip-path:url(#7l0ydfhd2k)" transform="translate(111.076 81.418)">
                                        <path data-name="Path 4248" d="M1067.075 574.036s9.9 12.84 10.8 20.854l15.457-10.386-8.751-19.873z" transform="translate(-1039.569 -566.83)" style="fill:#38385d"/>
                                    </g>
                                </g>
                                <g data-name="Group 14003">
                                    <g data-name="Group 14002">
                                        <g data-name="Group 14001">
                                            <g data-name="Group 14000">
                                                <path data-name="Path 4250" d="m1014.745 532.805.711-5.865c2.784.2 6.162.321 6.092-3.393l-1.418-13.747-13.175-.113-1.792 16.681z" transform="translate(-875.74 -438.595)" style="fill:#ffb6a6"/>
                                                <g data-name="Group 13999" style="clip-path:url(#hru4m3zdql)" transform="translate(129.423 71.091)">
                                                    <path data-name="Path 4251" d="M1052.258 605.63a5.612 5.612 0 0 1-3.9-3.592s-.256 5.481 4.14 6.595l-.24-3" transform="translate(-1041.966 -588.376)" style="fill:#ff8370"/>
                                                    <path data-name="Path 4252" d="M1076.693 585.13c-.119 0-3.316-.318-4.26-2.523 0 0 .146 3.893 2.321 4.016s1.939-1.493 1.939-1.493z" transform="translate(-1062.481 -571.819)" style="fill:#fff"/>
                                                    <path data-name="Path 4253" d="M1051.423 517.491a14.969 14.969 0 0 1-3.883-1.862l1.442 2.09s-4.188-.428-6.482-3.4l-1.885 1.727.747-4.152 10.874 2.888z" transform="translate(-1035.37 -511.571)" style="fill:#ff8370"/>
                                                </g>
                                            </g>
                                        </g>
                                    </g>
                                    <path data-name="Path 4255" d="M996.126 468.767a16.406 16.406 0 0 0 5.419 3.17l-1.69-2.1s3.592 2.482 6.878 2.382l-1.913-2.788s3.676 3.47 7.978-1.106c0 0-6.989-8.345-14.639-7.91s-11.746 5.628-10.726 8.873c.5 1.59 3.036 10.176 3.036 10.176l4.239-6.019s-1.446.737-2.053.136-.707-3.36-.22-3.839c1.919-1.888 2.735 2.427 2.735 2.427z" transform="translate(-860.501 -396.598)" style="fill:#38385d"/>
                                </g>
                            </g>
                        </g>
                    </g>
                    <path data-name="Path 4256" d="m1003.662 681.725 23.972 15.859-11.124 17.116c-19.049-12.447-24.818-8.756-12.848-32.975z" transform="translate(-869.143 -585.183)" style="fill:#38385d"/>
                    <g data-name="Group 14011">
                        <g data-name="Group 14008">
                            <path data-name="Path 4257" d="M1185.933 460.258c2.072-1.024 6.007-2.307 7.526-4.112l17.735-19.891 4.431 4.718-14.035 23.181c-1.736 3.384-6.872 5.788-9.92 7.773z" transform="translate(-1029.767 -376.028)" style="fill:#ffb6a6"/>
                            <g data-name="Group 14007" style="clip-path:url(#inbfg1hxbm)" transform="translate(156.166 60.228)">
                                <path data-name="Path 4258" d="M1171.456 587.825s4.649 8.056 10.708 10.879l-7.8 5.562-6.641-14.942z" transform="translate(-1170.414 -565.402)" style="fill:#ff8370"/>
                            </g>
                        </g>
                        <g data-name="Group 14010">
                            <path data-name="Path 4260" d="M1364.515 197.185a7.623 7.623 0 0 0-2.313.358V188.5a4.8 4.8 0 0 0-4.8-4.8h-13.2c4.252-4.62.594-12.819-5.783-12.6-6.375-.216-10.036 7.984-5.783 12.6h-13.2a4.8 4.8 0 0 0-4.8 4.8v9.046c-13.09-3-13.081 17.545 0 14.543v9.046a4.8 4.8 0 0 0 4.8 4.8h13.2c-4.252 4.62-.594 12.819 5.783 12.6 6.375.216 10.036-7.984 5.782-12.6h13.2a4.8 4.8 0 0 0 4.8-4.8v-9.046c11.199 3.07 13.92-14.439 2.314-14.904z" transform="translate(-1131.077 -150.09)" style="fill:#a4c4ff"/>
                            <g data-name="Group 14009" style="clip-path:url(#7istecwszn)" transform="translate(173.755 21)">
                                <path data-name="Path 4261" d="M1296.783 241.894c-1.591 24.1 10.7 40.431 34.186 46.589l-10.028 13.574-20.816-8.047-2.125-6.23-6.053-1.823-9.248-13.409-3.692-13.333z" transform="translate(-1282.827 -231.419)" style="fill:#739bfd"/>
                            </g>
                        </g>
                        <path data-name="Path 4263" d="M1347.229 436.41s6.033-2.713 6.515-2.312-.324 2.1-.684 2.312-3.407 2.1-3.407 2.1z" transform="translate(-1167.201 -374.155)" style="fill:#ffb6a6"/>
                        <path data-name="Path 4264" d="M1363.165 459.481s-3.128 3.064 0 5.062z" transform="translate(-1179.595 -395.817)" style="fill:#ff8370"/>
                    </g>
                    <g data-name="Group 14014">
                        <g data-name="Group 14013">
                            <path data-name="Path 4265" d="M1147.336 813.1a18.621 18.621 0 0 0 7.881 3.123l28.916 3.543-.639 5.786-30.111 1.61c-4.193.478-9.016-2.149-12.748-3.752z" transform="translate(-991.171 -697.126)" style="fill:#ffb6a6"/>
                            <g data-name="Group 14012" style="clip-path:url(#7byfqjlnto)" transform="translate(149.464 115.978)">
                                <path data-name="Path 4266" d="m1123.78 815.9-2.383-1.674 8.355-12.667 3.527 1.9s-5.116 10.954-4.928 15.652z" transform="translate(-1124.243 -803.265)" style="fill:#ff8370"/>
                            </g>
                        </g>
                        <path data-name="Path 4268" d="M1428.193 842.731s7.57-3.141 7.937-2.5-2.889 2.293-2.705 2.705 7.612 1.7 7.657 2.247-4.173 4.723-4.494 4.769-8.756-1.336-8.756-1.336z" transform="translate(-1235.882 -720.168)" style="fill:#ffb6a6"/>
                    </g>
                </g>
                <path data-name="Path 4269" d="m2431.465 1455.472-11.3-44.354s-2.006-15.6-30.315-23.479c0 0 1.552 14.683 10.256 25.065a51.41 51.41 0 0 0-31.054-5.529s4.382 19.849 23.108 28.25c-8.023-1.8-18.743-3.3-27.346-1.3a58.284 58.284 0 0 0 13.977 14.392 309.012 309.012 0 0 0-15.69 6.67h46.841z" transform="translate(-2032.793 -1186.667)" style="opacity:.43;fill:#a4c4ff"/>
                <g data-name="Group 14017">
                    <path data-name="Path 4271" d="M801.761 346.543h-30.574a4.067 4.067 0 0 0-4.067 4.067c.349 3.584-1.711 11.483 4.067 11.574h21.682l4.216 3.954a1.007 1.007 0 0 0 1.7-.734v-3.22c3.237.178 6.833.062 7.048-4.067-.352-3.58 1.703-11.487-4.072-11.574z" transform="translate(-672.841 -299.587)" style="fill:#a4c4ff"/>
                    <g data-name="Group 14016">
                        <path data-name="Path 4272" d="M813.61 393.618a1.159 1.159 0 0 1-2.317 0 1.159 1.159 0 0 1 2.317 0z" transform="translate(-710.551 -338.737)" style="fill:#fff"/>
                        <path data-name="Path 4273" d="M869.85 393.618a1.159 1.159 0 0 1-2.317 0 1.159 1.159 0 0 1 2.317 0z" transform="translate(-758.471 -338.737)" style="fill:#fff"/>
                        <path data-name="Path 4274" d="M921.032 393.618a1.159 1.159 0 0 1-2.317 0 1.159 1.159 0 0 1 2.317 0z" transform="translate(-802.081 -338.737)" style="fill:#fff"/>
                        <path data-name="Path 4275" d="M972.213 393.618a1.159 1.159 0 0 1-2.317 0 1.159 1.159 0 0 1 2.317 0z" transform="translate(-845.691 -338.737)" style="fill:#fff"/>
                    </g>
                </g>
                <g data-name="Group 14019" transform="translate(56.456 167.199)">
                    <rect data-name="Rectangle 2506" width="34.479" height="14.358" rx="7.179" style="fill:#fff"/>
                    <g data-name="Group 14018">
                        <path data-name="Rectangle 2507" style="fill:#e3eefd" d="M0 0h25.128v2.042H0z" transform="translate(4.676 2.656)"/>
                        <path data-name="Rectangle 2508" transform="translate(4.676 6.158)" style="fill:#e3eefd" d="M0 0h25.128v2.042H0z"/>
                        <path data-name="Rectangle 2509" transform="translate(4.676 9.66)" style="fill:#e3eefd" d="M0 0h11.959v2.042H0z"/>
                    </g>
                </g>
                <g data-name="Group 14021" transform="translate(296.241 180.812)">
                    <rect data-name="Rectangle 2510" width="51.247" height="21.341" rx="10.67" style="fill:#fff"/>
                    <g data-name="Group 14020">
                        <path data-name="Rectangle 2511" style="fill:#e3eefd" d="M0 0h37.348v3.035H0z" transform="translate(6.95 3.947)"/>
                        <path data-name="Rectangle 2512" transform="translate(6.95 9.152)" style="fill:#e3eefd" d="M0 0h37.348v3.035H0z"/>
                        <path data-name="Rectangle 2513" transform="translate(6.95 14.358)" style="fill:#e3eefd" d="M0 0h17.775v3.035H0z"/>
                    </g>
                </g>
                <g data-name="Group 14022" style="opacity:.43">
                    <path data-name="Path 4276" d="M1714.429 1465.784h4.26v-7.672h-4.649a18.281 18.281 0 0 0-2.676-5.734l3.5-3.5-5.425-5.425-3.694 3.694a18.261 18.261 0 0 0-5.54-2.18v-5.339h-7.672v5.339a18.263 18.263 0 0 0-5.54 2.18l-3.694-3.694-5.424 5.425 3.5 3.5a18.285 18.285 0 0 0-2.676 5.734h-4.649v7.672h4.26a18.237 18.237 0 0 0 2.35 6.449l-2.785 2.785 5.424 5.425 2.591-2.591a18.273 18.273 0 0 0 6.643 2.895v3.521h7.672v-3.521a18.273 18.273 0 0 0 6.643-2.895l2.591 2.591 5.425-5.425-2.785-2.785a18.236 18.236 0 0 0 2.35-6.449zm-18.059 10.074c-17.185-.517-17.18-25.486 0-26 17.185.517 17.18 25.485 0 26z" transform="translate(-1445.675 -1230.965)" style="fill:#a4c4ff"/>
                    <path data-name="Path 4277" d="M1587.039 1464.53h1.511v-2.721h-1.65a6.483 6.483 0 0 0-.949-2.034l1.241-1.241-1.924-1.924-1.31 1.31a6.478 6.478 0 0 0-1.965-.773v-1.894h-2.721v1.894a6.478 6.478 0 0 0-1.965.773l-1.31-1.31-1.924 1.924 1.241 1.241a6.483 6.483 0 0 0-.949 2.034h-1.649v2.721h1.511a6.468 6.468 0 0 0 .834 2.287l-.988.988 1.924 1.924.919-.919a6.48 6.48 0 0 0 2.356 1.027v1.249h2.721v-1.249a6.48 6.48 0 0 0 2.356-1.027l.919.919 1.924-1.924-.988-.988a6.466 6.466 0 0 0 .835-2.287zm-6.405 3.573c-6.082-.149-6.08-9.074 0-9.222 6.081.149 6.08 9.074 0 9.219z" transform="translate(-1359.332 -1244.278)" style="fill:#a4c4ff"/>
                </g>
            </g>
        </g>
    </g>
</svg>
