<svg xmlns="http://www.w3.org/2000/svg" width="943.985" height="703.474" viewBox="0 0 943.985 703.474">
    <g data-name="Group 14247">
        <g data-name="Background Complete">
            <g data-name="Group 14218">
                <path data-name="Rectangle 2607" transform="translate(0 618.207)" style="fill:#ebebeb" d="M0 0h943.985v.472H0z"/>
                <path data-name="Rectangle 2608" transform="translate(99.041 636.188)" style="fill:#ebebeb" d="M0 0h62.534v.472H0z"/>
                <path data-name="Rectangle 2609" transform="translate(323.107 631.064)" style="fill:#ebebeb" d="M0 0h104.623v.472H0z"/>
                <path data-name="Rectangle 2610" transform="translate(171.805 647.401)" style="fill:#ebebeb" d="M0 0h36.235v.472H0z"/>
                <path data-name="Rectangle 2611" transform="translate(727.737 635.952)" style="fill:#ebebeb" d="M0 0h81.548v.472H0z"/>
                <path data-name="Rectangle 2612" transform="translate(826.094 635.952)" style="fill:#ebebeb" d="M0 0h11.957v.472H0z"/>
                <path data-name="Rectangle 2613" transform="translate(523.37 642.576)" style="fill:#ebebeb" d="M0 0h88.429v.472H0z"/>
                <path data-name="Path 4391" d="M413.549 588.96H48.984a10.79 10.79 0 0 1-10.777-10.777V65.728a10.788 10.788 0 0 1 10.777-10.775h364.565a10.788 10.788 0 0 1 10.775 10.775v512.455a10.789 10.789 0 0 1-10.775 10.777zM48.984 55.425a10.315 10.315 0 0 0-10.3 10.3v512.458a10.315 10.315 0 0 0 10.3 10.3h364.565a10.315 10.315 0 0 0 10.3-10.3V65.728a10.314 10.314 0 0 0-10.3-10.3z" transform="translate(33.927 -54.953)" style="fill:#ebebeb"/>
                <path data-name="Path 4392" d="M629.843 588.96H265.28a10.788 10.788 0 0 1-10.78-10.777V65.728a10.787 10.787 0 0 1 10.78-10.775h364.563a10.788 10.788 0 0 1 10.778 10.775v512.455a10.79 10.79 0 0 1-10.778 10.777zM265.28 55.425a10.314 10.314 0 0 0-10.3 10.3v512.458a10.315 10.315 0 0 0 10.3 10.3h364.563a10.317 10.317 0 0 0 10.306-10.3V65.728a10.316 10.316 0 0 0-10.306-10.3z" transform="translate(225.993 -54.953)" style="fill:#ebebeb"/>
            </g>
            <g data-name="Group 14227">
                <g data-name="Group 14222">
                    <g data-name="Group 14220">
                        <path data-name="Rectangle 2614" transform="translate(197.826 36.704)" style="fill:#fafafa" d="M0 0h364.487v261.657H0z"/>
                        <path data-name="Path 4393" d="M363.18 336.051 270.472 74.394H200.9l92.708 261.657z" transform="translate(178.392 -37.69)" style="fill:#fff"/>
                        <path data-name="Path 4394" d="M243.3 336.051 150.594 74.394h-25.377l92.708 261.657z" transform="translate(111.189 -37.69)" style="fill:#fff"/>
                        <g data-name="Group 14219">
                            <path data-name="Path 4395" d="M96.34 69.628h399.245a1.624 1.624 0 0 1 1.62 1.62 1.624 1.624 0 0 1-1.62 1.62H96.34a1.624 1.624 0 0 1-1.62-1.62 1.624 1.624 0 0 1 1.62-1.62z" transform="translate(84.108 -41.922)" style="fill:#e0e0e0"/>
                            <path data-name="Rectangle 2615" transform="translate(377.911 36.141)" style="fill:#f0f0f0" d="M0 0h4.319v262.782H0z"/>
                            <path data-name="Rectangle 2616" transform="translate(375.751 36.141)" style="fill:#e0e0e0" d="M0 0h2.159v262.782H0z"/>
                            <path data-name="Rectangle 2617" transform="rotate(-90 182.5 -12.808)" style="fill:#f0f0f0" d="M0 0h4.319v369.525H0z"/>
                            <path data-name="Path 4396" d="M103.449 335.436V73.059h369.525v266.697H103.449zm365.205 0V77.379H107.767v258.057z" transform="translate(91.859 -38.875)" style="fill:#f0f0f0"/>
                            <path data-name="Rectangle 2618" transform="translate(193.148 34.184)" style="fill:#e0e0e0" d="M0 0h2.159v266.696H0z"/>
                        </g>
                    </g>
                    <g data-name="Group 14221">
                        <path data-name="Path 4397" d="M168.521 67.531v307.281H90.51l14.306-307.281z" transform="translate(80.369 -43.784)" style="opacity:.5;fill:#ebebeb"/>
                        <path data-name="Path 4398" d="M269.651 67.531v307.281h78.012L333.355 67.531z" transform="translate(239.441 -43.784)" style="opacity:.5;fill:#ebebeb"/>
                    </g>
                </g>
                <g data-name="Group 14225">
                    <g data-name="Group 14224">
                        <g data-name="Group 14223" transform="translate(113.167 359.97)">
                            <path data-name="Rectangle 2619" transform="translate(3.744 7.875)" style="fill:#f0f0f0" d="M0 0h29.753v241.339H0z"/>
                            <path data-name="Rectangle 2620" transform="translate(9.456 249.214)" style="fill:#f0f0f0" d="M0 0h327.802v9.024H0z"/>
                            <path data-name="Rectangle 2621" transform="rotate(180 171.486 124.607)" style="fill:#f5f5f5" d="M0 0h309.474v241.339H0z"/>
                            <path data-name="Rectangle 2622" style="fill:#f0f0f0" d="M0 0h30.41v7.875H0z"/>
                            <path data-name="Rectangle 2623" transform="rotate(180 173.357 3.938)" style="fill:#fafafa" d="M0 0h316.305v7.875H0z"/>
                            <path data-name="Path 4399" d="M371.426 377.829H83.35V258.545h288.076zm-286.079-2h284.082V260.544H85.347z" transform="translate(-39.155 -234.139)" style="fill:#e0e0e0"/>
                            <path data-name="Path 4400" d="M371.426 405.1H83.35v-77.048h288.076zm-286.079-2h284.082v-73.051H85.347z" transform="translate(-39.155 -172.419)" style="fill:#e0e0e0"/>
                            <rect data-name="Rectangle 2624" width="210.453" height="6.405" rx="1.398" transform="translate(83.007 25.404)" style="fill:#e0e0e0"/>
                            <rect data-name="Rectangle 2625" width="210.453" height="6.405" rx="1.398" transform="translate(83.007 156.632)" style="fill:#e0e0e0"/>
                        </g>
                    </g>
                </g>
                <g data-name="Group 14226">
                    <path data-name="Rectangle 2626" transform="rotate(180 414.916 303.313)" style="fill:#f0f0f0" d="M0 0h173.084v528.096H0z"/>
                    <path data-name="Rectangle 2627" transform="translate(651.254 78.531)" style="fill:#e0e0e0" d="M0 0h5.492v528.096H0z"/>
                    <path data-name="Rectangle 2628" transform="rotate(180 400.875 293.241)" style="fill:#fafafa" d="M0 0h116.921v487.807H0z"/>
                </g>
            </g>
        </g>
        <ellipse data-name="&lt;Path&gt;" cx="366.057" cy="21.378" rx="366.057" ry="21.378" style="fill:#f5f5f5" transform="translate(105.936 660.717)"/>
        <g data-name="Group 14234">
            <path data-name="Path 4401" d="m147.612 426.972 14.782-5.607-9.05-35.724-14.782 5.607z" transform="translate(123.039 238.688)" style="fill:#b55b52"/>
            <path data-name="Path 4402" d="M84.527 424.9h15.81l2.369-36.612H86.9z" transform="translate(75.058 241.043)" style="fill:#b55b52"/>
            <path data-name="Path 4403" d="M104.569 406.715H85.293a1.3 1.3 0 0 0-1.293 1.08l-2.426 14.052a2.459 2.459 0 0 0 2.454 2.813c6.2-.108 10.7-.47 18.515-.47 4.8 0 19.321.5 25.958.5 6.489 0 7.176-6.561 4.429-7.155-12.313-2.666-21.676-6.34-25.75-9.846a4.016 4.016 0 0 0-2.611-.974z" transform="translate(72.408 257.401)" style="fill:#263238"/>
            <path data-name="Path 4404" d="m158.8 405.653-16.144 6.123a1.381 1.381 0 0 0-.876 1.488l2.064 14.247a2.3 2.3 0 0 0 3.125 1.824c5.785-2.309 10.7-5.235 18.064-7.88 8.615-3.094 17.165-6.4 24.138-10.843 5.473-3.487 3.168-10.087.587-9.051-11.749 4.716-14.63 6.266-26.96 3.895a7.329 7.329 0 0 0-3.998.197z" transform="translate(125.883 252.727)" style="fill:#263238"/>
            <path data-name="Path 4405" d="M138.628 152.492c4.975 8.792 10.218 17.853 15.5 26.62 5.281 8.807 10.709 17.511 16.461 25.673 1.4 2.067 2.941 4.042 4.331 5.957a5.227 5.227 0 0 0 1.227 1.424 4.568 4.568 0 0 0 2.868.449 19.837 19.837 0 0 0 5.281-1.256 65.265 65.265 0 0 0 12.193-6.385c2.035-1.339 4.1-2.719 6.126-4.184 1.994-1.448 4.061-3.07 5.9-4.49l8.866 7.894a83.554 83.554 0 0 1-5.188 6.744c-1.8 2.147-3.678 4.259-5.719 6.251a74.275 74.275 0 0 1-6.491 5.8 55.2 55.2 0 0 1-7.61 5.177 38.179 38.179 0 0 1-9.6 3.906 25.787 25.787 0 0 1-12.753-.038 23.974 23.974 0 0 1-11.636-7.346c-1.9-2.2-3.748-4.248-5.475-6.417a298.422 298.422 0 0 1-19.065-26.524c-5.838-9.109-11.232-18.228-16.337-27.919z" transform="translate(104.348 31.659)" style="fill:#b65b52"/>
            <g data-name="Group 14228">
                <path data-name="Path 4406" d="M114.039 158.707c-4.263 14.5 25.746 54.037 25.746 54.037l30.259-19.471s-8.894-20.173-20.968-35.554c-12.396-15.793-30.359-14.928-35.037.988z" transform="translate(100.896 26.171)" style="fill:#3b94d8"/>
                <path data-name="Path 4407" d="M114.039 158.707c-4.263 14.5 25.746 54.037 25.746 54.037l30.259-19.471s-8.894-20.173-20.968-35.554c-12.396-15.793-30.359-14.928-35.037.988z" transform="translate(100.896 26.171)" style="opacity:.2;fill:#3b94d8"/>
            </g>
            <path data-name="Path 4408" d="M129.254 162.035c6.225 2.66 15.383 17.649 20.15 28.758l-12.842 8.252S125 183.82 117.26 168.792c4.057-4.452 8.705-8.154 11.994-6.757z" transform="translate(104.124 39.866)" style="opacity:.2"/>
            <path data-name="Path 4409" d="m164.73 185.608 5.545-15.525 15.734 7.508s-3.266 13.846-14.781 13.824z" transform="translate(146.276 47.279)" style="fill:#b55b52"/>
            <path data-name="Path 4410" d="m181.669 164.667 6.657 7.359L183.4 182.4l-15.734-7.509z" transform="translate(148.884 42.469)" style="fill:#b55b52"/>
            <path data-name="Path 4411" d="m153.347 385.647 4.668 18.413-14.788 5.609-4.668-18.413z" transform="translate(123.036 238.693)" style="opacity:.2"/>
            <path data-name="Path 4412" d="M86.357 388.3h15.816l-1.229 18.872H85.128z" transform="translate(75.592 241.048)" style="opacity:.2"/>
            <g data-name="Group 14229">
                <path data-name="Path 4413" d="M76.517 153.408c17.029 60.054 14.241 123.775 15.306 136.721 12.391-.444 59.061-2.2 84.5-3.166C190.681 197.445 164.9 147.62 164.9 147.62s-5.422-1.053-12.795-1.809a147.685 147.685 0 0 0-7.4-.581 108.85 108.85 0 0 0-4.371-.162c-9.54-.157-25.119 1.359-35.853 2.672-2.249.279-4.537.617-6.748.978-2.054.351-4.069.723-5.966 1.1-8.608 1.717-15.25 3.59-15.25 3.59z" transform="translate(67.945 25.056)" style="fill:#3b94d8"/>
                <path data-name="Path 4414" d="M76.517 153.408c17.029 60.054 14.241 123.775 15.306 136.721 12.391-.444 59.061-2.2 84.5-3.166C190.681 197.445 164.9 147.62 164.9 147.62s-5.422-1.053-12.795-1.809a147.685 147.685 0 0 0-7.4-.581 108.85 108.85 0 0 0-4.371-.162c-9.54-.157-25.119 1.359-35.853 2.672-2.249.279-4.537.617-6.748.978-2.054.351-4.069.723-5.966 1.1-8.608 1.717-15.25 3.59-15.25 3.59z" transform="translate(67.945 25.056)" style="opacity:.2;fill:#3b94d8"/>
            </g>
            <path data-name="Path 4415" d="M90.594 163.126c1.518 5.809-.215 32.32-6.283 38.86a427.974 427.974 0 0 0-3.387-26.413z" transform="translate(71.858 41.101)" style="opacity:.2"/>
            <path data-name="Path 4416" d="M91.879 124.956c3.119 11.366 6.95 32.33-.548 40.627 6.733 5.764 15.463 12.355 29.2 11.817s10.637-9.782 6.651-14.483c-13.091-2.115-13.469-11.683-11.9-20.811z" transform="translate(81.1 7.207)" style="fill:#b55b52"/>
            <g data-name="Group 14230">
                <path data-name="Path 4417" d="m110.088 151.7 2.493 1.687-9.1 2.649 2.344-4.213z" transform="translate(91.889 30.954)" style="fill:#407bff"/>
                <path data-name="Path 4418" d="m109.242 151.229-.942 2.571 9.137 2.649-.617-4.889z" transform="translate(96.169 30.537)" style="fill:#407bff"/>
                <path data-name="Path 4419" d="m88.865 147.036 3.6-1.8a3.456 3.456 0 0 1 3.614.306 71.771 71.771 0 0 0 27.8 12.232c-7.222 3.447-5.434 12.695-5.434 12.695S95.5 162.9 88.134 149.2a1.6 1.6 0 0 1 .731-2.164z" transform="translate(78.102 24.882)" style="fill:#fff"/>
                <path data-name="Path 4420" d="m115.677 145.13-5.273-.795a.7.7 0 0 0-.674 1.1c1.845 2.611 4.9 8.386-.931 11.926 7.223 3.447 9.468 11.883 9.468 11.883s9.4-10.146-1.559-23.528a1.671 1.671 0 0 0-1.031-.586z" transform="translate(96.611 24.408)" style="fill:#fff"/>
            </g>
            <path data-name="Path 4421" d="m96.77 128.663 13.852 10.142a36.909 36.909 0 0 0-.632 6.446c-4.965-.345-12.117-5.237-13.021-10.342a17.334 17.334 0 0 1-.199-6.246z" transform="translate(85.75 10.499)" style="opacity:.2"/>
            <path data-name="Path 4422" d="M119.24 119.444c-.632 5.485-5.9 10.216-9.306 11.4l-4.244-23.9c9.536-6.723 14.439 4.79 13.55 12.5z" transform="translate(93.85 -10.588)" style="fill:#263238"/>
            <path data-name="Path 4423" d="M89.255 128.056C92 143.5 92.827 152.685 101.6 159.765c13.2 10.65 31.588 1.312 33.51-14.645 1.731-14.364-3.055-37.212-19-41.649a21.4 21.4 0 0 0-26.855 24.585z" transform="translate(78.946 -12.611)" style="fill:#b55b52"/>
            <path data-name="Path 4424" d="M97.487 143.13c7.154 3.8 10.306-4.744 10.367-8.207.1-5.519-2.292-11.571-5.141-13.786 13.812-.083 41.141-.683 34.248-13.843s-20.7-11.653-31.1-4.459c-5.5 3.8-23.284.493-18.874 10.752-9.279 4.924-1.236 23.307 10.5 29.543z" transform="translate(73.651 -17.268)" style="fill:#263238"/>
            <path data-name="Path 4425" d="M89.091 106.611s-3.047.281-6.817-2.32c1.087 4.886 6.034 5 6.034 5z" transform="translate(73.057 -11.143)" style="fill:#263238"/>
            <path data-name="Path 4426" d="M86.4 127.567a14.925 14.925 0 0 0 8.619 7.448c4.977 1.609 6.117-2.955 4.911-7.76-1.087-4.325-3.432-10.214-8.511-9.731-5.004.476-7.152 5.701-5.019 10.043z" transform="translate(75.992 .584)" style="fill:#b55b52"/>
            <path data-name="Path 4427" d="M173.92 387.359c-6.427-47.822-18.41-167.135-18.41-167.135l-55.552 2.082s26.2 119.235 35.685 167.578S171.5 554.918 171.5 554.918l25.034-9.481s-15.927-108.355-22.614-158.078z" transform="translate(88.761 91.803)" style="fill:#263238"/>
            <path data-name="Path 4428" d="M116.753 238.354c-3.466.867-8.941 2.992-12.349 6.321 5.239 24.109 12.094 55.84 17.983 83.809 4.013-24.227 4.136-69.942-5.634-90.13z" transform="translate(92.708 107.902)" style="opacity:.2"/>
            <path data-name="Path 4429" d="M141.548 220.819s-11.787 129.434-17.186 175.44c-5.911 50.382-13.3 155.973-13.3 155.973H82.111s-1.2-93.388 2.564-142.706c4.288-56.177 2.349-186.656 2.349-186.656z" transform="translate(72.75 92.331)" style="fill:#263238"/>
            <path data-name="Path 4430" d="M115.775 401.792h-34.1l-.717-10.186 38.068-.663z" transform="translate(71.891 243.396)" style="fill:#407bff"/>
            <path data-name="Path 4431" d="m168.642 397.554-29.828 11.313-3.655-9.637 33.15-13.153z" transform="translate(120.018 239.075)" style="fill:#407bff"/>
            <path data-name="Path 4432" d="M101.867 118.127c.145 1.267.935 2.216 1.763 2.122s1.38-1.2 1.235-2.468-.935-2.216-1.763-2.12-1.382 1.199-1.235 2.466z" transform="translate(90.434 -1.052)" style="fill:#263238"/>
            <path data-name="Path 4433" d="M109.451 117.253c.145 1.267.935 2.216 1.763 2.122s1.382-1.2 1.235-2.468-.935-2.216-1.763-2.12-1.38 1.199-1.235 2.466z" transform="translate(97.169 -1.828)" style="fill:#263238"/>
            <path data-name="Path 4434" d="M107.067 116.7s3.723 6.976 7.3 10.137c-2 2.351-5.921 1.833-5.921 1.833z" transform="translate(95.073 -.122)" style="fill:#a02724"/>
            <path data-name="Path 4435" d="M108.807 127.016a10.51 10.51 0 0 1-7.635-3.327.375.375 0 0 1 .578-.48 10.119 10.119 0 0 0 8.634 2.981.374.374 0 1 1 .085.744 12.034 12.034 0 0 1-1.662.082z" transform="translate(89.762 5.538)" style="fill:#263238"/>
            <path data-name="Path 4436" d="M99.58 117.088a.749.749 0 0 1-.631-1.129 7.427 7.427 0 0 1 5.7-3.768.748.748 0 0 1 .07 1.5 5.939 5.939 0 0 0-4.482 3.034.749.749 0 0 1-.657.363z" transform="translate(87.773 -4.129)" style="fill:#263238"/>
            <path data-name="Path 4437" d="M115.2 115.327a.746.746 0 0 1-.617-.346A5.941 5.941 0 0 0 110 112.1a.749.749 0 0 1 .019-1.5 7.443 7.443 0 0 1 5.828 3.572.749.749 0 0 1-.646 1.152z" transform="translate(97.023 -5.538)" style="fill:#263238"/>
            <g data-name="Group 14231">
                <path data-name="Path 4438" d="M98.684 410.062a19.04 19.04 0 0 1-4.165-.566.4.4 0 0 1-.3-.3.358.358 0 0 1 .153-.378c.559-.361 5.5-3.493 7.3-2.6a1.27 1.27 0 0 1 .695 1.059 2.157 2.157 0 0 1-.676 1.979 4.609 4.609 0 0 1-3.007.806zm-3.106-1.093c2.711.538 4.771.44 5.6-.285a1.463 1.463 0 0 0 .44-1.359.482.482 0 0 0-.259-.44c-.931-.467-3.768.885-5.781 2.083z" transform="translate(83.658 256.817)" style="fill:#407bff"/>
                <path data-name="Path 4439" d="M94.606 411.249a.4.4 0 0 1-.393-.4c.006-.193.157-4.754 1.92-6.255a1.966 1.966 0 0 1 1.571-.481 1.3 1.3 0 0 1 1.24.982c.421 1.761-2.57 5.226-4.161 6.113a.366.366 0 0 1-.177.041zm2.873-6.408a1.263 1.263 0 0 0-.844.329c-1.129.961-1.5 3.621-1.622 4.952 1.565-1.235 3.451-3.851 3.2-4.894-.023-.094-.077-.317-.566-.378a1.279 1.279 0 0 0-.168-.009z" transform="translate(83.658 255.072)" style="fill:#407bff"/>
                <path data-name="Path 4440" d="M152.148 407.376a.375.375 0 0 1-.289-.625c.54-.6 5.339-5.868 7.514-5.547a1.188 1.188 0 0 1 .933.712 2.1 2.1 0 0 1-.011 1.952c-1.076 2.05-5.534 3.076-8.1 3.5zm6.969-5.439c-1.261.036-4.018 2.486-5.938 4.493 3.47-.695 5.849-1.76 6.453-2.911a1.365 1.365 0 0 0 0-1.286.446.446 0 0 0-.364-.289.748.748 0 0 0-.152-.007z" transform="translate(134.761 252.495)" style="fill:#407bff"/>
                <path data-name="Path 4441" d="M152.372 408.355a.337.337 0 0 1-.106-.011.376.376 0 0 1-.266-.264c-.047-.174-1.159-4.307.136-6.565a2.741 2.741 0 0 1 1.714-1.337c1-.266 1.463.115 1.675.483.9 1.571-1.418 6.108-2.9 7.584a.378.378 0 0 1-.253.11zm2.056-7.516a1.655 1.655 0 0 0-.385.062 1.988 1.988 0 0 0-1.257.987c-.851 1.482-.474 4.063-.223 5.3 1.407-1.784 2.857-5.209 2.313-6.149-.033-.061-.12-.21-.448-.2zm-.481-.3z" transform="translate(134.537 251.517)" style="fill:#407bff"/>
            </g>
            <g data-name="Group 14233">
                <path data-name="Path 4442" d="M108.7 166.462a3048.857 3048.857 0 0 0-14.262 29.783c-2.324 4.994-4.658 9.974-6.857 14.977l-3.278 7.5-1.565 3.75-.391.938-.274.7c-.194.446-.319.9-.485 1.348a22.887 22.887 0 0 0-.619 11.484 39.468 39.468 0 0 0 4.979 12.559 77.957 77.957 0 0 0 8.989 12.168 98.968 98.968 0 0 0 5.407 5.726 96.814 96.814 0 0 0 2.885 2.707 105.4 105.4 0 0 0 2.841 2.547l-6.3 10.061a77.619 77.619 0 0 1-7.916-4.631 104.368 104.368 0 0 1-7.352-5.284 81.366 81.366 0 0 1-13.191-13.133 55.263 55.263 0 0 1-9.538-17.675 42.471 42.471 0 0 1-.914-21.855c.227-.9.429-1.812.708-2.692l.727-2.341 1.34-4.161c.929-2.745 1.848-5.5 2.87-8.2 1.982-5.426 4.057-10.784 6.287-16.063a381.276 381.276 0 0 1 14.585-31.146z" transform="translate(53.141 34.352)" style="fill:#b65b52"/>
                <g data-name="Group 14232">
                    <path data-name="Path 4443" d="M89.975 150.132c-14.426 4.518-28.61 53.428-28.61 53.428l33.376 14.607s10.8-23.636 17-42.158c6.765-20.177-4.293-31.348-21.766-25.877z" transform="translate(54.491 28.334)" style="fill:#3b94d8"/>
                    <path data-name="Path 4444" d="M89.975 150.132c-14.426 4.518-28.61 53.428-28.61 53.428l33.376 14.607s10.8-23.636 17-42.158c6.765-20.177-4.293-31.348-21.766-25.877z" transform="translate(54.491 28.334)" style="opacity:.2;fill:#3b94d8"/>
                </g>
                <path data-name="Path 4445" d="m86.438 215.915 13.8 8.205-13.422 13.365s-11.66-8.968-8.182-15.995z" transform="translate(69.25 87.977)" style="fill:#b65b52"/>
                <path data-name="Path 4446" d="m105.3 233.345-13.845 9.7-8.8-9.417 13.426-13.365z" transform="translate(73.403 91.836)" style="fill:#b65b52"/>
            </g>
        </g>
        <g data-name="Group 14246">
            <g data-name="Group 14235">
                <path data-name="Rectangle 2629" transform="rotate(-85.87 589.5 -299.982)" style="fill:#407bff" d="M0 0h9.124v1.889H0z"/>
                <path data-name="Rectangle 2630" transform="rotate(-85.856 580.695 -309.2)" style="fill:#407bff" d="M0 0h26.451v1.889H0z"/>
                <path data-name="Path 4447" d="M651.07 537.669H188.636a23.661 23.661 0 0 1-23.851-25.692l24.468-341.339c1.012-14.13 13.4-25.691 27.532-25.691h462.434a23.66 23.66 0 0 1 23.849 25.691L678.6 511.978c-1.012 14.131-13.4 25.691-27.53 25.691z" transform="translate(146.265 24.959)" style="fill:#407bff"/>
                <path data-name="Path 4448" d="M448.529 503.475h-150.1L271.673 318h150.1z" transform="translate(241.238 178.621)" style="fill:#3b94d8"/>
                <path data-name="Path 4449" d="M430.608 410.384H268.237l-3.224 11.052h162.371z" transform="translate(235.324 260.659)" style="fill:#3b94d8"/>
                <path data-name="Path 4450" d="m429.7 407.286-146.3-7.994L271.673 318h145.145z" transform="translate(241.238 178.621)" style="fill:#263238"/>
                <path data-name="Path 4451" d="M648.3 537.669H185.871a23.661 23.661 0 0 1-23.851-25.692l24.468-341.339c1.012-14.13 13.4-25.691 27.532-25.691h462.434a23.66 23.66 0 0 1 23.846 25.691l-24.463 341.34c-1.014 14.131-13.403 25.691-27.537 25.691z" transform="translate(143.81 24.959)" style="fill:#263238"/>
                <path data-name="Rectangle 2631" transform="rotate(-85.87 626.847 -248.211)" style="fill:#fff" d="M0 0h196.318v1.804H0z"/>
                <path data-name="Rectangle 2632" transform="rotate(-85.901 668.997 -202.197)" style="fill:#fff" d="M0 0h67.977v1.804H0z"/>
            </g>
            <g data-name="Group 14245">
                <g data-name="Group 14236">
                    <path data-name="Path 4452" d="M643.943 528.276H184.381a18.415 18.415 0 0 1-18.564-20l24.368-339.952a21.9 21.9 0 0 1 21.43-20h459.562a18.417 18.417 0 0 1 18.565 20L665.373 508.28a21.9 21.9 0 0 1-21.43 19.996z" transform="translate(147.193 27.964)" style="fill:#fff"/>
                    <path data-name="Path 4453" d="M643.943 528.276H184.381a18.415 18.415 0 0 1-18.564-20l24.368-339.952a21.9 21.9 0 0 1 21.43-20h459.562a18.417 18.417 0 0 1 18.565 20L665.373 508.28a21.9 21.9 0 0 1-21.43 19.996z" transform="translate(147.193 27.964)" style="fill:#407bff;opacity:.2"/>
                    <path data-name="Path 4454" d="M292.772 506.123H185.445a8.9 8.9 0 0 1-8.968-9.663l23.688-330.487a10.579 10.579 0 0 1 10.354-9.661h107.327a8.9 8.9 0 0 1 8.968 9.661L303.126 496.46a10.581 10.581 0 0 1-10.354 9.663z" transform="translate(156.683 35.051)" style="opacity:.5;fill:#fff"/>
                </g>
                <path data-name="Path 4455" d="M265.8 193.181h-55.55a8.015 8.015 0 0 1-8.079-8.7l.612-8.519a9.527 9.527 0 0 1 9.327-8.7h55.546a8.013 8.013 0 0 1 8.079 8.7l-.61 8.519a9.53 9.53 0 0 1-9.325 8.7z" transform="translate(179.502 44.772)" style="opacity:.4;fill:#407bff"/>
                <g data-name="Group 14237">
                    <path data-name="Path 4456" d="M263.688 305.966h-84.8a13.982 13.982 0 0 1-14.094-15.183l6.077-84.8A16.627 16.627 0 0 1 187.14 190.8h84.8a13.984 13.984 0 0 1 14.1 15.183l-6.079 84.8a16.625 16.625 0 0 1-16.273 15.183z" transform="translate(146.294 65.672)" style="fill:#407bff"/>
                    <path data-name="Path 4457" d="M226.934 214.971a6.338 6.338 0 0 0-6.2 5.787l-.882 12.313a5.328 5.328 0 0 0 5.371 5.787h8.609a1.568 1.568 0 0 0 1.539-1.435l1.507-21.017a1.319 1.319 0 0 0-1.333-1.435z" transform="translate(195.207 87.139)" style="fill:#fff"/>
                    <path data-name="Path 4458" d="M232.421 204.411h-53.454a2.137 2.137 0 0 1-2.154-2.32 2.541 2.541 0 0 1 2.486-2.32h53.454a2.137 2.137 0 0 1 2.154 2.32 2.541 2.541 0 0 1-2.486 2.32z" transform="translate(156.999 73.641)" style="fill:#fff"/>
                    <path data-name="Path 4459" d="M231.971 210.666h-53.454a2.136 2.136 0 0 1-2.152-2.32 2.54 2.54 0 0 1 2.486-2.32H232.3a2.136 2.136 0 0 1 2.154 2.32 2.54 2.54 0 0 1-2.483 2.32z" transform="translate(156.601 79.195)" style="fill:#fff"/>
                    <path data-name="Path 4460" d="M213.054 216.921H178.07a2.137 2.137 0 0 1-2.154-2.32 2.541 2.541 0 0 1 2.486-2.32h34.984a2.137 2.137 0 0 1 2.154 2.32 2.541 2.541 0 0 1-2.486 2.32z" transform="translate(156.202 84.749)" style="fill:#fff"/>
                    <path data-name="Path 4461" d="M235 266.654h-51.709a9.14 9.14 0 0 1-9.213-9.925l1.947-27.17a10.869 10.869 0 0 1 10.637-9.923h51.715a9.14 9.14 0 0 1 9.213 9.923l-1.948 27.17A10.866 10.866 0 0 1 235 266.654z" transform="translate(154.553 91.281)" style="opacity:.5;fill:#fff"/>
                </g>
                <g data-name="Group 14238">
                    <path data-name="Path 4462" d="M264.059 272.668h-64.346a3.963 3.963 0 0 1-3.995-4.3 4.711 4.711 0 0 1 4.612-4.3h64.346a3.964 3.964 0 0 1 3.995 4.3 4.713 4.713 0 0 1-4.612 4.3z" transform="translate(173.781 130.731)" style="opacity:.4;fill:#407bff"/>
                    <path data-name="Path 4463" d="M246.13 281.615H205.3a3.964 3.964 0 0 1-3.995-4.3 4.713 4.713 0 0 1 4.612-4.3h40.831a3.964 3.964 0 0 1 3.995 4.3 4.713 4.713 0 0 1-4.613 4.3z" transform="translate(178.742 138.674)" style="opacity:.8;fill:#fff"/>
                    <path data-name="Path 4464" d="M262.289 297.355h-64.346a3.964 3.964 0 0 1-3.995-4.3 4.711 4.711 0 0 1 4.612-4.3h64.346a3.962 3.962 0 0 1 3.995 4.3 4.711 4.711 0 0 1-4.612 4.3z" transform="translate(172.21 152.652)" style="opacity:.4;fill:#407bff"/>
                    <path data-name="Path 4465" d="M244.361 306.3H203.53a3.962 3.962 0 0 1-3.995-4.3 4.711 4.711 0 0 1 4.61-4.3h40.831a3.962 3.962 0 0 1 3.995 4.3 4.711 4.711 0 0 1-4.61 4.3z" transform="translate(177.171 160.596)" style="opacity:.8;fill:#fff"/>
                    <path data-name="Path 4466" d="M260.52 322.042h-64.346a3.962 3.962 0 0 1-3.995-4.3 4.711 4.711 0 0 1 4.612-4.3h64.346a3.964 3.964 0 0 1 3.995 4.3 4.711 4.711 0 0 1-4.612 4.3z" transform="translate(170.639 174.574)" style="opacity:.4;fill:#407bff"/>
                    <path data-name="Path 4467" d="M242.591 330.99H201.76a3.963 3.963 0 0 1-3.995-4.3 4.711 4.711 0 0 1 4.612-4.3h40.831a3.964 3.964 0 0 1 3.995 4.3 4.713 4.713 0 0 1-4.612 4.3z" transform="translate(175.599 182.517)" style="opacity:.8;fill:#fff"/>
                </g>
                <g data-name="Group 14240">
                    <path data-name="Path 4468" d="M573.327 301.407c2.79-4.255 9.185-2.456 8.832 2.471l-6.193 86.375c-.319 4.45-3.678 8.065-7.493 8.065H257.267c-3.816 0-6.657-3.615-6.338-8.065l3.68-51.319c.495-6.921 7.539-11.906 14.014-9.887 17.539 5.468 32.569 2.256 46.537-4.667 29.875-14.832 54.87-46.661 89.216-46.661 1.316 0 2.613.034 3.874.117 51.089 3.083 66.653 66.54 106.23 66.54 11.7 0 22.376-5.048 31.675-12.247 11.389-8.808 20.687-20.829 27.172-30.722z" transform="translate(222.796 142.857)" style="fill:#407bff;opacity:.5"/>
                    <path data-name="Path 4469" d="m579.784 348.75-3.818 53.26c-.319 4.45-3.678 8.065-7.493 8.065H257.267c-3.816 0-6.657-3.615-6.338-8.065l7.586-105.834c.519-7.25 10.021-10.3 13.867-4.433 9.929 15.147 25.206 34.712 42.778 44.394 6.734 3.7 13.788 5.949 21.021 5.949 25.146 0 46.531-29.83 72.07-52.493 15.661-13.9 32.879-25.114 53.475-25.114 42.995 0 49.336 69.857 84.43 79.406 6.766 1.85 14.594 1.45 23.966-2.133a6.972 6.972 0 0 1 9.662 6.998z" transform="translate(222.796 131.1)" style="fill:#407bff;opacity:.5"/>
                    <g data-name="Group 14239" style="opacity:.8">
                        <path data-name="Path 4470" d="M426.213 298.785a.692.692 0 0 1-.453-.189.471.471 0 0 1-.132-.208.585.585 0 0 1-.059-.245.619.619 0 0 1 .191-.453.63.63 0 0 1 .9 0 .581.581 0 0 1 .191.453 1.008 1.008 0 0 1-.04.245.752.752 0 0 1-.151.208.651.651 0 0 1-.447.189z" transform="translate(377.892 160.42)" style="fill:#fff"/>
                        <path data-name="Path 4471" d="M274.859 344.909a.635.635 0 0 1-.642-.64.633.633 0 0 1 .642-.623v-.019a.647.647 0 0 1 .64.642.651.651 0 0 1-.64.661zm-6.476-.357h.019a.628.628 0 0 1-.585-.7.639.639 0 0 1 .717-.566.637.637 0 0 1 .566.7.653.653 0 0 1-.642.585.14.14 0 0 1-.075-.019zm12.215-.566a.642.642 0 0 1 .565-.717.64.64 0 0 1 .717.566.641.641 0 0 1-.565.717h-.076a.651.651 0 0 1-.639-.566zm-18.6-.417a.676.676 0 0 1-.51-.772.679.679 0 0 1 .774-.51.681.681 0 0 1 .51.774.663.663 0 0 1-.644.508H262zm24.9-.64a.639.639 0 0 1 .472-.793.658.658 0 0 1 .774.472.667.667 0 0 1-.472.793v-.019a.475.475 0 0 1-.151.019.614.614 0 0 1-.621-.473zm206.487.264a.637.637 0 0 1-.642-.644.648.648 0 0 1 .642-.64.635.635 0 0 1 .64.64.635.635 0 0 1-.64.644zm5.758-.906a.624.624 0 0 1 .566-.7.628.628 0 0 1 .717.564.654.654 0 0 1-.585.717h-.057a.65.65 0 0 1-.634-.581zm-12.215.51a.628.628 0 0 1-.548-.719.642.642 0 0 1 .717-.564.66.66 0 0 1 .565.717.663.663 0 0 1-.64.585.17.17 0 0 1-.087-.016zm-231.2-.774a.652.652 0 0 1-.453-.793.669.669 0 0 1 .812-.453.661.661 0 0 1 .434.812.629.629 0 0 1-.623.453.517.517 0 0 1-.164-.02zm249.76-.623a.622.622 0 0 1 .508-.755.641.641 0 0 1 .757.51.641.641 0 0 1-.51.755c-.038 0-.076.017-.113.017a.662.662 0 0 1-.636-.527zm-24.9.227a.616.616 0 0 1-.472-.774.64.64 0 0 1 .776-.472.649.649 0 0 1 .472.774.645.645 0 0 1-.623.491.382.382 0 0 1-.152-.02zm-187.567-.527a.631.631 0 0 1 .378-.833.648.648 0 0 1 .829.361.638.638 0 0 1-.376.829.483.483 0 0 1-.227.059.656.656 0 0 1-.604-.416zm218.72-1.114a.653.653 0 0 1 .455-.814.654.654 0 0 1 .793.455.65.65 0 0 1-.453.791.506.506 0 0 1-.17.04.65.65 0 0 1-.625-.475zm-37.342-.227a.639.639 0 0 1-.4-.812.66.66 0 0 1 .831-.4.66.66 0 0 1 .4.831.655.655 0 0 1-.623.413.384.384 0 0 1-.207-.034zm-175.506-1.208a.646.646 0 0 1 .283-.87.661.661 0 0 1 .867.3.63.63 0 0 1-.281.85.558.558 0 0 1-.3.075.645.645 0 0 1-.569-.358zm218.984-.453a.627.627 0 0 1 .379-.814l.017-.017a.657.657 0 0 1 .814.4.653.653 0 0 1-.4.831.8.8 0 0 1-.208.036.649.649 0 0 1-.602-.434zm-49.444-.793a.636.636 0 0 1-.321-.85.659.659 0 0 1 .85-.321.642.642 0 0 1 .321.869.666.666 0 0 1-.585.378.446.446 0 0 1-.265-.081zm55.431-1.473a.635.635 0 0 1 .359-.833.609.609 0 0 1 .831.342.634.634 0 0 1-.342.85.545.545 0 0 1-.244.038.658.658 0 0 1-.605-.399zm-219.382-.378a.665.665 0 0 1 .208-.906.643.643 0 0 1 .887.206.646.646 0 0 1-.208.889.566.566 0 0 1-.34.113.681.681 0 0 1-.548-.304zm158.193-1.038a.655.655 0 0 1-.266-.887.664.664 0 0 1 .889-.245.643.643 0 0 1 .245.868.662.662 0 0 1-.566.34.922.922 0 0 1-.303-.078zm67.061-1.171a.637.637 0 0 1 .3-.851.657.657 0 0 1 .869.3.642.642 0 0 1-.321.85l.019.019a.758.758 0 0 1-.283.057.632.632 0 0 1-.585-.377zM309.8 331.9a.66.66 0 0 1 .151-.906.658.658 0 0 1 .908.132.662.662 0 0 1-.151.906.706.706 0 0 1-.378.13.664.664 0 0 1-.53-.262zm147.3-.717v-.019a.619.619 0 0 1-.208-.868.606.606 0 0 1 .868-.227.633.633 0 0 1 .227.887.66.66 0 0 1-.548.321.707.707 0 0 1-.339-.092zm78.37-.812a.635.635 0 0 1 .263-.868.653.653 0 0 1 .87.264.658.658 0 0 1-.264.887.888.888 0 0 1-.3.076.642.642 0 0 1-.565-.357zm-220.534-2.341a.636.636 0 0 1 .094-.906.649.649 0 0 1 .9.094.672.672 0 0 1-.092.923.682.682 0 0 1-.415.134.575.575 0 0 1-.482-.243zm136.727-.283v-.019a.639.639 0 0 1-.189-.887.665.665 0 0 1 .906-.189.662.662 0 0 1 .189.887.636.636 0 0 1-.549.3.778.778 0 0 1-.353-.09zm89.412-.472a.646.646 0 0 1 .228-.887.667.667 0 0 1 .887.227.667.667 0 0 1-.227.887.769.769 0 0 1-.34.094.639.639 0 0 1-.543-.319zm-94.755-3.1a.663.663 0 0 1-.17-.908.68.68 0 0 1 .906-.168.679.679 0 0 1 .17.906.664.664 0 0 1-.549.283.666.666 0 0 1-.352-.107zm100.232-.227a.673.673 0 0 1 .208-.908.645.645 0 0 1 .887.21.643.643 0 0 1-.208.885.528.528 0 0 1-.34.115.686.686 0 0 1-.542-.296zm-226.651.036a.648.648 0 0 1 .076-.9.674.674 0 0 1 .925.076.634.634 0 0 1-.1.9.553.553 0 0 1-.413.151.662.662 0 0 1-.483-.221zm232.03-3.549a.658.658 0 0 1 .151-.9.646.646 0 0 1 .908.17.635.635 0 0 1-.17.885.655.655 0 0 1-.359.115.636.636 0 0 1-.525-.264zm-110.918.151a.624.624 0 0 1-.168-.885.639.639 0 0 1 .887-.189.645.645 0 0 1 .17.906.608.608 0 0 1-.529.283.665.665 0 0 1-.356-.109zm-116.186-.716a.621.621 0 0 1 .075-.906.654.654 0 0 1 .908.076.653.653 0 0 1-.076.906.6.6 0 0 1-.415.151.615.615 0 0 1-.487-.221zm110.873-2.826a.632.632 0 0 1-.191-.887.631.631 0 0 1 .889-.191.645.645 0 0 1 .189.889.606.606 0 0 1-.529.281.6.6 0 0 1-.358-.092zm121.491-.3a.617.617 0 0 1 .132-.887.652.652 0 0 1 .9.132.656.656 0 0 1-.151.906.67.67 0 0 1-.376.113.581.581 0 0 1-.51-.266zm-227.425-.963a.637.637 0 0 1 .094-.906.651.651 0 0 1 .906.094.632.632 0 0 1-.094.9.564.564 0 0 1-.417.153.624.624 0 0 1-.494-.243zm100.551-2.19a.643.643 0 0 1-.206-.887.644.644 0 0 1 .887-.208.644.644 0 0 1 .208.887.657.657 0 0 1-.548.321.575.575 0 0 1-.345-.115zm132.007-.68a.638.638 0 0 1 .115-.906.639.639 0 0 1 .906.113.674.674 0 0 1-.113.906h-.019a.578.578 0 0 1-.378.132.642.642 0 0 1-.515-.246zm-227.536-1.1a.656.656 0 0 1 .132-.906.659.659 0 0 1 .906.132.655.655 0 0 1-.134.9.684.684 0 0 1-.376.134.661.661 0 0 1-.533-.256zm90.035-1.491a.644.644 0 0 1-.225-.889.625.625 0 0 1 .868-.225.614.614 0 0 1 .245.868.664.664 0 0 1-.566.34.811.811 0 0 1-.326-.091zm142.506-1.416a.637.637 0 0 1 .094-.906.637.637 0 0 1 .906.093.654.654 0 0 1-.076.908.748.748 0 0 1-.417.151.633.633 0 0 1-.511-.243zm-227.331-.831a.643.643 0 0 1 .168-.906.667.667 0 0 1 .908.189.641.641 0 0 1-.191.887.626.626 0 0 1-.357.113.653.653 0 0 1-.532-.279zm79.219-.793a.642.642 0 0 1-.264-.868.651.651 0 0 1 .869-.285.7.7 0 0 1 .281.889.689.689 0 0 1-.583.34.593.593 0 0 1-.307-.072zm153.018-2.511a.653.653 0 0 1 .059-.906h.019a.653.653 0 0 1 .906.055.655.655 0 0 1-.076.908.589.589 0 0 1-.415.17.642.642 0 0 1-.497-.223zm-226.819-.113a.642.642 0 0 1 .245-.889.646.646 0 0 1 .868.247.652.652 0 0 1-.245.887h.017a.712.712 0 0 1-.319.075.643.643 0 0 1-.57-.317zm68.061-.115a.642.642 0 0 1-.321-.85.636.636 0 0 1 .85-.321.633.633 0 0 1 .321.851.645.645 0 0 1-.585.378.626.626 0 0 1-.268-.055zm-5.89-2.4a.629.629 0 0 1-.378-.831.662.662 0 0 1 .831-.379.67.67 0 0 1 .378.833.63.63 0 0 1-.6.413.5.5 0 0 1-.235-.029zm-56.507-.453a.652.652 0 0 1 .321-.85.648.648 0 0 1 .868.321.651.651 0 0 1-.34.85.605.605 0 0 1-.266.057.631.631 0 0 1-.587-.366zm50.465-1.529a.661.661 0 0 1-.434-.814.661.661 0 0 1 .812-.432.652.652 0 0 1 .434.812.673.673 0 0 1-.623.453.708.708 0 0 1-.192-.012zm-44.545-.88a.644.644 0 0 1 .417-.812.643.643 0 0 1 .812.413.645.645 0 0 1-.415.814.678.678 0 0 1-.208.038.644.644 0 0 1-.606-.453zm38.382-.68a.643.643 0 0 1-.489-.755.624.624 0 0 1 .774-.491.622.622 0 0 1 .491.753.652.652 0 0 1-.642.512.383.383 0 0 1-.131-.018zm-32.247-1.076a.649.649 0 0 1 .512-.774.639.639 0 0 1 .753.489.638.638 0 0 1-.489.776c-.038 0-.094.017-.132.017a.666.666 0 0 1-.64-.508zm26-.019a.657.657 0 0 1-.548-.738.627.627 0 0 1 .717-.548h.019a.663.663 0 0 1 .547.738.666.666 0 0 1-.642.547h-.094zm-19.692-1.076a.636.636 0 0 1 .566-.7.63.63 0 0 1 .717.565.668.668 0 0 1-.587.719h-.055a.653.653 0 0 1-.638-.584zm13.365.413h.021a.624.624 0 0 1-.6-.678.638.638 0 0 1 .68-.6.653.653 0 0 1 .6.7.642.642 0 0 1-.642.6c-.016-.001-.035-.022-.056-.022zm-6.984-.829a.624.624 0 0 1 .642-.642.635.635 0 0 1 .642.642.639.639 0 0 1-.642.642.638.638 0 0 1-.638-.642z" transform="translate(226.661 158.53)" style="fill:#fff"/>
                        <path data-name="Path 4472" d="M252.552 319.623a.557.557 0 0 1-.245-.059.5.5 0 0 1-.208-.151.374.374 0 0 1-.132-.206.523.523 0 0 1-.057-.245.693.693 0 0 1 .189-.453.471.471 0 0 1 .208-.132.56.56 0 0 1 .491 0 .386.386 0 0 1 .208.132.611.611 0 0 1 .189.453.5.5 0 0 1-.04.245.4.4 0 0 1-.149.206.649.649 0 0 1-.453.21z" transform="translate(223.688 178.909)" style="fill:#fff"/>
                    </g>
                </g>
                <g data-name="Group 14243">
                    <g data-name="Group 14241">
                        <path data-name="Path 4473" d="m346.257 227.35-4.41-4.748a43.227 43.227 0 0 1-29.384 11.815c-18.668 0-33.468-12.685-36.84-29.907l-6.61 1.737-6.041 1.588a48.776 48.776 0 0 0 12.062 23.855c19.163 20.641 53.129 20.641 75.251 0z" transform="translate(233.51 77.848)" style="fill:#fff"/>
                        <path data-name="Path 4474" d="m318.58 179.047-5.77 5.383-3.984 3.719a37.553 37.553 0 0 1 9.783 28.523 43.44 43.44 0 0 1-13.861 28.539l3.453 3.717 4.984 5.369a57.446 57.446 0 0 0 18.283-37.625 49.761 49.761 0 0 0-12.888-37.625z" transform="translate(270.608 55.239)" style="fill:#263238"/>
                        <path data-name="Path 4475" d="M356.128 186.323c-19.163-20.628-53.131-20.628-75.251 0-14.377 13.429-21.049 33.058-17.456 51.4l7.473-1.964 5.179-1.361a40.043 40.043 0 0 1-.606-10.446c1.6-22.274 20.956-40.338 43.231-40.338a37.364 37.364 0 0 1 27.678 11.815l5.105-4.763z" transform="translate(233.06 47.962)" style="fill:#407bff"/>
                    </g>
                    <g data-name="Group 14242">
                        <path data-name="Path 4476" d="m349.061 256.438 5.09-4.75a37.594 37.594 0 0 1-9.77-28.537c1.339-18.67 15.149-34.38 32.7-38.985l-1.273-6.487-1.163-5.926a58.283 58.283 0 0 0-24.84 13.771c-22.123 20.643-24.557 54.61-5.394 75.251z" transform="translate(294.352 48.762)" style="fill:#fff"/>
                        <path data-name="Path 4477" d="m413.585 223.185-5-5.383-3.451-3.717a43.18 43.18 0 0 1-29.371 11.828 37.391 37.391 0 0 1-27.691-11.813l-3.985 3.719-5.753 5.367a49.464 49.464 0 0 0 36.508 15.587 57.184 57.184 0 0 0 38.743-15.588z" transform="translate(300.43 86.352)" style="fill:#263238"/>
                        <path data-name="Path 4478" d="M399.365 261.624c22.106-20.641 24.542-54.608 5.394-75.251-12.468-13.414-31.722-18.678-50.411-13.771l1.439 7.333 1 5.082a41.932 41.932 0 0 1 10.542-1.356c22.276 0 39.045 18.064 37.448 40.34a43.407 43.407 0 0 1-13.86 28.523l4.422 4.763z" transform="translate(314.65 47.913)" style="fill:#407bff"/>
                    </g>
                </g>
                <path data-name="Path 4479" d="M444.782 174.088a3.706 3.706 0 0 1 3.751 4.046L446.2 210.7a4.743 4.743 0 0 1-4.588 4.284h-32.566a3.7 3.7 0 0 1-3.749-4.046l2.333-32.564a4.741 4.741 0 0 1 4.586-4.286h32.566m0-1.665h-32.566a6.385 6.385 0 0 0-6.247 5.83l-2.334 32.566a5.368 5.368 0 0 0 5.411 5.83h32.566a6.384 6.384 0 0 0 6.249-5.83l2.333-32.566a5.369 5.369 0 0 0-5.413-5.83z" transform="translate(358.402 49.357)" style="opacity:.3;fill:#407bff"/>
                <path data-name="Path 4480" d="M442.655 203.77a3.7 3.7 0 0 1 3.749 4.044l-2.334 32.566a4.74 4.74 0 0 1-4.586 4.284H406.92a3.7 3.7 0 0 1-3.749-4.046l2.334-32.564a4.74 4.74 0 0 1 4.586-4.284h32.566m0-1.667H410.09a6.382 6.382 0 0 0-6.247 5.83l-2.336 32.567a5.37 5.37 0 0 0 5.413 5.832h32.566a6.384 6.384 0 0 0 6.247-5.832l2.335-32.566a5.37 5.37 0 0 0-5.413-5.83z" transform="translate(356.513 75.712)" style="opacity:.3;fill:#407bff"/>
                <path data-name="Path 4481" d="M400.662 299.213a3.1 3.1 0 0 1 3.151 3.4 3.973 3.973 0 0 1-3.893 3.638 3.1 3.1 0 0 1-3.151-3.4 3.972 3.972 0 0 1 3.893-3.636m0-1.667a5.662 5.662 0 0 0-5.556 5.184 4.762 4.762 0 0 0 4.814 5.184 5.657 5.657 0 0 0 5.554-5.184 4.761 4.761 0 0 0-4.812-5.184z" transform="translate(350.829 160.463)" style="fill:#407bff"/>
                <g data-name="Group 14244">
                    <path data-name="Path 4482" d="m398.652 298.371-.83-.059.12-1.661.83.059z" transform="translate(353.254 159.668)" style="fill:#407bff"/>
                    <path data-name="Path 4483" d="m398.844 328.578-.829-.058.245-3.41.829.059zm.489-6.817-.831-.06.245-3.41.831.059zm.489-6.821-.831-.059.245-3.408.831.058zm.487-6.817-.829-.059.245-3.412.829.059zm.489-6.819-.829-.06.245-3.408.829.059zm.491-6.819-.829-.059.244-3.41.829.059zm.489-6.819-.831-.059.244-3.41.831.059zm.489-6.818-.831-.06.244-3.41.831.058zm.487-6.821-.829-.059.245-3.408.829.059zm.489-6.818-.829-.058.245-3.412.829.06zm.489-6.819-.829-.058.244-3.41.831.059z" transform="translate(353.425 124.388)" style="fill:#407bff"/>
                    <path data-name="Rectangle 2633" transform="rotate(-85.938 581.252 -217.284)" style="fill:#407bff" d="M0 0h1.665v.832H0z"/>
                </g>
                <path data-name="Path 4484" d="M563.181 270.341H264.224a5.88 5.88 0 0 1-5.911-6.372l1.475-20.581a6.82 6.82 0 0 1 6.687-6.242h298.958a5.877 5.877 0 0 1 5.911 6.37L569.87 264.1a6.825 6.825 0 0 1-6.689 6.241zm-296.706-31.387a4.988 4.988 0 0 0-4.888 4.563l-1.475 20.583a4.071 4.071 0 0 0 4.112 4.433h298.957a4.988 4.988 0 0 0 4.89-4.563l1.475-20.581a4.074 4.074 0 0 0-4.112-4.435z" transform="translate(229.359 106.83)" style="fill:#407bff"/>
                <path data-name="Path 4485" d="M550.9 246.811H267.507a2.579 2.579 0 0 1-2.6-2.8 3.067 3.067 0 0 1 3-2.8H551.3a2.579 2.579 0 0 1 2.6 2.8 3.067 3.067 0 0 1-3 2.8z" transform="translate(235.223 110.437)" style="fill-rule:evenodd;opacity:.8;fill:#fff"/>
                <path data-name="Path 4486" d="M504.068 253.066h-237.01a2.581 2.581 0 0 1-2.6-2.8 3.069 3.069 0 0 1 3-2.8H504.47a2.581 2.581 0 0 1 2.6 2.8 3.068 3.068 0 0 1-3.002 2.8z" transform="translate(234.824 115.991)" style="fill-rule:evenodd;opacity:.8;fill:#fff"/>
            </g>
        </g>
    </g>
</svg>
