<svg xmlns="http://www.w3.org/2000/svg" width="465" height="310" viewBox="0 0 465 310">
    <g data-name="Group 15155">
        <path data-name="Rectangle 2723" style="fill:#fff" d="M0 0h465v310H0z"/>
        <g data-name="Group 14473">
            <g data-name="Group 14449">
                <g data-name="Group 14448">
                    <path data-name="Path 5088" d="M556.654 1054.819a45.19 45.19 0 0 0-23.957-23.4c-11.013-4.46-23.657-2.836-35.257-4.33-10.074-1.3-17.343-5.795-23.358-13.791-5.764-7.662-10.931-16.146-20.355-19.69-7.446-2.8-15.912-2.024-23.313.894-13.637 5.377-23.937 16.81-32.611 28.2-7.92 10.4-14.38 21.786-29.029 22.157s-28.614-7.99-43.373-5.774c-19.507 2.928-35.752 19.167-39.156 38.5-3.19 18.119 4.815 35.691 18.569 46.016h236.4c17.334-18.391 26.428-43.789 15.44-68.782z" transform="translate(-190.545 -843.792)" style="fill:#f7f0e3"/>
                    <g data-name="Group 14447">
                        <path data-name="Path 5089" d="M557.5 1324.571h.65a49.882 49.882 0 0 0 10.3-17.674 46.431 46.431 0 0 0-.432-31.98 92.165 92.165 0 0 0-7.606-14.033 90.085 90.085 0 0 1-7.673-14.225 31.731 31.731 0 0 1-1.777-6.574c-.163-.021-.326-.039-.489-.059a32.172 32.172 0 0 0 1.824 6.806 90.435 90.435 0 0 0 7.712 14.3 91.787 91.787 0 0 1 7.568 13.959 45.956 45.956 0 0 1 .423 31.652 49.336 49.336 0 0 1-10.5 17.828z" transform="translate(-405.102 -1044.768)" style="fill:#fff"/>
                        <path data-name="Path 5090" d="M914 1118.546c4.871 1.038 9.565 1.969 14.1 2.554.078-.15.153-.3.23-.451-4.577-.582-9.315-1.52-14.235-2.568-7.492-1.6-15.6-3.324-23.643-3.324a41.967 41.967 0 0 0-14.7 2.428 29.981 29.981 0 0 0-5.2 2.529 201.798 201.798 0 0 1-12.914-6.034q4.664-3.514 9.427-6.854c23.575-16.462 45.332-25.795 66.352-28.443-.042-.154-.086-.308-.13-.462-21.076 2.671-42.881 12.027-66.494 28.515a330.023 330.023 0 0 0-9.625 7 159.328 159.328 0 0 1-14.189-8.245A123.585 123.585 0 0 1 816 1081.512c33.648-3.775 67.9-8.531 95.88-27.228a57.724 57.724 0 0 0 3.458-2.5c-.135-.1-.271-.19-.407-.285a60.805 60.805 0 0 1-3.315 2.386c-27.968 18.693-62.288 23.412-95.98 27.186a92.468 92.468 0 0 1-15.427-26.23c-5.934-15.72-5.621-31.146.86-42.324.282-.485.579-.963.885-1.436-.271.124-.539.253-.807.382q-.25.4-.49.816c-6.553 11.3-6.878 26.877-.893 42.73a92.831 92.831 0 0 0 15.308 26.125q-2.925.327-5.846.648c-7.016.774-14.271 1.575-21.315 2.482a142.12 142.12 0 0 0-7.788 1.2c-5.578-11.772-11.7-23.257-19.625-33.106-.113.113-.229.223-.343.334 7.852 9.774 13.941 21.173 19.485 32.863-11.348 2.164-22.368 6.233-28.252 15.7-5.5 8.844-5.49 21.069.015 36.336q.286.792.585 1.565h.509a84.232 84.232 0 0 1-.648-1.727c-5.453-15.123-5.472-27.209-.058-35.923 5.814-9.357 16.773-13.372 28.059-15.51 1.969 4.165 3.871 8.365 5.762 12.538l.206.454c6.565 14.493 13.356 28.48 22.247 40.168h.593c-8.972-11.709-15.8-25.78-22.407-40.364l-.206-.454c-1.874-4.138-3.76-8.3-5.712-12.432 2.552-.472 5.116-.85 7.639-1.174 7.04-.906 14.293-1.707 21.306-2.481q3.073-.339 6.156-.682a123.9 123.9 0 0 0 27.288 24.015 159.57 159.57 0 0 0 14.03 8.166c-8.087 6.116-15.953 12.552-23.633 18.835q-3.989 3.264-8.061 6.571h.754q3.836-3.112 7.608-6.2c7.734-6.327 15.656-12.809 23.8-18.961a200.307 200.307 0 0 0 12.843 6.022 35.438 35.438 0 0 0-13.512 16.492 38.708 38.708 0 0 0-.969 2.65h.5c.276-.828.571-1.652.908-2.469a34.893 34.893 0 0 1 13.605-16.446 314.117 314.117 0 0 0 33.826 11.845l.38.112a65.345 65.345 0 0 1 12.464 4.622c.108-.123.216-.245.323-.369a65.162 65.162 0 0 0-12.652-4.709l-.38-.113a314.72 314.72 0 0 1-33.46-11.693 29.471 29.471 0 0 1 4.827-2.312c12.331-4.566 26.009-1.652 38.077.919z" transform="translate(-564.468 -859.361)" style="fill:#fff"/>
                        <path data-name="Path 5091" d="M338.214 1342.573a38.085 38.085 0 0 1-2.57 25.466 43.839 43.839 0 0 1-10.326 13.336c.087.135.175.268.263.4a44.327 44.327 0 0 0 10.49-13.528 38.565 38.565 0 0 0 2.605-25.788 32.733 32.733 0 0 0-9.613-16.723l-.307.365a32.267 32.267 0 0 1 9.458 16.472z" transform="translate(-222.755 -1114.181)" style="fill:#fff"/>
                    </g>
                </g>
                <path data-name="Path 5092" d="M831.6 825.624a17.77 17.77 0 0 1 3.714 17.934 28.78 28.78 0 0 1-12.881 15.025c-4.685 2.727-10.8 4.231-15.4 1.376-3.443-2.134-5.229-6.32-5.328-10.37s1.263-8 2.946-11.681c2.373-5.194 5.566-10.231 10.323-13.389 6.551-4.354 12.643-2.963 16.626 1.105z" transform="translate(-608.545 -706.106)" style="fill:#f7f0e3"/>
            </g>
            <g data-name="Group 14450">
                <path data-name="Path 5093" d="M524.221 386.274h-34.293v-15.32h34.293zm-33.58-.713h32.866v-13.894h-32.866z" transform="translate(-356.064 -340.954)" style="fill:#e9ddca"/>
                <path data-name="Path 5094" d="M406.9 463.317h-34.293V448H406.9zm-33.58-.717h32.866v-13.89H373.32z" transform="translate(-261.052 -403.347)" style="fill:#e9ddca"/>
            </g>
            <g data-name="Group 14453">
                <g data-name="Group 14451">
                    <path data-name="Path 5095" d="M1099.693 436.432a53 53 0 0 0-11.717-20.36q-8.4-9.3-22.921-15.36t-36.893-6.07a144.336 144.336 0 0 0-36.38 4.814 108.11 108.11 0 0 0-32.19 13.755l11.842 32.513-6.347 5.142 9.2 2.705a135.169 135.169 0 0 1 24.834-10.36 85.865 85.865 0 0 1 23.792-3.211q12.588 0 19.061 6.07a19.371 19.371 0 0 1 6.467 14.651 28.113 28.113 0 0 1-6.638 18.395q-6.661 8.04-14.7 16.255-5.585 5.7-10.84 11.779a84.558 84.558 0 0 0-9.269 13.046 70.937 70.937 0 0 0-6.468 15 61.569 61.569 0 0 0-2.448 18.034c0 2.151.045 4.709.171 7.686.021.549.05 1.084.083 1.613h-8.7l9.5 6.422h46.168a30.666 30.666 0 0 1-.353-5v-4.291a31.016 31.016 0 0 1 2.448-11.965 61.868 61.868 0 0 1 6.126-11.255 83.126 83.126 0 0 1 8.221-10.174q4.543-4.831 8.745-9.116 5.585-5.7 11.535-12.139a95.424 95.424 0 0 0 10.5-13.569 76.22 76.22 0 0 0 7.515-15.546 54.724 54.724 0 0 0 2.983-18.395 73.561 73.561 0 0 0-3.327-21.069z" transform="translate(-736.419 -360.138)" style="fill:#e49b31"/>
                    <path data-name="Path 5096" d="M974.67 434.3a86.534 86.534 0 0 0-23.508 3.106 135.177 135.177 0 0 0-24.543 10.026l-14.527-39.062a108.03 108.03 0 0 1 31.808-13.312 145.486 145.486 0 0 1 35.953-4.659q22.112 0 36.46 5.874t22.652 14.865a51.041 51.041 0 0 1 11.579 19.7 69.836 69.836 0 0 1 3.286 20.391 51.969 51.969 0 0 1-2.948 17.8 73.144 73.144 0 0 1-7.427 15.045 92.634 92.634 0 0 1-10.375 13.132q-5.874 6.229-11.4 11.748-4.152 4.152-8.642 8.822a80.8 80.8 0 0 0-8.125 9.846 59.506 59.506 0 0 0-6.054 10.893 29.478 29.478 0 0 0-2.42 11.579v4.152a29.091 29.091 0 0 0 .349 4.839h-45.625a48.365 48.365 0 0 1-.867-7.776 173.244 173.244 0 0 1-.169-7.438 58.43 58.43 0 0 1 2.419-17.453 67.914 67.914 0 0 1 6.392-14.516 81.859 81.859 0 0 1 9.16-12.626q5.182-5.874 10.713-11.4 7.95-7.95 14.528-15.732a26.868 26.868 0 0 0 6.56-17.8 18.573 18.573 0 0 0-6.392-14.179q-6.397-5.865-18.837-5.865z" transform="translate(-697.951 -356.701)" style="fill:#fbc343"/>
                </g>
                <g data-name="Group 14452">
                    <path data-name="Path 5097" d="M1202.343 1437.2q0 12.487-8.085 19.279a27.985 27.985 0 0 1-36.575 0q-8.071-6.8-8.075-19.279t8.076-19.279a28.1 28.1 0 0 1 30.284-3.648 25.962 25.962 0 0 1 14.375 22.927z" transform="translate(-890.302 -1183.564)" style="fill:#e49b31"/>
                    <path data-name="Path 5098" d="M1154.843 1435.929q0 12.487-8.085 19.279a27.985 27.985 0 0 1-36.575 0q-8.071-6.8-8.075-19.279t8.075-19.28a27.985 27.985 0 0 1 36.575 0q8.085 6.812 8.085 19.28z" transform="translate(-851.834 -1182.297)" style="fill:#fbc343"/>
                </g>
            </g>
            <g data-name="Group 14472">
                <g data-name="Group 14456" transform="translate(121.469 81.976)">
                    <circle data-name="Ellipse 578" cx="4.972" cy="4.972" r="4.972" transform="rotate(-79.4 51.223 7.775)" style="fill:#d3dfff"/>
                    <ellipse data-name="Ellipse 579" cx="2.797" cy="2.817" rx="2.797" ry="2.817" transform="rotate(-79.386 59.556 7.546)" style="fill:#d3dfff"/>
                    <g data-name="Group 14455">
                        <circle data-name="Ellipse 580" cx="19.579" cy="19.579" r="19.579" transform="rotate(-45 33.422 13.844)" style="fill:#d3dfff"/>
                        <g data-name="Group 14454" transform="translate(17.704 25.222)">
                            <circle data-name="Ellipse 581" cx="2.467" cy="2.467" r="2.467" style="fill:#fff"/>
                            <circle data-name="Ellipse 582" cx="2.467" cy="2.467" r="2.467" transform="translate(7.518)" style="fill:#fff"/>
                            <circle data-name="Ellipse 583" cx="2.467" cy="2.467" r="2.467" transform="translate(15.035)" style="fill:#fff"/>
                        </g>
                    </g>
                </g>
                <g data-name="Group 14471">
                    <g data-name="Group 14459">
                        <g data-name="Group 14457">
                            <path data-name="Path 5099" d="m496.081 1600.645 1.829 7.052a4.041 4.041 0 0 0 4.223 2.948c6-.408 18.461-1.877 25.613-7.149l-2.033-10.164c-9.834-.555-19.031-.009-27 2.672a3.9 3.9 0 0 0-2.632 4.641z" transform="translate(-360.95 -1330.733)" style="fill:#102048"/>
                            <path data-name="Path 5100" d="M545.4 1622.663a.238.238 0 0 1-.229-.174l-2.456-8.795a.238.238 0 0 1 .458-.128l2.456 8.795a.238.238 0 0 1-.229.3z" transform="translate(-398.808 -1347.138)" style="fill:#fff"/>
                            <path data-name="Path 5101" d="M573.318 1616.412a.238.238 0 0 1-.229-.174l-2.456-8.795a.238.238 0 0 1 .458-.128l2.456 8.795a.238.238 0 0 1-.165.293.245.245 0 0 1-.064.009z" transform="translate(-421.416 -1342.076)" style="fill:#fff"/>
                        </g>
                        <path data-name="Path 5102" d="m519.868 1425.952-22.857 6.784 16.975 23.259 24.37 1.938 33.614-14.214-12.77-19.219z" transform="translate(-361.799 -1194.162)" style="fill:#fbc343"/>
                        <path data-name="Path 5103" d="M648.972 1436.264c50.2-14.86 58.264 29.5-20.056 37.58a37.889 37.889 0 0 1-7.283-13.029l41.359-19.113z" transform="translate(-462.724 -1201.244)" style="fill:#fbc343"/>
                        <path data-name="Path 5104" d="M722.682 1606.808a21.717 21.717 0 0 1-4.6-2.237l-8.067 2.53 1.849 8.776 8.381 1.7a18.016 18.016 0 0 0 2.437-10.769z" transform="translate(-534.302 -1339.993)" style="fill:#f9b384"/>
                        <path data-name="Path 5105" d="m621.049 1489.441-.358-.616c8.628-5.015 30.73-17.061 49.56-20.614l.132.7c-18.722 3.532-40.737 15.534-49.334 20.53z" transform="translate(-461.962 -1229.562)" style="fill:#e49b31"/>
                        <path data-name="Path 5106" d="M458.851 1427.213c-46.723-8.884-58.824 36.018 19.5 44.094a28.448 28.448 0 0 0 6.214-11.307 356.6 356.6 0 0 0-40.224-22.989z" transform="translate(-300.783 -1195.423)" style="fill:#fbc343"/>
                        <path data-name="Path 5107" d="M559.355 1490.152c-2.223-1.415-4.538-2.91-6.99-4.493-12.308-7.947-26.259-16.954-38.111-22.09l.284-.654c11.906 5.159 25.883 14.183 38.214 22.145 2.451 1.583 4.766 3.077 6.986 4.49z" transform="translate(-375.764 -1225.274)" style="fill:#e49b31"/>
                        <path data-name="Path 5108" d="m434.279 1520.648-.624-.345a13.109 13.109 0 0 1 8.349-6.365l.19.687a12.264 12.264 0 0 0-7.915 6.023z" transform="translate(-310.491 -1266.595)" style="fill:#e49b31"/>
                        <path data-name="Path 5109" d="M916.059 1506.432a12.266 12.266 0 0 0-7.915-6.023l.19-.687a13.11 13.11 0 0 1 8.349 6.365z" transform="translate(-694.754 -1255.082)" style="fill:#e49b31"/>
                        <path data-name="Path 5110" d="m694.511 1604.863-.521-.486a26.709 26.709 0 0 0 7.018-12.919l.7.146a27.4 27.4 0 0 1-7.197 13.259z" transform="translate(-521.322 -1329.374)" style="fill:#e49b31"/>
                        <g data-name="Group 14458">
                            <path data-name="Path 5111" d="M789.549 1597.7c-5.986-3.7-17.591 2.692-20.5 3.015a7.012 7.012 0 0 1-2.8-.4 18.015 18.015 0 0 1-2.435 10.772l1.424.289s9.841 3.607 20.28 1.508c9.633-1.941 8.737-12.278 4.031-15.184z" transform="translate(-577.867 -1333.498)" style="fill:#102048"/>
                            <path data-name="Path 5112" d="M850.682 1622.169a.238.238 0 0 1-.227-.309c.711-2.252 1.022-6.682-1.039-9.657a.238.238 0 0 1 .391-.271c2.157 3.116 1.84 7.73 1.1 10.071a.238.238 0 0 1-.225.166z" transform="translate(-647.16 -1345.871)" style="fill:#fff"/>
                            <path data-name="Path 5113" d="M825.995 1626.857a.243.243 0 0 1-.072-.011.238.238 0 0 1-.155-.3c.711-2.252 1.021-6.682-1.038-9.658a.238.238 0 0 1 .391-.271c2.157 3.116 1.84 7.73 1.1 10.071a.238.238 0 0 1-.226.169z" transform="translate(-627.167 -1349.667)" style="fill:#fff"/>
                        </g>
                    </g>
                    <g data-name="Group 14467">
                        <g data-name="Group 14461">
                            <path data-name="Path 5114" d="M514.566 1038.157s11.767-10.006 11.331-11.908c-.311-1.359-3.645.634-3.645.634s4.675-5.546 4.437-6.22c-.425-1.2-3.658 1.04-3.658 1.04s2.185-3.145 1.141-3.658-3.322 1.426-3.322 1.426 1.331-1.746.705-2.2-3.322 1.426-3.322 1.426.968-2.2-1.088-1.367-16.474 14.065-16.474 14.065z" transform="translate(-364.764 -864.262)" style="fill:#f9b384"/>
                            <g data-name="Group 14460">
                                <path data-name="Path 5115" d="M575.779 1050.336a.238.238 0 0 1-.16-.062 10.8 10.8 0 0 0-5.139-2.979.238.238 0 1 1 .14-.454 11.172 11.172 0 0 1 5.32 3.082.238.238 0 0 1-.161.413z" transform="translate(-421.162 -888.31)" style="fill:#e28b6d"/>
                                <path data-name="Path 5116" d="M579.4 1078.025h-.033a.238.238 0 0 1-.2-.268c.231-1.655.752-2.688 1.592-3.161a3.085 3.085 0 0 1 2.778.123.238.238 0 1 1-.188.436 2.652 2.652 0 0 0-2.357-.145c-.692.389-1.148 1.336-1.355 2.812a.238.238 0 0 1-.237.203z" transform="translate(-428.333 -910.571)" style="fill:#e28b6d"/>
                                <path data-name="Path 5117" d="M576.488 1027.328a.237.237 0 0 1-.163-.411l2.953-2.783a.238.238 0 1 1 .326.346l-2.953 2.783a.235.235 0 0 1-.163.065z" transform="translate(-425.971 -869.878)" style="fill:#e28b6d"/>
                                <path data-name="Path 5118" d="M590.862 1031.595a.238.238 0 0 1-.172-.4l2.836-2.955a.238.238 0 0 1 .343.329l-2.836 2.955a.237.237 0 0 1-.171.071z" transform="translate(-437.612 -873.194)" style="fill:#e28b6d"/>
                                <path data-name="Path 5119" d="M605.55 1042.766a.238.238 0 0 1-.174-.4l2.225-2.387a.238.238 0 0 1 .348.324l-2.225 2.387a.238.238 0 0 1-.174.076z" transform="translate(-449.507 -882.701)" style="fill:#e28b6d"/>
                            </g>
                        </g>
                        <g data-name="Group 14462">
                            <path data-name="Path 5120" d="M604.026 1238.042 561 1239.706l-4.754-39.22s14.4-13.661 19.944-18.692l9.355-.48c29.028 13.194 24.275 29.67 18.481 56.728z" transform="translate(-409.774 -997.221)" style="fill:#3a6bea"/>
                            <path data-name="Path 5121" d="M710.329 1181.315s33.205 2.84 43.673 25.589c10.243 22.26-31.851 30.187-31.851 30.187z" transform="translate(-534.554 -997.221)" style="fill:#3a6bea"/>
                            <path data-name="Path 5122" d="m389.766 1102.719 13.721-16.7-12.831-7.776a167.33 167.33 0 0 0-24.475 21.7 18.115 18.115 0 0 0-4.21 7.278 15.661 15.661 0 0 0-.4 6.833 13.192 13.192 0 0 0 11.658 11.044c5.228.612 25.2-.951 41.359-5.7l4.754-18.348c-2.442-1.391-20.601-1.632-29.576 1.669z" transform="translate(-251.947 -913.75)" style="fill:#3a6bea"/>
                        </g>
                        <g data-name="Group 14463" style="opacity:.8">
                            <path data-name="Path 5123" d="m786.817 1200.894.215-.049c-.15-.089-.3-.175-.451-.262a71.982 71.982 0 0 1-7.419 1.431c-1.487.179-6.457.507-7.909-2.8a5.188 5.188 0 0 1 .641-4.765l-.356-.1a5.5 5.5 0 0 0-.612 5.01c1.551 3.537 6.729 3.2 8.278 3.014a73.456 73.456 0 0 0 7.613-1.479z" transform="translate(-583.332 -1007.772)" style="fill:#fff"/>
                            <path data-name="Path 5124" d="M891.887 1359a11.025 11.025 0 0 0-4.948-1.084c-3.022.286-5.608 3.274-5.765 6.662a10.448 10.448 0 0 0 2.458 6.86l.3-.191a10.107 10.107 0 0 1-2.4-6.652c.149-3.217 2.59-6.054 5.442-6.324a10.639 10.639 0 0 1 4.786 1.062 32.89 32.89 0 0 0 1.762.64c.031-.115.061-.23.088-.346a35.55 35.55 0 0 1-1.723-.627z" transform="translate(-672.905 -1140.219)" style="fill:#fff"/>
                            <path data-name="Path 5125" d="M426.268 1296.772c-2.073-1.715-5.294-2.173-8.836-1.257a15.248 15.248 0 0 0-7.725 4.574c.122.039.242.084.366.12a14.953 14.953 0 0 1 7.449-4.349c3.429-.888 6.535-.454 8.52 1.187a7.738 7.738 0 0 1 2.095 2.885l.368-.042a8.149 8.149 0 0 0-2.237-3.118z" transform="translate(-291.097 -1089.331)" style="fill:#fff"/>
                            <path data-name="Path 5126" d="M398.243 1121.131a43.007 43.007 0 0 0 11.171-4.335 12.2 12.2 0 0 0 3.862-3.155 5.42 5.42 0 0 0 .992-4.827 3.773 3.773 0 0 0-.967-1.526l-.274.225a3.437 3.437 0 0 1 .9 1.412 5.064 5.064 0 0 1-.94 4.5 11.878 11.878 0 0 1-3.753 3.058 42.13 42.13 0 0 1-10.529 4.162z" transform="translate(-281.813 -937.272)" style="fill:#fff"/>
                        </g>
                        <g data-name="Group 14465" transform="translate(152.095 152.455)">
                            <path data-name="Path 5127" d="m675.179 1132.894-.006.609-.1 9.457-.012 1.024a5.889 5.889 0 0 1-11.777-.006l-.114-11.686z" transform="translate(-648.46 -1109.974)" style="fill:#f9b384"/>
                            <path data-name="Path 5128" d="m694.27 1138.662-.1 9.456c-5.256-2.14-7.419-7.829-7.419-7.829z" transform="translate(-667.557 -1115.134)" style="fill:#102048"/>
                            <path data-name="Path 5129" d="M672.08 1048.351c1.883 2.26 7.383 15.068 1.808 19.437-6.274 4.917-15.821-3.164-15.821-3.164l-1.281-14.917 8.287-2.185z" transform="translate(-643.288 -1041.325)" style="fill:#f9b384"/>
                            <path data-name="Path 5130" d="M595.077 1047.559s-18.382 9.587-3.394 37.222a7.528 7.528 0 0 0 9.836 3.367 7.455 7.455 0 0 0 3.27-10.412c-2.452-4.355-4.818-9.964-3.808-14.137z" transform="translate(-585.801 -1041.354)" style="fill:#102048"/>
                            <circle data-name="Ellipse 584" cx="4.972" cy="4.972" r="4.972" transform="rotate(-45 14.958 .567)" style="fill:#fbc343"/>
                            <path data-name="Path 5131" d="M636.752 1031.648c-.537-3.1-.865-5.229 2.271-6.828 0 0 11.05 2.009 13.159-2.16s-1.105-10.748-7.835-6.178c-17.227-3.365-19.538 12.757-14.314 18.131l5.155-.791a1.877 1.877 0 0 0 1.564-2.174z" transform="translate(-619.623 -1014.931)" style="fill:#102048"/>
                            <g data-name="Group 14464" transform="translate(22.231 11.058)">
                                <circle data-name="Ellipse 585" cx=".735" cy=".735" r=".735" transform="translate(2.719 4.933)" style="fill:#102048"/>
                                <circle data-name="Ellipse 586" cx=".735" cy=".735" r=".735" transform="translate(7.691 2.484)" style="fill:#102048"/>
                                <path data-name="Path 5132" d="M737.523 1100.333a.208.208 0 0 1-.151-.351c.295-.31.617-.746.482-1.062s-.736-.47-1.009-.47c-.586 0-.867-1.043-.918-1.252a.208.208 0 0 1 .4-.1c.107.441.349.933.514.933.281 0 1.138.133 1.391.722.181.421-.009.93-.562 1.513a.207.207 0 0 1-.147.067z" transform="translate(-729.606 -1092.405)" style="fill:#102048"/>
                                <path data-name="Path 5133" d="M730.823 1125.546a.207.207 0 0 1-.116-.036 2.78 2.78 0 0 0-2.794-.143.208.208 0 0 1-.207-.361 3.162 3.162 0 0 1 3.234.159.208.208 0 0 1-.117.38z" transform="translate(-722.868 -1114.83)" style="fill:#102048"/>
                                <path data-name="Path 5134" d="M705.842 1084.7c.418.786-.31.944-1.164 1.4s-1.727.619-1.926.244.331-1.047 1.184-1.5 1.582-.758 1.906-.144z" transform="translate(-702.71 -1082.209)" style="fill:#102048"/>
                                <path data-name="Path 5135" d="M735.452 1074.152c.184.7.707.395 1.469.2s1.377-.582 1.289-.917-.776-.445-1.538-.246-1.362.419-1.22.963z" transform="translate(-729.209 -1073.085)" style="fill:#102048"/>
                            </g>
                            <circle data-name="Ellipse 587" cx="2.166" cy="2.166" r="2.166" transform="rotate(-42.7 35.246 -14.591)" style="fill:#eb5d60;opacity:.4"/>
                            <ellipse data-name="Ellipse 588" cx="2.933" cy="3.333" rx="2.933" ry="3.333" transform="rotate(-52.35 25.61 .42)" style="fill:#f9b384"/>
                            <path data-name="Path 5136" d="M655.226 1116.37a.208.208 0 0 1-.208-.208 1.823 1.823 0 0 0-.8-1.518 1.469 1.469 0 0 0-1.367-.182.208.208 0 0 1-.157-.385 1.882 1.882 0 0 1 1.756.222 2.237 2.237 0 0 1 .984 1.864.208.208 0 0 1-.208.207z" transform="translate(-639.868 -1095.121)" style="fill:#102048"/>
                        </g>
                        <g data-name="Group 14466">
                            <path data-name="Rectangle 2695" transform="rotate(-47.248 290.185 -50.304)" style="fill:#102048" d="M0 0h11.056v.475H0z"/>
                            <path data-name="Path 5137" d="m787.274 1346.483-.138-.455c5.464-1.665 10.766-3.657 15.571-9.667l.371.3c-4.889 6.113-10.265 8.139-15.804 9.822z" transform="translate(-596.757 -1122.785)" style="fill:#102048"/>
                        </g>
                    </g>
                    <g data-name="Group 14470">
                        <g data-name="Group 14468">
                            <path data-name="Path 5138" d="M594.5 1292.776h-46.473a3.158 3.158 0 0 0-3.027 3.274v33.183a3.158 3.158 0 0 0 3.027 3.274H594.5a3.158 3.158 0 0 0 3.027-3.274v-33.183a3.158 3.158 0 0 0-3.027-3.274z" transform="translate(-400.664 -1087.487)" style="fill:#d3dfff"/>
                        </g>
                        <g data-name="Group 14469">
                            <path data-name="Path 5139" d="M669.719 1382.169a.333.333 0 0 1 .319.346v3.5a.333.333 0 0 1-.319.346h-4.907a.333.333 0 0 1-.319-.346v-3.5a.333.333 0 0 1 .319-.346h4.907m0-.951h-4.907a1.285 1.285 0 0 0-1.27 1.3v3.5a1.285 1.285 0 0 0 1.27 1.3h4.907a1.285 1.285 0 0 0 1.27-1.3v-3.5a1.285 1.285 0 0 0-1.27-1.3z" transform="translate(-496.665 -1159.111)" style="fill:#1f3c88"/>
                        </g>
                    </g>
                </g>
            </g>
        </g>
    </g>
</svg>
