<svg xmlns="http://www.w3.org/2000/svg" width="290" height="235" viewBox="0 0 290 235">
    <defs>
        <clipPath id="2lc6818iba">
            <path data-name="Rectangle 2666" style="fill:#fff" d="M0 0h33.739v33.739H0z"/>
        </clipPath>
    </defs>
    <g data-name="Group 15147">
        <path data-name="Rectangle 2721" style="fill:#fff" d="M0 0h290v235H0z"/>
        <g data-name="Group 14426">
            <g data-name="Group 14376">
                <path data-name="Path 4945" d="M1984.7 578.571s28.551-28.857 37-22.607-37 22.607-37 22.607z" transform="translate(-1824.728 -533.322)" style="fill:#afcdfb"/>
                <path data-name="Path 4946" d="M1973.169 642.246s53.957-26.152 67.294-13.6-14.666 11.807-25.062 10.673-42.232 2.927-42.232 2.927z" transform="translate(-1815.158 -591.554)" style="fill:#afcdfb"/>
                <path data-name="Path 4947" d="M1958.585 577.338s.215-1.385.5-3.411c.564-3.953 1.411-10.347 1.493-13.666.123-5.021 4.047-8.7 8.627-3.734s-8.965 19.384-8.965 19.384z" transform="translate(-1803.054 -532.57)" style="fill:#afcdfb"/>
            </g>
            <path data-name="Path 4948" d="M1121.2 955.144c2.5-8.114 16.232-5.08 16.232-5.08s8.892 14.655 11.61 15.09-5.156-14.014-5.156-14.014c5.307-.33 18.563 6.616 18.563 6.616s-1.427 16.692 1.315 16.444.51-14.844.51-14.844c5.066 1.711 9.638 7.847 9.638 7.847 5.638 9.93-7.4 16.657-7.4 16.657a27.236 27.236 0 0 0 2.985 12.573 19.763 19.763 0 0 1 1.517 3.373l-1.4-.048q-.152-.567-.342-1.1a.008.008 0 0 0 0-.007l-.006-.015c-.088-.219-.215-.53-.373-.91-.4-.849-.665-1.476-.832-1.927-1.188-2.664-2.911-6.141-4.114-6.9a2.716 2.716 0 0 0 .321-.63l-.321.63c-2.565 5.037-14.537 5.48-21.145 3.886s-3.642-3.371.045-6.294 11.168-1.862 13.427-2.98-.942-2.424-5.39-2.235-6.818 4.549-14.008 4.985-12.187-13.23-12.187-13.23c4.9 1.705 13.862-.72 14.262-2.414s-12.744-1.975-14.774-2.557-5.477-4.802-2.977-12.916z" transform="translate(-1107.325 -860.688)" style="fill:#cde0fb"/>
            <path data-name="Path 4949" d="M2144.786 1022.712c-2.53-6.543-13.673-3.248-13.673-3.248s-6.481 12.593-8.7 13.109 3.439-11.849 3.439-11.849c-4.393.035-14.918 6.528-14.918 6.528s2.142 13.676-.132 13.63-1.279-12.206-1.279-12.206c-4.077 1.7-7.49 7.026-7.49 7.026-4.073 8.512 7.067 13.3 7.067 13.3a22.5 22.5 0 0 1-1.733 10.536 16.34 16.34 0 0 0-1.055 2.868l1.148-.12q.092-.476.218-.923a.006.006 0 0 1 0-.005v-.013c.06-.186.146-.449.255-.772.278-.723.462-1.255.573-1.637.825-2.264 2.043-5.23 2.991-5.924a2.246 2.246 0 0 1-.3-.5l.3.5c2.405 4 12.3 3.675 17.654 1.98s2.807-2.989-.4-5.185-9.312-.889-11.239-1.68.636-2.052 4.313-2.154 5.883 3.355 11.834 3.3 9.279-11.61 9.279-11.61c-3.937 1.689-11.467.209-11.895-1.165s10.39-2.365 12.03-2.963 4.242-4.28 1.713-10.823z" transform="translate(-1921.371 -918.06)" style="fill:#cde0fb"/>
            <path data-name="Path 4950" d="M1154.123 498.532c6.474-12.585 28.125-3.591 28.125-3.591s10.309 26.651 14.643 28.16-4.365-24.507-4.365-24.507c8.807 1.01 28.532 16.287 28.532 16.287s-7.223 26.977-2.651 27.373 5.177-24.213 5.177-24.213c7.814 4.29 13.524 15.7 13.524 15.7 6.349 17.947-17.024 25.173-17.024 25.173a45.4 45.4 0 0 0 1.222 21.507 32.932 32.932 0 0 1 1.5 5.979l-2.276-.487q-.083-.975-.24-1.9a.013.013 0 0 0 0-.011v-.027c-.081-.385-.2-.933-.347-1.6-.4-1.51-.659-2.616-.8-3.406a.019.019 0 0 1 0-.007c-1.17-4.719-2.981-10.929-4.734-12.525a4.522 4.522 0 0 0 .71-.94l-.71.94c-5.682 7.516-25.461 4.742-35.839.2s-4.992-6.6 1.915-10.316 18.873.209 22.908-.966-.837-4.253-8.192-5.244-12.52 5.472-24.448 4.086-16.132-25.277-16.132-25.277c7.536 4.231 22.96 2.872 24.112.208s-20.338-6.968-23.5-8.517-7.584-9.494-1.11-22.079z" transform="translate(-1132.613 -480.826)" style="fill:#afcdfb"/>
            <g data-name="Group 14398">
                <path data-name="Rectangle 2663" transform="translate(54.421 36.147)" style="fill:#fff" d="M0 0h138.643v187.484H0z"/>
                <path data-name="Rectangle 2664" transform="translate(58.749 39.797)" style="fill:#e7edff" d="M0 0h128.788v179.15H0z"/>
                <g data-name="Group 14379">
                    <path data-name="Rectangle 2665" style="fill:#fff" d="M0 0h33.739v33.739H0z" transform="translate(67.542 52.003)"/>
                    <g data-name="Group 14378" style="clip-path:url(#2lc6818iba)" transform="translate(67.542 52.003)">
                        <g data-name="Group 14377">
                            <path data-name="Path 4951" d="M1475.991 913.978h-26.677l19.124-42.881 6.617 14.824 2.417 14.415z" transform="translate(-1447.918 -847.611)" style="fill:#88a0e2"/>
                            <path data-name="Path 4952" d="m1445.749 865.025 4.273-1.109 4.151-1.471a21.259 21.259 0 0 0 4.125 1.471c1.869.348 8.108 10.77 8.108 11.205s-4.879 31.464-4.879 31.464h-23.552z" transform="translate(-1438.506 -840.43)" style="fill:#fff"/>
                            <path data-name="Path 4953" d="M1516.229 838.344a10.847 10.847 0 0 1-7.424-1.693 21.475 21.475 0 0 0 1.721-5.578c.01-.066.018-.13.026-.192a5.73 5.73 0 0 0 .056-1.285l5.44.127s1.472.715 1.461 1.185q-.008.377-.01.722c0 .626.009 1.173.031 1.642.068 1.529.284 3.381.284 3.381s.55 1.324-1.585 1.691z" transform="translate(-1497.294 -813.166)" style="fill:#ffb27d"/>
                            <path data-name="Path 4954" d="M1525.381 838.061a7.521 7.521 0 0 1-7-2.2 2.689 2.689 0 0 1-.112-.134c.044-.021.09-.039.139-.058 1.549-.585 5.079-.273 7.007.485-.008.627-.056 1.437-.034 1.907z" transform="translate(-1505.144 -817.955)" style="fill:#e2915a"/>
                            <path data-name="Path 4955" d="M1499.741 774.1c1.4 3.782 6.421 2.781 8.557 2.159.6-.174.974-.319.974-.319.659-.3.857-1.46.789-2.917a22.545 22.545 0 0 0-1.958-7.928c-.993-1.471-2.644-2.962-7.505-.839s-2.654 4.998-.857 9.844z" transform="translate(-1488.032 -758.058)" style="fill:#ffb27d"/>
                            <path data-name="Path 4956" d="M1490.252 747.007a7.363 7.363 0 0 0-4.379-1.563 11.58 11.58 0 0 0-5.9 1.64c-3.832 2.54-4.366 5.9-1.313 10.463 3.229 4.824 5.2 3.763 5.2 3.763s-.377-.121-.616-1.757a5.158 5.158 0 0 1-.03-.238 1.113 1.113 0 0 0-.5-.831c-.595-.371-1.086-1.718-.722-2.179.439-.557 1.269-.116 1.578.28a.646.646 0 0 0 .945.043c1.15-1.039.029-2.526 1.09-3.738s7.421-.667 7.838-4.244a11.3 11.3 0 0 1-3.191-1.639z" transform="translate(-1470.64 -743.322)" style="fill:#233862"/>
                            <path data-name="Path 4957" d="M1561.785 871.1s6.682 13.786 7.553 24.431a106.092 106.092 0 0 1 0 18.45 72.049 72.049 0 0 0 4.757-22.7c.183-5.471-.694-15.376-2.553-17.129-.906-.852-3.627-1.673-9.757-3.052z" transform="translate(-1541.264 -847.611)" style="fill:#aec3ff"/>
                            <path data-name="Path 4958" d="M1393.046 889.328a94.257 94.257 0 0 1-.195 4.923 84.467 84.467 0 0 1-3.542 19.515h-21.867s2.71-6.587 5.983-13.746a296.138 296.138 0 0 1 1.76-3.782c2.419-5.1 4.933-9.951 6.771-12.4 4.879-6.505 9.526-12.74 9.526-12.74a84.811 84.811 0 0 1 1.564 18.23z" transform="translate(-1379.967 -847.611)" style="fill:#aec3ff"/>
                            <path data-name="Path 4959" d="M1416.246 1021.926s-4.491 1.781-13.619.817a296.138 296.138 0 0 1 1.76-3.782z" transform="translate(-1409.169 -970.333)" style="fill:#9db0f4"/>
                            <path data-name="Path 4960" d="M1451.585 977.6a94.226 94.226 0 0 1-.194 4.923c-2.942-.159-13.466-.739-13.416-.889.058-.174.973-4.182.973-4.182s8.847 2.149 12.62 0z" transform="translate(-1438.506 -935.88)" style="fill:#9db0f4"/>
                            <path data-name="Path 4961" d="M1493.793 997.474s3.136-1.862 4.589-1.773 3.775.553 4.124 1.773-.523.624-2.469 1c-1.148.224-1.85 1.871-3.34 2.016a20.581 20.581 0 0 1-2.9-.407z" transform="translate(-1484.833 -951.026)" style="fill:#ffb27d"/>
                            <path data-name="Path 4962" d="M1400.952 871.1s-8.028.949-10.119 2.924c-3.536 3.34-12.836 15.969-11.917 21.507.61 3.675 17.6 3.675 17.6 3.675a11.745 11.745 0 0 0 2.869-2.588 5.68 5.68 0 0 0 1.026-4.329l-10.507-3.57s5.125-4.969 9.074-5.227c2.888-.192 1.974-12.392 1.974-12.392z" transform="translate(-1389.436 -847.611)" style="fill:#aec3ff"/>
                        </g>
                    </g>
                </g>
                <g data-name="Group 14381">
                    <g data-name="Group 14380">
                        <path data-name="Rectangle 2667" style="fill:#aec3ff" d="M0 0h42.277v.848H0z" transform="translate(110.208 72.725)"/>
                        <path data-name="Rectangle 2668" transform="translate(110.208 76.684)" style="fill:#aec3ff" d="M0 0h42.277v.848H0z"/>
                        <path data-name="Rectangle 2669" transform="translate(110.208 80.69)" style="fill:#aec3ff" d="M0 0h42.277v.848H0z"/>
                    </g>
                    <path data-name="Rectangle 2670" style="fill:#fff" d="M0 0h12.936v12.936H0z" transform="translate(110.208 49.48)"/>
                    <path data-name="Rectangle 2671" transform="translate(136.09 59.586)" style="fill:#aec3ff" d="M0 0h16.395v1.492H0z"/>
                    <path data-name="Rectangle 2672" transform="translate(132.519 63.08)" style="fill:#aec3ff" d="M0 0h19.966v1.492H0z"/>
                </g>
                <g data-name="Group 14388">
                    <g data-name="Group 14385">
                        <g data-name="Group 14384">
                            <path data-name="Rectangle 2673" style="fill:#fff" d="M0 0h33.739v33.739H0z" transform="translate(67.542 147.851)"/>
                            <g data-name="Group 14383" style="clip-path:url(#2lc6818iba)" transform="translate(67.542 147.851)">
                                <g data-name="Group 14382">
                                    <path data-name="Path 4963" d="m1443.148 1428.733 4.273-1.109 4.151-1.471a21.254 21.254 0 0 0 4.125 1.471c1.869.348 8.108 10.77 8.108 11.205s.174 31.675.174 31.675l-28.6-.212z" transform="translate(-1436.347 -1404.138)" style="fill:#aec3ff"/>
                                    <path data-name="Path 4964" d="M1513.629 1402.052a10.849 10.849 0 0 1-7.424-1.693 21.469 21.469 0 0 0 1.721-5.578c.01-.066.018-.13.026-.192a5.734 5.734 0 0 0 .056-1.285l5.44.127s1.472.715 1.461 1.185q-.009.377-.01.722c0 .626.009 1.172.03 1.642.068 1.529.284 3.381.284 3.381s.55 1.324-1.584 1.691z" transform="translate(-1495.135 -1376.874)" style="fill:#ffb27d"/>
                                    <path data-name="Path 4965" d="M1522.78 1401.769a7.521 7.521 0 0 1-7-2.2 2.689 2.689 0 0 1-.112-.134c.044-.021.09-.039.139-.058 1.549-.585 5.079-.273 7.007.485-.008.627-.056 1.438-.034 1.907z" transform="translate(-1502.985 -1381.663)" style="fill:#e2915a"/>
                                    <path data-name="Path 4966" d="M1497.14 1337.807c1.4 3.781 6.421 2.781 8.557 2.159.6-.174.974-.319.974-.319.659-.3.857-1.46.789-2.917a22.544 22.544 0 0 0-1.958-7.928c-.994-1.471-2.644-2.961-7.506-.839s-2.653 4.998-.856 9.844z" transform="translate(-1485.873 -1321.765)" style="fill:#ffb27d"/>
                                    <path data-name="Path 4967" d="M1487.651 1310.714a7.365 7.365 0 0 0-4.379-1.563 11.587 11.587 0 0 0-5.9 1.64c-3.832 2.541-4.366 5.9-1.312 10.463 3.229 4.824 5.2 3.763 5.2 3.763s-.377-.121-.616-1.757c-.014-.093-.023-.171-.031-.238a1.112 1.112 0 0 0-.5-.831c-.595-.371-1.086-1.718-.722-2.179.44-.557 1.269-.116 1.578.279a.647.647 0 0 0 .945.043c1.149-1.039.029-2.526 1.089-3.738s7.421-.667 7.838-4.244a11.3 11.3 0 0 1-3.19-1.638z" transform="translate(-1468.481 -1307.029)" style="fill:#a9453d"/>
                                    <path data-name="Path 4968" d="M1559.185 1434.805s6.682 13.786 7.553 24.431a106.09 106.09 0 0 1 0 18.45 72.048 72.048 0 0 0 4.757-22.7c.183-5.471-.694-15.376-2.552-17.129-.908-.857-3.628-1.67-9.758-3.052z" transform="translate(-1539.106 -1411.319)" style="fill:#aec3ff"/>
                                    <path data-name="Path 4969" d="M1398.351 1434.805s-8.028.949-10.119 2.924c-3.536 3.339-12.836 15.969-11.917 21.507.2 1.229 4.965 4.981 7.583 5.525.663 5.213-.979 12.925-.979 12.925l13.26-.212a84.461 84.461 0 0 0 3.542-19.515c.112-1.7.173-3.349.195-4.923a84.824 84.824 0 0 0-1.565-18.231z" transform="translate(-1387.278 -1411.319)" style="fill:#aec3ff"/>
                                    <path data-name="Path 4970" d="M1501.139 1426.44s3.359 2.746 5.35 3.226c0 0-1.848.977-7.653-1.629a3.519 3.519 0 0 1 2.303-1.597z" transform="translate(-1489.019 -1404.376)" style="fill:#f99746"/>
                                    <path data-name="Path 4971" d="M1546.282 1424.777a7.3 7.3 0 0 0 .97 1.886s-.518 1.83-3.408 1.622c0 .001 2.556-1.832 2.438-3.508z" transform="translate(-1526.374 -1402.996)" style="fill:#f99746"/>
                                    <path data-name="Path 4972" d="m1530.42 1436.732 3.986-.486s-.124 2.338-1.325 3.27c-.437.339-2.712-2.369-2.661-2.784z" transform="translate(-1515.232 -1412.515)" style="fill:#f99746"/>
                                    <path data-name="Path 4973" d="M1539.588 1445.512s.916 16.68.484 24.056c-.239 4.076-.831 9.951-.736 10.52s2.8 3.222 2.8 3.222 2.664-2.48 2.727-3.554a120.538 120.538 0 0 0-3.9-34.417c-.163-.607-1.375.173-1.375.173z" transform="translate(-1522.624 -1419.87)" style="fill:#f99746"/>
                                </g>
                                <path data-name="Path 4974" d="M1496.5 1424.777s-1.023.07-2.824 2.155a16.527 16.527 0 0 0 5.56 3.127 4.836 4.836 0 0 1 .688-2.847z" transform="translate(-1484.74 -1402.996)" style="fill:#c5d7ff"/>
                                <path data-name="Path 4975" d="m1551.371 1424.777-1.4 2.069a6.339 6.339 0 0 1 1.9 2.345 5.846 5.846 0 0 0 .891-2.431s-.662-1.73-1.391-1.983z" transform="translate(-1531.463 -1402.996)" style="fill:#c5d7ff"/>
                            </g>
                        </g>
                    </g>
                    <g data-name="Group 14387">
                        <g data-name="Group 14386">
                            <path data-name="Rectangle 2675" style="fill:#aec3ff" d="M0 0h44.697v.848H0z" transform="translate(110.208 171.936)"/>
                            <path data-name="Rectangle 2676" transform="translate(110.208 175.895)" style="fill:#aec3ff" d="M0 0h44.697v.848H0z"/>
                            <path data-name="Rectangle 2677" transform="translate(110.208 179.901)" style="fill:#aec3ff" d="M0 0h44.697v.848H0z"/>
                        </g>
                        <path data-name="Rectangle 2678" style="fill:#fff" d="M0 0h12.936v12.936H0z" transform="translate(110.208 148.691)"/>
                        <path data-name="Rectangle 2679" transform="translate(137.571 158.797)" style="fill:#aec3ff" d="M0 0h17.334v1.492H0z"/>
                        <path data-name="Rectangle 2680" transform="translate(133.796 162.291)" style="fill:#aec3ff" d="M0 0h21.109v1.492H0z"/>
                    </g>
                </g>
                <g data-name="Group 14395">
                    <g data-name="Group 14392">
                        <path data-name="Rectangle 2681" style="fill:#fff" d="M0 0h33.739v33.739H0z" transform="translate(67.542 99.125)"/>
                        <g data-name="Group 14391">
                            <g data-name="Group 14390">
                                <g data-name="Group 14389">
                                    <path data-name="Path 4976" d="M1465.983 1025.691a15.6 15.6 0 0 0-5.395-.057c-5.652.449-7.231 9.147-6.9 11.607.606 4.534-1.605 5.724-4.32 9.235-2.961 3.827-3.319 7.371-2.358 10.07h14.35c3.078-2.707 7.282-6.418 9.92-8.715a4.448 4.448 0 0 0 1-.516c5.765-3.976-1.286-20.235-6.297-21.624z" transform="translate(-1378.067 -923.683)" style="fill:#233862"/>
                                    <path data-name="Path 4977" d="M1525.667 1114.108c.026.01-2.347 1.439-4.225 1.051-1.766-.364-3.561-2.751-3.537-2.758.726-.193 1.392-1.008 1.1-5.348l.336.045 5.658.753s-.016 1.767.085 3.424c.087 1.391.255 2.705.583 2.833z" transform="translate(-1437.304 -991.443)" style="fill:#ffb27d"/>
                                    <path data-name="Path 4978" d="M1532.026 1108.068s-.016 1.767.085 3.424c-3.133.109-4.966-2.639-5.743-4.177z" transform="translate(-1444.328 -991.661)" style="fill:#ed975d"/>
                                    <path data-name="Path 4979" d="M1527.184 1060.353s-7.391.589-7.687-4.019-1.45-7.636 3.257-8.207 5.737 1.128 6.21 2.642.136 9.312-1.78 9.584z" transform="translate(-1438.342 -942.442)" style="fill:#ffb27d"/>
                                    <path data-name="Path 4980" d="M1517.229 1045.177s-3.741 4.957-6.8 5.953-4.459.248-4.459.248a12.5 12.5 0 0 0 2.087-4.639 2.249 2.249 0 0 1 1.532-1.688c2.192-.676 6.411-1.68 7.64.126z" transform="translate(-1427.399 -939.241)" style="fill:#233862"/>
                                    <path data-name="Path 4981" d="M1554.83 1045.6a11.586 11.586 0 0 1 2.583 2.153 8.9 8.9 0 0 1 1.235 4.571s1.389-5.178-.458-7.149c-1.958-2.085-3.36.425-3.36.425z" transform="translate(-1467.951 -939.401)" style="fill:#233862"/>
                                    <path data-name="Path 4982" d="M1475.983 1140.207a2.788 2.788 0 0 0-.842-1.287c-1.941-1.81-6.3-2.549-6.3-2.549s0 .017-.009.047a1.706 1.706 0 0 1-1.865 1.168c-.993 0-2.506-.428-4.8-1.786l-.034-.021s-6.042.372-8.133 3.289a40.476 40.476 0 0 0-4 9.081h28.164c-.979-3.535-1.878-6.831-2.181-7.942z" transform="translate(-1380.933 -1015.287)" style="fill:#aec3ff"/>
                                </g>
                            </g>
                        </g>
                    </g>
                    <g data-name="Group 14394">
                        <g data-name="Group 14393">
                            <path data-name="Rectangle 2682" style="fill:#aec3ff" d="M0 0h43.87v.848H0z" transform="translate(110.208 122.869)"/>
                            <path data-name="Rectangle 2683" transform="translate(110.208 126.828)" style="fill:#aec3ff" d="M0 0h43.87v.848H0z"/>
                            <path data-name="Rectangle 2684" transform="translate(110.208 130.834)" style="fill:#aec3ff" d="M0 0h43.87v.848H0z"/>
                        </g>
                        <path data-name="Rectangle 2685" style="fill:#fff" d="M0 0h12.936v12.936H0z" transform="translate(110.208 99.624)"/>
                        <path data-name="Rectangle 2686" transform="translate(134.196 109.73)" style="fill:#aec3ff" d="M0 0h18.289v1.492H0z"/>
                        <path data-name="Rectangle 2687" transform="translate(130.213 113.224)" style="fill:#aec3ff" d="M0 0h22.272v1.492H0z"/>
                    </g>
                    <path data-name="Path 4983" d="m1706.412 1028.339 4.022 5.544 4.791-8.861-5.56 5.054z" transform="translate(-1593.759 -923.36)" style="fill:#233862"/>
                </g>
                <g data-name="Group 14396">
                    <path data-name="Rectangle 2688" style="fill:#aec3ff" d="M0 0h44.393v.745H0z" transform="translate(90.457 199.231)"/>
                    <path data-name="Rectangle 2689" transform="translate(90.457 202.789)" style="fill:#aec3ff" d="M0 0h44.393v.745H0z"/>
                    <path data-name="Rectangle 2690" transform="translate(90.457 207.091)" style="fill:#aec3ff" d="M0 0h44.393v.745H0z"/>
                </g>
                <g data-name="Group 14397">
                    <path data-name="Path 4984" d="M1448.167 1589.085c.6-.841 1.222-2.317.749-3.357-.434-.954-1.292-.513-1.875.04a7.3 7.3 0 0 0-1.735 3.076 19.97 19.97 0 0 0-.969 4.219c-.118 1.152-.2 2.929.546 3.913.63.836 1.644.15 2.343-.242a8.805 8.805 0 0 0 4.557-5.747c.065-.326-.338-.625-.594-.346a3.055 3.055 0 0 0-.867 1.985c-.012.417.027 1.081.53 1.2.592.141 1.052-.68 1.307-1.073a6.767 6.767 0 0 0 .979-2.6l-.686-.189c-.1.672.022 1.871 1.02 1.663.944-.2 1.023-1.819 1.052-2.547a.357.357 0 0 0-.7-.095 3.8 3.8 0 0 0 .083 1.944 6.192 6.192 0 0 0 .417.91 4.931 4.931 0 0 1 .383.758q.334.816-.575.694l-.212.522c1.675-.659 3.495-1.564 3.587-3.6.021-.457-.69-.457-.711 0-.076 1.668-1.724 2.383-3.065 2.911a.362.362 0 0 0-.212.522 1.01 1.01 0 0 0 1.822-.072 1.805 1.805 0 0 0-.1-1.545 4.3 4.3 0 0 1-.732-2.859l-.7-.094a4.81 4.81 0 0 1-.157 1.133 2.013 2.013 0 0 1-.131.389q-.168.664-.388-.449c.065-.444-.61-.643-.686-.189a6.246 6.246 0 0 1-.908 2.427c-.22.337-.545 1.01-.513.23a2.289 2.289 0 0 1 .659-1.482l-.594-.346a7.37 7.37 0 0 1-2.549 4.158 7.557 7.557 0 0 1-2.182 1.431 1.1 1.1 0 0 1-1.05-.13c-.1-.1-.143-.5-.173-.644a7.43 7.43 0 0 1-.146-1.716 16.733 16.733 0 0 1 1.187-5.405 5.86 5.86 0 0 1 1.362-2.22c.809-.763.813.45.695 1a3.934 3.934 0 0 1-.685 1.452c-.265.374.351.729.614.359z" transform="translate(-1376.181 -1388.265)" style="fill:#aec3ff"/>
                </g>
            </g>
            <g data-name="Group 14402">
                <g data-name="Group 14399">
                    <path data-name="Path 4985" d="M1857.182 1669.259c-.128 1.741-2.584 1.76-5.371 1.436s-2.047.382-5.949.436-5.248-1.236-5.437-1.793c-.169-.494 1.711-.911 3.722-1.4.253-.061.507-.125.761-.189 2.267-.576 3.769-2.273 5.709-3.755 1.838-1.4 4.207-6.484 4.207-6.484l5.331-.241s-2.245 4.553-3.088 6.516a6.43 6.43 0 0 0-.069 3.662 6.819 6.819 0 0 1 .184 1.812z" transform="translate(-1704.976 -1448.106)" style="fill:#ffb27d"/>
                    <path data-name="Path 4986" d="M1851.81 1720.38c-2.787-.323-2.047.382-5.949.436s-5.248-1.236-5.437-1.793c-.169-.495 1.711-.911 3.722-1.4l.024.037a10.937 10.937 0 0 0 5.727 1.026c2.62-.262 5.292-1.356 7.1-1.552a6.819 6.819 0 0 1 .185 1.811c-.128 1.74-2.582 1.755-5.372 1.435z" transform="translate(-1704.976 -1497.791)" style="fill:#233862"/>
                </g>
                <g data-name="Group 14400">
                    <path data-name="Path 4987" d="M2073.733 1653.974c-.126 1.741-2.582 1.762-5.37 1.442s-2.046.384-5.948.442-5.249-1.23-5.439-1.787c-.169-.495 1.71-.913 3.721-1.4.253-.061.507-.125.761-.189 2.267-.579 3.766-2.277 5.7-3.761 1.836-1.405 0-9.726 0-9.726l5.864-.571s-.281 7.006-.277 10.191a17.963 17.963 0 0 0 .8 3.554 6.82 6.82 0 0 1 .188 1.805z" transform="translate(-1884.707 -1432.461)" style="fill:#ffb27d"/>
                    <path data-name="Path 4988" d="M2068.363 1722.509c-2.788-.32-2.046.385-5.948.442s-5.249-1.23-5.439-1.788c-.169-.495 1.71-.913 3.721-1.4l.024.037a10.935 10.935 0 0 0 5.728 1.02c2.619-.265 5.291-1.361 7.1-1.559a6.818 6.818 0 0 1 .187 1.811c-.129 1.737-2.585 1.758-5.373 1.437z" transform="translate(-1884.707 -1499.554)" style="fill:#233862"/>
                </g>
                <path data-name="Path 4989" d="M2053.285 828.618c-1.009-4.152.454-6.085 1.774-7.115a6.292 6.292 0 0 1 2.072-3.045 7.477 7.477 0 0 1 4.047-.774 1.893 1.893 0 0 0-.854-.4 6.273 6.273 0 0 1 2.239.584c9.635-3.713 11.15 10.475 10.947 13.771s-.174 7.178 4.839 9.775c9.565 4.955-3.179 23.628-3.179 23.628.243-2.664-12.047-16.72-18.458-20.93-1.561-2.3-2.115-6.357-2.157-6.677a17.538 17.538 0 0 0 1.312 6.041c-2.922-2.695-3.355-9.153-2.582-14.858z" transform="translate(-1881.372 -750.916)" style="fill:#a9453d"/>
                <path data-name="Path 4990" d="M2077.319 930.1c-.032.015 3.1 1.639 5.449 1 2.213-.6 3.659-3.473 3.629-3.479-.937-.186-1.207-1.474-1.187-7.009l-.424.084-7.125 1.411s.162 2.242.167 4.354c.005 1.773-.103 3.455-.509 3.639z" transform="translate(-1901.599 -836.704)" style="fill:#ffb27d"/>
                <path data-name="Path 4991" d="M2079.331 922.514s.162 2.242.167 4.354c3.986-.112 6.093-3.749 6.957-5.765z" transform="translate(-1903.27 -837.111)" style="fill:#ed975d"/>
                <path data-name="Path 4992" d="M1908.448 1287.614a1.749 1.749 0 0 0 1.584 2.277l2.783.13 2.945.09a2.366 2.366 0 0 0 1.906-.87 82.8 82.8 0 0 0 13.975-26.459q.185-.588.391-1.189c2.9-8.451 8.907-19.06 12.074-28.662.5-1.529.957-2.969 1.363-4.332.13-.436.257-.865.377-1.287a101.875 101.875 0 0 0 3.632-19.119l-22.865.183a503.661 503.661 0 0 1-18.165 79.238z" transform="translate(-1761.373 -1075.387)" style="fill:#2a4e96"/>
                <path data-name="Path 4993" d="M2018.336 987.356c.058 10.881-1.6 15.549-1.6 15.549a30.726 30.726 0 0 0 21.426 1.313c.137-.043 8.324-2.362 8.324-2.362-.195-.44-1.812-7.72-2-8.125-2.457-5.275-3.126-7.49-3.417-9.112a34.5 34.5 0 0 1-.283-9.116 73.134 73.134 0 0 1 2.822-14.315 74.3 74.3 0 0 1-9.439-3.226 7.373 7.373 0 0 1-5.092 1.889c-2.318-.051-3.07-1.043-2.949-2.126-2.47 1.374-4.441 2.673-4.441 2.673-2.1 3.646-6.357 7.187-6.665 12.781-.075 1.374 3.312 13.872 3.314 14.177z" transform="translate(-1849.895 -867.506)" style="fill:#fff"/>
                <path data-name="Path 4994" d="M2133.4 1046.832c1 1.415 2.916 10.013 7.683 11.094-2.456-6.128-4.322-8.815-4.613-10.7a46.452 46.452 0 0 1-.283-10.589c-1.6-2.8-2.787-4.715-2.787-4.715-.125-.452-2.536-7.907-3.309-1.243s2.189 14.571 3.309 16.153z" transform="translate(-1945.291 -925.769)" style="fill:#5f9aa8"/>
                <path data-name="Path 4995" d="M2056.167 863.473s9.433.156 9.439-5.72 1.228-9.812-4.793-10.16-7.194 1.893-7.674 3.853.575 11.835 3.028 12.027z" transform="translate(-1881.437 -776.071)" style="fill:#ffb27d"/>
                <path data-name="Path 4996" d="M2073.554 841.093s2.582 6.893 6.546 7.912 5.682-.043 5.682-.043a11.221 11.221 0 0 1-3.671-6.63s-6.611-4.52-8.557-1.239z" transform="translate(-1898.475 -769.715)" style="fill:#a9453d"/>
                <path data-name="Path 4997" d="M2054.007 844.727a8.334 8.334 0 0 0-2.4 3.035c-.47 1.5-.682 4.576-1.579 4.471 0 0-1.946-4.685.241-7.336 2.319-2.81 3.738-.17 3.738-.17z" transform="translate(-1878.288 -772.789)" style="fill:#a9453d"/>
                <path data-name="Path 4998" d="m1962.47 1176.414-4.455 13.586 2.541 1.019 7.366-12z" transform="translate(-1802.581 -1049.012)" style="fill:#ffb27d"/>
                <path data-name="Path 4999" d="M1990.822 968.738s-5.253 2.085-6.773 5.334-3.823 25.049-4.739 27.288-1.606 4.011-1.606 4.011 2.648 2.231 5.312 2.4 7.806-39.033 7.806-39.033z" transform="translate(-1818.922 -876.647)" style="fill:#f99746"/>
                <path data-name="Path 5000" d="M2010.619 957.724s-5.457 13.482-5.618 16.21-.642 44.616-.642 44.616.321 1.926-3.37 1.123-4.654-1.6-4.654-1.6 3.531-25.839 2.568-34.826 7.382-23.646 7.382-23.646z" transform="translate(-1834.385 -867.506)" style="fill:#f99746"/>
                <path data-name="Path 5001" d="m1934.542 1370.874 3.2.1a1.847 1.847 0 0 0 1.483-.669 82.522 82.522 0 0 0 14.146-26.667q.185-.587.392-1.189c2.9-8.451 8.907-19.06 12.074-28.662.5-1.529.956-2.969 1.363-4.332.13-.437.257-.865.377-1.287l-3.367-2.555s-10.109 16.37-13.239 31.775c-2.723 13.38-13.611 29.482-16.429 33.486z" transform="translate(-1783.099 -1156.241)" style="fill:#1e3d70"/>
                <path data-name="Path 5002" d="M2095.966 1317.615c-.054 7.087.282 22.884 1.144 30.606a1.4 1.4 0 0 0 1.388 1.24h2.386c1.006 0 1.757-.007 2.258-.015a.918.918 0 0 0 .885-.741c2.372-12.073 4.07-22.1 5.313-30.769 1.04-7.254 1.964-13.473 2.675-18.827.716-5.388 1.214-9.9 1.392-13.711.027-.6.048-1.185.059-1.751s.015-1.123.01-1.661l-19.756-1.926c.248 13.127 2.28 33.201 2.246 37.555z" transform="translate(-1915.211 -1135.034)" style="fill:#2a4e96"/>
                <path data-name="Path 5003" d="M2135.854 1375.517c.9 0 1.6-.006 2.1-.012a1.114 1.114 0 0 0 1.076-.9c2.356-12 4.045-21.985 5.283-30.614 1.04-7.254 1.964-13.473 2.675-18.827.716-5.388 1.213-9.9 1.391-13.711l-7.249 4.264s4.627 1.632 2.861 13.99-5.68 44.061-8.137 45.81z" transform="translate(-1950.182 -1161.091)" style="fill:#1e3d70"/>
                <path data-name="Path 5004" d="M2097.413 1019.089s1.391 5.028 6.206 4.386 11.661-3.531 11.661-3.531-2.057-6.5-4.616-15.043c-3.1-10.34-6.931-23.671-8.739-32.079a51.953 51.953 0 0 1-.982-5.733l-3.995-7.75s-5.956 13.367-6.277 16.737 6.742 43.013 6.742 43.013z" transform="translate(-1912.674 -868.847)" style="fill:#f99746"/>
                <path data-name="Path 5005" d="m2067.8 975.575-5.272-16.235a81.326 81.326 0 0 1 10 3.666s2.089 2.693 3.382 8.907c0 0 1.366 14.918-1.684 20.375 0 0-9.629 1.926-25.037-3.37v-3.531s16.852.883 20.3 1.284z" transform="translate(-1878.255 -868.847)" style="fill:#ffb27d"/>
                <path data-name="Path 5006" d="M2131.6 1048.952c.215 5.457 1.5 16.049 12.947 21.719.03.015.061.031.091.043-3.1-10.34-6.931-23.671-8.739-32.079-2.099 3.143-4.415 7.313-4.299 10.317z" transform="translate(-1946.649 -934.66)" style="fill:#ed7d2b"/>
                <path data-name="Path 5007" d="M2124.878 959.34s9.773.689 12.126 5.931 3.1 22.683.107 27.818c0 0-4.125 1.175-11.42-.189l-.27-.051s-2.327-5.7-.241-6.821c0 0 6.152.321 5.51-1.712s-5.812-24.976-5.812-24.976z" transform="translate(-1940.604 -868.847)" style="fill:#f99746"/>
                <g data-name="Group 14401">
                    <path data-name="Path 5008" d="m1983.529 1101 .288.925 16.036-4.989a.616.616 0 0 0 .108-.567.454.454 0 0 0-.4-.358z" transform="translate(-1823.757 -982.282)" style="fill:#a9453d"/>
                    <path data-name="Path 5009" d="m1976.708 1126.227 1.16-.875.288.925z" transform="translate(-1818.096 -1006.632)" style="fill:#a9453d"/>
                </g>
                <path data-name="Path 5010" d="M1938.011 1254.111s-4.068 2.248-4.6 3.961-.168 5.3.478 5.246 1.609-3.854 2.145-4.121 1.285-1.07 1.285-.482-.535 1.659-.268 1.82 1.124-1.5 1.713-1.82.836-2.968 1.408-3.679-2.161-.925-2.161-.925z" transform="translate(-1781.944 -1113.498)" style="fill:#ffb27d"/>
                <path data-name="Path 5011" d="M2004.249 1103.093s-3.638-2.24-5.164-1.9-5.416 3.162-3.544 3.772 3.386-.03 4.1.413 1.251 1.253 4.6 1.242.008-3.527.008-3.527z" transform="translate(-1833.312 -986.554)" style="fill:#ffb27d"/>
            </g>
            <g data-name="Group 14425">
                <path data-name="Path 5042" d="M2583.844 1101.459s-.382-3.8 1.6-3.667 2.511 1.041 2.29 1.771a20.74 20.74 0 0 1-2.153 3.144z" transform="translate(-2321.975 -983.756)" style="fill:#ffb27d"/>
                <path data-name="Path 5043" d="M2429.847 1136.625c-3.464.139-10.407-1.9-13.027-2.972a52.309 52.309 0 0 1-6.477-3.187q-.74-.43-1.41-.854a32.463 32.463 0 0 1-6.926-5.565s8.859-7.659 12.432-5.653c4.192 2.354 11.42 9.958 12.641 9.177 1.375-.879 5.211-11.656 5.211-11.656 2.525-.481 3.072 1.429 3.072 1.429s-.598 19.084-5.516 19.281z" transform="translate(-2171.081 -998.736)" style="fill:#f99746"/>
                <path data-name="Path 5044" d="M2479.333 1703.452s-.363 4.2.525 4.637l11.364-.023s0-1.311-1.825-1.6-5.032-1.36-5.574-3.74-4.49.726-4.49.726z" transform="translate(-2235.198 -1485.088)" style="fill:#233862"/>
                <path data-name="Path 5045" d="M2458.235 1348.163c-.056 2.747-.188 5.58-.447 8.126-1.227 12.082-1.659 26.68-1.835 29.495-.306 4.886-1.271 12.691-1.271 12.691s-1.915 1.817-5.646.95a127.032 127.032 0 0 1-3.782-23.079l-.032-.585c-.08-1.565-.164-3.354-.249-5.284-.569-12.924-1.186-32.124-1.186-32.124l14.26-3.348s.328 6.311.188 13.158z" transform="translate(-2205.757 -1180.638)" style="fill:#2a4e96"/>
                <path data-name="Path 5046" d="M2458.235 1348.163c-3.614 6.235-10.5 17.722-13.261 22.314-.569-12.924-1.186-32.124-1.186-32.124l14.26-3.348s.327 6.311.187 13.158z" transform="translate(-2205.757 -1180.638)" style="fill:#233862"/>
                <path data-name="Path 5047" d="M2350.142 1399.407a22.128 22.128 0 0 0-.74 4.242 15.192 15.192 0 0 0 1.548 4.031c.539.648.561-2.817.919-3.362s.164 1.293.451 1.444.765-1.392.979-1.939-.766-2.451-.856-3.816-2.301-.6-2.301-.6z" transform="translate(-2127.407 -1233.913)" style="fill:#ffb27d"/>
                <path data-name="Path 5048" d="M2305.014 1679.044s-2.022 1.846-1.628 3.157 2.22 2.186 2.467 3.789 1.233 2.477 2.121 2.477h4.233s.654-1.128-.925-1.468-2.174-2.223-2.075-3.972a30.877 30.877 0 0 0-.148-4.08l-3.354-.777z" transform="translate(-2089.187 -1465.454)" style="fill:#233862"/>
                <path data-name="Path 5049" d="M2347.425 1335.235s-13.348 28.561-20.452 41.092-9.323 16.029-9.323 16.029-4.07-1.6-4.439-2.7c0 0 2.716-24.193 7.473-30.09 2.688-3.332 5.846-13.333 5.993-16.83s3.266-11.844 3.266-11.844z" transform="translate(-2097.382 -1177.227)" style="fill:#2a4e96"/>
                <path data-name="Path 5050" d="M2397.271 1157.349a23.129 23.129 0 0 1-11.732 6.091c-3.242.62-9.821 1.22-11.453-1.088a4.134 4.134 0 0 1-.3-2.6c.22-3.255 1.039-9.549-2.659-22.2a21.545 21.545 0 0 1-.71-3.38c-.807-6.471 1.922-11.063 5.126-13.112 7.814-5 11.633-1.546 11.633-1.546a14.089 14.089 0 0 1 6.518 8.183c4.086 12.192 3.577 29.652 3.577 29.652z" transform="translate(-2144.742 -1000.827)" style="fill:#f99746"/>
                <path data-name="Path 5051" d="M2414.947 1082.563a13.9 13.9 0 0 0 8.554-.227s.788-.412.142-1.3a13 13 0 0 0 .065-1.4 20.369 20.369 0 0 0-.022-2.257l-3.006-1.959-2.853-1.877a10.391 10.391 0 0 1-2.88 9.02z" transform="translate(-2181.82 -963.633)" style="fill:#ffb27d"/>
                <path data-name="Path 5052" d="M2432.8 1084.981a9.687 9.687 0 0 0 5.727 3.815c.05-1.446-.045-2.925-.045-2.925l-2.983-1.291z" transform="translate(-2196.636 -972.793)" style="fill:#ed985f"/>
                <path data-name="Path 5053" d="M2429.722 1034.349s-7.241 2.7-8.853-1.759-3.631-7.118.924-9.032 6.073-.533 6.979.825 2.792 9.149.95 9.966z" transform="translate(-2185.185 -921.366)" style="fill:#ffb27d"/>
                <path data-name="Path 5054" d="M2400.5 1009.709c-.083-.065-.252-.1-.6-.047a1.439 1.439 0 0 1 .615-.312 1.788 1.788 0 0 1 .859-1.782 1.066 1.066 0 0 0-.358.855c.77-1.184 2.7-2.315 8.523-3 7.676-.9 6.141 4.435 5.276 5.2s-3.64-.325-5.435.18-1.621 3.208-2.168 3.691-.43-.2-1.341-.417-.718 1.189-.3 2.043-.5 2.27-.5 2.27l-1.409-1.022c-1.409-1.022-3.551-6.105-3.246-7.34.035-.098.061-.208.084-.319z" transform="translate(-2169.332 -907.015)" style="fill:#2c3a64"/>
                <path data-name="Path 5055" d="M2374.482 1235.83c.22-3.255 1.039-9.549-2.658-22.2a21.578 21.578 0 0 1-.711-3.381c2.747-.906 7.752 1.109 7.752 1.109s1.177 16.722-4.383 24.472z" transform="translate(-2145.44 -1076.902)" style="fill:#ed7d2b"/>
                <path data-name="Path 5056" d="M2344.756 1133.069a17.975 17.975 0 0 0-7.609 10.377c-1.589 5.871-4.047 14.6-4.343 17.335s3 18.72 3 18.72a2.143 2.143 0 0 0 1.6.111 2.647 2.647 0 0 0 1.6-.955s.788-10.657.584-15.688c-.084-2.091 9.678-15.31 14.946-17.013 2.066-.67-9.778-12.887-9.778-12.887z" transform="translate(-2113.629 -1013.038)" style="fill:#f99746"/>
                <path data-name="Path 5057" d="M2412.7 1110.7s-.947.463-2.783 2.905c0 0 3.419 4.288 8.354 3.729a16.49 16.49 0 0 1-.577-3.634s-4.121-.462-4.994-3z" transform="translate(-2177.65 -994.469)" style="fill:#ed7d2b"/>
                <path data-name="Path 5058" d="M2455.662 1119.444s2.636.688 3.269 2.583a4.018 4.018 0 0 0 .066-2.551 8.215 8.215 0 0 0-1.562-1.855s.365 1.164-1.773 1.823z" transform="translate(-2215.613 -1000.216)" style="fill:#ed7d2b"/>
                <g data-name="Group 14424">
                    <g data-name="Group 14423">
                        <path data-name="Path 5059" d="M2554.272 987.621a112.432 112.432 0 0 0-21.043 1.8l-1.177-2.968-1.292-3.252s11.317-4.872 18.121-11.657z" transform="translate(-2277.941 -878.975)" style="fill:#fff"/>
                        <path data-name="Path 5060" d="m2636.423 970.106 5.609 16.557a1.493 1.493 0 0 0 .983-1.93l-4.937-13.911a1.231 1.231 0 0 0-1.655-.716z" transform="translate(-2365.638 -877.697)" style="fill:#f99746"/>
                        <path data-name="Path 5061" d="M2560.576 1056.833a112.422 112.422 0 0 0-21.043 1.8l-1.177-2.968c10.592-2.165 22.22 1.168 22.22 1.168z" transform="translate(-2284.245 -948.187)" style="fill:#d7e1ff"/>
                        <path data-name="Path 5062" d="m2528.5 1037.492-3.052.537c.047 0-2.836.561-3.78-1.994a2.071 2.071 0 0 1-.181-.551c-.734-3.184 1.014-3.771 1.014-3.771l3.929-1.531 1.248 4.417v.016z" transform="translate(-2270.093 -927.645)" style="fill:#f99746"/>
                        <path data-name="Path 5063" d="m2530.26 1059.053-3.052.537c.047 0-2.835.561-3.78-1.994 1.727-1.256 6.009-1.436 6.009-1.436v.016z" transform="translate(-2271.856 -949.206)" style="fill:#ed7d2b"/>
                    </g>
                    <path data-name="Path 5064" d="M2583.7 1071.869a2.028 2.028 0 0 1-2.379-1.587l-1.931-9.663a2.028 2.028 0 0 1 1.587-2.379 2.028 2.028 0 0 1 2.379 1.587l1.931 9.663a2.028 2.028 0 0 1-1.587 2.379z" transform="translate(-2318.272 -950.9)" style="fill:#d7e1ff"/>
                </g>
                <path data-name="Path 5065" d="M2597.284 1083.14s-1.493.6-1.219 1.253 2.173 1.562 2.472 1.043-.313-2.85-1.253-2.296z" transform="translate(-2332.115 -971.528)" style="fill:#ffb27d"/>
                <path data-name="Path 5066" d="M2581.772 1098.851a20.97 20.97 0 0 1-.3-2.229c-.018-.7-.221-1.232-.056-1.252s.257.1.324.328l.476 1.589-.13 1.351z" transform="translate(-2319.932 -981.746)" style="fill:#ffb27d"/>
            </g>
        </g>
    </g>
</svg>
